{
.appVersion = "895";
classes = (
{
code = "u10C80 u10C81 u10C82 u10C83 u10C84 u10C85 u10C86 u10C87 u10C88 u10C89 u10C8A u10C8B u10C8C u10C8D u10C8E u10C8F u10C90 u10C91 u10C92 u10C93 u10C94 u10C95 u10C96 u10C97 u10C98 u10C99 u10C9A u10C9B u10C9C u10C9D u10C9E u10C9F u10CA0 u10CA1 u10CA2 u10CA3 u10CA4 u10CA5 u10CA6 u10CA7 u10CA8 u10CA9 u10CAA u10CAB u10CAC u10CAD u10CAE u10CAF u10CB0 u10CB1 u10CB2 u10CC0 u10CC1 u10CC2 u10CC3 u10CC4 u10CC5 u10CC6 u10CC7 u10CC8 u10CC9 u10CCA u10CCB u10CCC u10CCD u10CCE u10CCF u10CD0 u10CD1 u10CD2 u10CD3 u10CD4 u10CD5 u10CD6 u10CD7 u10CD8 u10CD9 u10CDA u10CDB u10CDC u10CDD u10CDE u10CDF u10CE0 u10CE1 u10CE2 u10CE3 u10CE4 u10CE5 u10CE6 u10CE7 u10CE8 u10CE9 u10CEA u10CEB u10CEC u10CED u10CEE u10CEF u10CF0 u10CF1 u10CF2";
name = ltrm;
},
{

glyphs = (
{
glyphname = u10C80;
layers = (
{
layerId = "4958E06B-1FD7-4815-824D-973C628D14CF";
paths = (
{
closed = 1;
nodes = (
"618 4 LINE",
"618 760 LINE",
"20 760 LINE",
"20 958 LINE",
"604 1465 LINE",
"797 1465 LINE",
"797 4 LINE"
);
},
{
closed = 1;
nodes = (
"618 916 LINE",
"618 1285 LINE",
"184 916 LINE"
);
}
);
width = 1053;
}
);
unicode = 10C80;
},
{
glyphname = u10C81;
layers = (
{
layerId = "4958E06B-1FD7-4815-824D-973C628D14CF";
paths = (
{
closed = 1;
nodes = (
"618 2 LINE",
"618 442 LINE",
"46 822 LINE",
"46 964 LINE",
"612 1463 LINE",
"797 1463 LINE",
"797 2 LINE"
);
},
{
closed = 1;
nodes = (
"618 637 LINE",
"618 1265 LINE",
"214 904 LINE"
);
}
);
width = 1053;
}
);
unicode = 10C81;
},
{
glyphname = u10C82;
layers = (
{
layerId = "4958E06B-1FD7-4815-824D-973C628D14CF";
paths = (
{
closed = 1;
nodes = (
"9 1 LINE",
"571 756 LINE",
"45 1461 LINE",
"264 1461 LINE",
"691 869 LINE",
"1124 1461 LINE",
"1331 1461 LINE",
"806 759 LINE",
"1371 -1 LINE",
"1148 -1 LINE",
"685 639 LINE",
"217 1 LINE"
);
}
);
width = 1377;
}
);
unicode = 10C82;
},
{
glyphname = u10C83;
layers = (
{
layerId = "4958E06B-1FD7-4815-824D-973C628D14CF";
paths = (
{
closed = 1;
nodes = (
"1111 -2 OFFCURVE",
"1111 -2 OFFCURVE",
"925 -2 CURVE",
"878.333 29.3333 OFFCURVE",
"834.5 61.3333 OFFCURVE",
"793.5 94 CURVE SMOOTH",
"752.5 126.667 OFFCURVE",
"714.667 159.667 OFFCURVE",
"680 193 CURVE",
"501 0 LINE",
"110 152 LINE",
"170 282 LINE",
"451 165 LINE",
"574 308 LINE",
"524.667 370.667 OFFCURVE",
"486.833 436.667 OFFCURVE",
"460.5 506 CURVE SMOOTH",
"434.167 575.333 OFFCURVE",
"421 649.333 OFFCURVE",
"421 728 CURVE SMOOTH",
"421 806.667 OFFCURVE",
"434.333 881 OFFCURVE",
"461 951 CURVE SMOOTH",
"487.667 1021 OFFCURVE",
"525.333 1087.67 OFFCURVE",
"574 1151 CURVE",
"451 1292 LINE",
"170 1175 LINE",
"110 1307 LINE",
"501 1457 LINE",
"680 1264 LINE",
"714.667 1298.67 OFFCURVE",
"752.5 1332.33 OFFCURVE",
"793.5 1365 CURVE SMOOTH",
"834.5 1397.67 OFFCURVE",
"877.667 1429 OFFCURVE",
"923 1459 CURVE",
"1111 1459 LINE",
"1157.67 1428.33 OFFCURVE",
"1200.83 1397.5 OFFCURVE",
"1240.5 1366.5 CURVE SMOOTH",
"1280.17 1335.5 OFFCURVE",
"1317.33 1302.67 OFFCURVE",
"1352 1268 CURVE",
"1526 1457 LINE",
"1920 1307 LINE",
"1856 1175 LINE",
"1577 1292 LINE",
"1458 1155 LINE",
"1508.67 1091 OFFCURVE",
"1547.17 1024.33 OFFCURVE",
"1573.5 955 CURVE SMOOTH",
"1599.83 885.667 OFFCURVE",
"1613 810 OFFCURVE",
"1613 728 CURVE SMOOTH",
"1613 647.333 OFFCURVE",
"1599.83 572.167 OFFCURVE",
"1573.5 502.5 CURVE SMOOTH",
"1547.17 432.833 OFFCURVE",
"1508.67 366 OFFCURVE",
"1458 302 CURVE",
"1577 165 LINE",
"1856 282 LINE",
"1920 152 LINE",
"1526 0 LINE",
"1352 189 LINE",
"1317.33 156.333 OFFCURVE",
"1280.17 124 OFFCURVE",
"1240.5 92 CURVE SMOOTH",
"1200.83 60 OFFCURVE",
"1157.67 28.6667 OFFCURVE",
"1111 -2 CURVE"
);
},
{
closed = 1;
nodes = (
"1021 121 LINE",
"1113 191 OFFCURVE",
"1188.83 256.833 OFFCURVE",
"1248.5 318.5 CURVE SMOOTH",
"1308.17 380.167 OFFCURVE",
"1353 444.167 OFFCURVE",
"1383 510.5 CURVE SMOOTH",
"1413 576.833 OFFCURVE",
"1428 649.333 OFFCURVE",
"1428 728 CURVE SMOOTH",
"1428 806.667 OFFCURVE",
"1413 879.333 OFFCURVE",
"1383 946 CURVE SMOOTH",
"1353 1012.67 OFFCURVE",
"1308.17 1076.83 OFFCURVE",
"1248.5 1138.5 CURVE SMOOTH",
"1188.83 1200.17 OFFCURVE",
"1113 1266 OFFCURVE",
"1021 1336 CURVE",
"1013 1341 LINE",
"922.333 1271 OFFCURVE",
"846.833 1204 OFFCURVE",
"786.5 1140 CURVE SMOOTH",
"726.167 1076 OFFCURVE",
"681 1011.83 OFFCURVE",
"651 947.5 CURVE SMOOTH",
"621 883.167 OFFCURVE",
"606 810 OFFCURVE",
"606 728 CURVE SMOOTH",
"606 648.667 OFFCURVE",
"621 576 OFFCURVE",
"651 510 CURVE SMOOTH",
"681 444 OFFCURVE",
"726.167 380.167 OFFCURVE",
"786.5 318.5 CURVE SMOOTH",
"846.833 256.833 OFFCURVE",
"922.333 191 OFFCURVE",
"1013 121 CURVE"
);
}
);
width = 2030;
}
);
unicode = 10C83;
},
{
glyphname = u10C84;
layers = (
{
layerId = "4958E06B-1FD7-4815-824D-973C628D14CF";
paths = (
{
closed = 1;
nodes = (
"528 1 LINE",
"528 1230 LINE",
"166 921 LINE",
"48 1043 LINE",
"544 1464 LINE",
"692 1464 LINE",
"1189 1043 LINE",
"1071 921 LINE",
"708 1230 LINE",
"708 1 LINE"
);
}
);
width = 1235;
}
);
unicode = 10C84;
},
{
glyphname = u10C85;
layers = (
{
layerId = "4958E06B-1FD7-4815-824D-973C628D14CF";
paths = (
{
closed = 1;
nodes = (
"550 5 LINE",
"54 426 LINE",
"172 545 LINE",
"534 239 LINE",
"534 1234 LINE",
"172 927 LINE",
"68 1047 LINE",
"550 1468 LINE",
"698 1468 LINE",
"1181 1047 LINE",
"1077 927 LINE",
"714 1234 LINE",
"714 239 LINE",
"1077 545 LINE",
"1195 426 LINE",
"698 5 LINE"
);
}
);
width = 1235;
}
);
unicode = 10C85;
},
{
glyphname = u10C86;
layers = (
{
layerId = "4958E06B-1FD7-4815-824D-973C628D14CF";
paths = (
{
closed = 1;
nodes = (
"248 2 LINE",
"248 1465 LINE",
"427 1465 LINE",
"427 978 LINE",
"1239 1465 LINE",
"1412 1465 LINE",
"1412 2 LINE",
"1233 2 LINE",
"1233 493 LINE",
"421 2 LINE"
);
},
{
closed = 1;
nodes = (
"427 202 LINE",
"1233 676 LINE",
"1233 1275 LINE",
"427 790 LINE"
);
}
);
width = 1658;
}
);
unicode = 10C86;
},
{
glyphname = u10C87;
layers = (
{
layerId = "4958E06B-1FD7-4815-824D-973C628D14CF";
paths = (
{
closed = 1;
nodes = (
"528 4 LINE",
"528 651 LINE",
"192 476 LINE",
"114 613 LINE",
"528 822 LINE",
"528 1467 LINE",
"720 1467 LINE",
"720 918 LINE",
"1057 1098 LINE",
"1135 958 LINE",
"720 742 LINE",
"720 4 LINE"
);
}
);
width = 1249;
}
);
unicode = 10C87;
},
{
glyphname = u10C88;
layers = (
{
layerId = "4958E06B-1FD7-4815-824D-973C628D14CF";
paths = (
{
closed = 1;
nodes = (
"8 4 LINE",
"489 652 LINE",
"108 552 LINE",
"60 668 LINE",
"546 793 LINE",
"44 1461 LINE",
"263 1461 LINE",
"690 875 LINE",
"1123 1461 LINE",
"1330 1461 LINE",
"893 882 LINE",
"1269 981 LINE",
"1300 859 LINE",
"825 737 LINE",
"1370 4 LINE",
"1147 4 LINE",
"684 645 LINE",
"216 4 LINE"
);
}
);
width = 1377;
}
);
unicode = 10C88;
},
{
glyphname = u10C89;
layers = (
{
layerId = "4958E06B-1FD7-4815-824D-973C628D14CF";
paths = (
{
closed = 1;
nodes = (
"273 1 OFFCURVE",
"273 1 OFFCURVE",
"172 117 CURVE",
"229.333 146.333 OFFCURVE",
"281.333 174.667 OFFCURVE",
"328 202 CURVE SMOOTH",
"381.333 233.333 OFFCURVE",
"423.667 259.333 OFFCURVE",
"455 280 CURVE",
"196 465 LINE",
"305 560 LINE",
"572 371 LINE",
"634.667 426.333 OFFCURVE",
"679.333 483 OFFCURVE",
"706 541 CURVE SMOOTH",
"732.667 599 OFFCURVE",
"746 662.333 OFFCURVE",
"746 731 CURVE SMOOTH",
"746 799.667 OFFCURVE",
"732.333 862.833 OFFCURVE",
"705 920.5 CURVE SMOOTH",
"677.667 978.167 OFFCURVE",
"630.667 1035.67 OFFCURVE",
"564 1093 CURVE",
"305 908 LINE",
"196 1007 LINE",
"447 1183 LINE",
"408.333 1209 OFFCURVE",
"365.5 1236 OFFCURVE",
"318.5 1264 CURVE SMOOTH",
"271.5 1292 OFFCURVE",
"219.333 1321.33 OFFCURVE",
"162 1352 CURVE",
"283 1462 LINE",
"343 1430 OFFCURVE",
"397.833 1399 OFFCURVE",
"447.5 1369 CURVE SMOOTH",
"497.167 1339 OFFCURVE",
"542.667 1309.33 OFFCURVE",
"584 1280 CURVE",
"833 1457 LINE",
"931 1354 LINE",
"702 1190 LINE",
"786 1117.33 OFFCURVE",
"845.5 1044.5 OFFCURVE",
"880.5 971.5 CURVE SMOOTH",
"915.5 898.5 OFFCURVE",
"933 818.333 OFFCURVE",
"933 731 CURVE SMOOTH",
"933 643.667 OFFCURVE",
"915.667 563.833 OFFCURVE",
"881 491.5 CURVE SMOOTH",
"846.333 419.167 OFFCURVE",
"788 347.333 OFFCURVE",
"706 276 CURVE",
"931 117 LINE",
"833 14 LINE",
"588 187 LINE",
"545.333 157.667 OFFCURVE",
"497.833 127.667 OFFCURVE",
"445.5 97 CURVE SMOOTH",
"393.167 66.3333 OFFCURVE",
"335.667 34.3333 OFFCURVE",
"273 1 CURVE"
);
}
);
width = 1121;
}
);
unicode = 10C89;
},
{
glyphname = u10C8A;
layers = (
{
layerId = "4958E06B-1FD7-4815-824D-973C628D14CF";
paths = (
{
closed = 1;
nodes = (
"299 2 OFFCURVE",
"299 2 OFFCURVE",
"196 119 CURVE",
"246.667 145.667 OFFCURVE",
"293.167 170.833 OFFCURVE",
"335.5 194.5 CURVE SMOOTH",
"377.833 218.167 OFFCURVE",
"417 241.333 OFFCURVE",
"453 264 CURVE",
"363.667 338 OFFCURVE",
"299.833 412.333 OFFCURVE",
"261.5 487 CURVE SMOOTH",
"223.167 561.667 OFFCURVE",
"204 643 OFFCURVE",
"204 731 CURVE SMOOTH",
"204 819 OFFCURVE",
"222.833 900.5 OFFCURVE",
"260.5 975.5 CURVE SMOOTH",
"298.167 1050.5 OFFCURVE",
"361.667 1124.33 OFFCURVE",
"451 1197 CURVE",
"413.667 1222.33 OFFCURVE",
"373 1247.67 OFFCURVE",
"329 1273 CURVE SMOOTH",
"285 1298.33 OFFCURVE",
"237.333 1325 OFFCURVE",
"186 1353 CURVE",
"307 1463 LINE",
"416.333 1405 OFFCURVE",
"508.667 1350.33 OFFCURVE",
"584 1299 CURVE",
"660 1349.67 OFFCURVE",
"752.333 1404.33 OFFCURVE",
"861 1463 CURVE",
"983 1356 LINE",
"953.667 1341.33 OFFCURVE",
"905.667 1314 OFFCURVE",
"839 1274 CURVE SMOOTH",
"795 1248 OFFCURVE",
"755.333 1223 OFFCURVE",
"720 1199 CURVE",
"808 1125 OFFCURVE",
"870.833 1050.83 OFFCURVE",
"908.5 976.5 CURVE SMOOTH",
"946.167 902.167 OFFCURVE",
"965 820.5 OFFCURVE",
"965 731.5 CURVE SMOOTH",
"965 642.5 OFFCURVE",
"946 560.833 OFFCURVE",
"908 486.5 CURVE SMOOTH",
"870 412.167 OFFCURVE",
"806 338 OFFCURVE",
"716 264 CURVE",
"752 240.667 OFFCURVE",
"791.5 217 OFFCURVE",
"834.5 193 CURVE SMOOTH",
"877.5 169 OFFCURVE",
"923.667 144.333 OFFCURVE",
"973 119 CURVE",
"869 2 LINE",
"814.333 31.3333 OFFCURVE",
"763.167 59.6667 OFFCURVE",
"715.5 87 CURVE SMOOTH",
"667.833 114.333 OFFCURVE",
"624 141.333 OFFCURVE",
"584 168 CURVE",
"544 141.333 OFFCURVE",
"500.167 114.333 OFFCURVE",
"452.5 87 CURVE SMOOTH",
"404.833 59.6667 OFFCURVE",
"353.667 31.3333 OFFCURVE",
"299 2 CURVE"
);
},
{
closed = 1;
nodes = (
"653.333 418 OFFCURVE",
"702.833 477 OFFCURVE",
"732.5 537 CURVE SMOOTH",
"762.167 597 OFFCURVE",
"777 661.667 OFFCURVE",
"777 731 CURVE SMOOTH",
"777 800.333 OFFCURVE",
"762.5 864.5 OFFCURVE",
"733.5 923.5 CURVE SMOOTH",
"704.5 982.5 OFFCURVE",
"654.667 1041 OFFCURVE",
"584 1099 CURVE",
"513.333 1039.67 OFFCURVE",
"463.5 981 OFFCURVE",
"434.5 923 CURVE SMOOTH",
"405.5 865 OFFCURVE",
"391 801 OFFCURVE",
"391 731 CURVE SMOOTH",
"391 661 OFFCURVE",
"405.833 596.167 OFFCURVE",
"435.5 536.5 CURVE SMOOTH",
"465.167 476.833 OFFCURVE",
"514.667 418 OFFCURVE",
"584 360 CURVE"
);
}
);
width = 1167;
}
);
unicode = 10C8A;
},
{
glyphname = u10C8B;
layers = (
{
layerId = "4958E06B-1FD7-4815-824D-973C628D14CF";
paths = (
{
closed = 1;
nodes = (
"558 6 LINE",
"176 270 LINE",
"290.667 323.333 OFFCURVE",
"384 374.333 OFFCURVE",
"456 423 CURVE SMOOTH",
"528 471.667 OFFCURVE",
"581.667 521 OFFCURVE",
"617 571 CURVE SMOOTH",
"652.333 621 OFFCURVE",
"670 675.667 OFFCURVE",
"670 735 CURVE SMOOTH",
"670 795.667 OFFCURVE",
"652.667 851.167 OFFCURVE",
"618 901.5 CURVE SMOOTH",
"583.333 951.833 OFFCURVE",
"529.5 1001.33 OFFCURVE",
"456.5 1050 CURVE SMOOTH",
"383.5 1098.67 OFFCURVE",
"290 1150 OFFCURVE",
"176 1204 CURVE",
"176 1204 OFFCURVE",
"176 1204 OFFCURVE",
"558 1467 CURVE",
"674 1360 LINE",
"461 1218 LINE",
"602.333 1140.67 OFFCURVE",
"703.667 1064.5 OFFCURVE",
"765 989.5 CURVE SMOOTH",
"826.333 914.5 OFFCURVE",
"857 829.667 OFFCURVE",
"857 735 CURVE SMOOTH",
"857 643.667 OFFCURVE",
"826.167 560.333 OFFCURVE",
"764.5 485 CURVE SMOOTH",
"702.833 409.667 OFFCURVE",
"601.667 333.333 OFFCURVE",
"461 256 CURVE",
"674 115 LINE"
);
}
);
width = 1021;
}
);
unicode = 10C8B;
},
{
glyphname = u10C8C;
layers = (
{
layerId = "4958E06B-1FD7-4815-824D-973C628D14CF";
paths = (
{
closed = 1;
nodes = (
"859 6 OFFCURVE",
"859 6 OFFCURVE",
"674 6 CURVE",
"567.333 77.3333 OFFCURVE",
"475.833 149.333 OFFCURVE",
"399.5 222 CURVE SMOOTH",
"323.167 294.667 OFFCURVE",
"264.5 372.667 OFFCURVE",
"223.5 456 CURVE SMOOTH",
"182.5 539.333 OFFCURVE",
"162 632.667 OFFCURVE",
"162 736 CURVE SMOOTH",
"162 839.333 OFFCURVE",
"182.5 932.833 OFFCURVE",
"223.5 1016.5 CURVE SMOOTH",
"264.5 1100.17 OFFCURVE",
"323.167 1178.5 OFFCURVE",
"399.5 1251.5 CURVE SMOOTH",
"475.833 1324.5 OFFCURVE",
"566.667 1396.33 OFFCURVE",
"672 1467 CURVE",
"859 1467 LINE",
"965.667 1396.33 OFFCURVE",
"1057 1324.5 OFFCURVE",
"1133 1251.5 CURVE SMOOTH",
"1209 1178.5 OFFCURVE",
"1267.5 1100.17 OFFCURVE",
"1308.5 1016.5 CURVE SMOOTH",
"1349.5 932.833 OFFCURVE",
"1370 839.333 OFFCURVE",
"1370 736 CURVE SMOOTH",
"1370 632 OFFCURVE",
"1349.5 538.5 OFFCURVE",
"1308.5 455.5 CURVE SMOOTH",
"1267.5 372.5 OFFCURVE",
"1209 294.667 OFFCURVE",
"1133 222 CURVE SMOOTH",
"1057 149.333 OFFCURVE",
"965.667 77.3333 OFFCURVE",
"859 6 CURVE"
);
},
{
closed = 1;
nodes = (
"769 826 LINE",
"1041 1109 LINE",
"1007.67 1147.67 OFFCURVE",
"970.333 1186 OFFCURVE",
"929 1224 CURVE SMOOTH",
"887.667 1262 OFFCURVE",
"837.667 1302.33 OFFCURVE",
"779 1345 CURVE",
"752 1346 LINE",
"657.333 1278 OFFCURVE",
"571 1199.67 OFFCURVE",
"493 1111 CURVE"
);
},
{
closed = 1;
nodes = (
"676 732 LINE",
"417 1006 LINE",
"370.333 926 OFFCURVE",
"347 836 OFFCURVE",
"347 736 CURVE SMOOTH",
"347 683.333 OFFCURVE",
"353 635.167 OFFCURVE",
"365 591.5 CURVE SMOOTH",
"377 547.833 OFFCURVE",
"395 505.333 OFFCURVE",
"419 464 CURVE"
);
},
{
closed = 1;
nodes = (
"1117 469 LINE",
"1162.33 547.667 OFFCURVE",
"1185 636.5 OFFCURVE",
"1185 735.5 CURVE SMOOTH",
"1185 834.5 OFFCURVE",
"1162.33 922.667 OFFCURVE",
"1117 1000 CURVE",
"861 732 LINE"
);
},
{
closed = 1;
nodes = (
"769 133 LINE",
"839 183 OFFCURVE",
"889 220.667 OFFCURVE",
"919 246 CURVE SMOOTH",
"963 283.333 OFFCURVE",
"1001.67 321.333 OFFCURVE",
"1035 360 CURVE",
"769 637 LINE",
"501 355 LINE",
"534.333 318.333 OFFCURVE",
"571.667 282 OFFCURVE",
"613 246 CURVE SMOOTH",
"654.333 210 OFFCURVE",
"702.333 172 OFFCURVE",
"757 132 CURVE"
);
}
);
width = 1533;
}
);
unicode = 10C8C;
},
{
glyphname = u10C8D;
layers = (
{
layerId = "4958E06B-1FD7-4815-824D-973C628D14CF";
paths = (
{
closed = 1;
nodes = (
"48 3 LINE",
"724 1461 LINE",
"897 1461 LINE",
"1561 9 LINE",
"1364 9 LINE",
"1084 625 LINE",
"804 6 LINE",
"616 6 LINE",
"984 827 LINE",
"956 903 LINE SMOOTH",
"914 1012.33 OFFCURVE",
"891 1072.67 OFFCURVE",
"887 1084 CURVE SMOOTH",
"859 1164.67 OFFCURVE",
"836.333 1220.33 OFFCURVE",
"819 1251 CURVE",
"800 1251 LINE",
"778 1194.33 OFFCURVE",
"755.667 1138 OFFCURVE",
"733 1082 CURVE",
"733 1082 OFFCURVE",
"733 1082 OFFCURVE",
"646 891 CURVE SMOOTH",
"248 3 LINE"
);
}
);
width = 1596;
}
);
unicode = 10C8D;
},
{
glyphname = u10C8E;
layers = (
{
layerId = "4958E06B-1FD7-4815-824D-973C628D14CF";
paths = (
{
closed = 1;
nodes = (
"528 6 LINE",
"528 389 LINE",
"192 228 LINE",
"114 355 LINE",
"528 554 LINE",
"528 821 LINE",
"192 662 LINE",
"114 787 LINE",
"528 986 LINE",
"528 1467 LINE",
"720 1467 LINE",
"720 1077 LINE",
"1057 1236 LINE",
"1135 1107 LINE",
"720 910 LINE",
"720 645 LINE",
"1057 804 LINE",
"1135 675 LINE",
"720 478 LINE",
"720 6 LINE"
);
}
);
width = 1243;
}
);
unicode = 10C8E;
},
{
glyphname = u10C8F;
layers = (
{
layerId = "4958E06B-1FD7-4815-824D-973C628D14CF";
paths = (
{
closed = 1;
nodes = (
"128 3 LINE",
"588 370 LINE",
"102 759 LINE",
"588 1123 LINE",
"128 1464 LINE",
"367 1464 LINE",
"706 1209 LINE",
"1043 1464 LINE",
"1286 1464 LINE",
"825 1123 LINE",
"1314 759 LINE",
"825 370 LINE",
"1286 3 LINE",
"1043 3 LINE",
"706 277 LINE",
"371 3 LINE"
);
},
{
closed = 1;
nodes = (
"706 470 LINE",
"1065 761 LINE",
"706 1030 LINE",
"347 761 LINE"
);
}
);
width = 1415;
}
);
unicode = 10C8F;
},
{
glyphname = u10C90;
layers = (
{
layerId = "4958E06B-1FD7-4815-824D-973C628D14CF";
paths = (
{
closed = 1;
nodes = (
"528 4 LINE",
"528 893 LINE",
"192 722 LINE",
"114 857 LINE",
"528 1071 LINE",
"528 1465 LINE",
"720 1465 LINE",
"720 1169 LINE",
"1057 1340 LINE",
"1135 1201 LINE",
"720 989 LINE",
"720 4 LINE"
);
}
);
width = 1249;
}
);
unicode = 10C90;
},
{
glyphname = u10C91;
layers = (
{
layerId = "4958E06B-1FD7-4815-824D-973C628D14CF";
paths = (
{
closed = 1;
nodes = (
"554 3 LINE",
"554 1211 LINE",
"192 1042 LINE",
"114 1168 LINE",
"1057 1610 LINE",
"1135 1483 LINE",
"751 1301 LINE",
"751 3 LINE"
);
}
);
width = 1249;
}
);
unicode = 10C91;
},
{
glyphname = u10C92;
layers = (
{
layerId = "4958E06B-1FD7-4815-824D-973C628D14CF";
paths = (
{
closed = 1;
nodes = (
"646 0 LINE",
"646 1225 LINE",
"172 782 LINE",
"62 896 LINE",
"672 1463 LINE",
"823 1463 LINE",
"823 0 LINE"
);
}
);
width = 1089;
}
);
unicode = 10C92;
},
{
glyphname = u10C93;
layers = (
{
layerId = "4958E06B-1FD7-4815-824D-973C628D14CF";
paths = (
{
closed = 1;
nodes = (
"592 0 LINE",
"112 731 LINE",
"592 1463 LINE",
"775 1463 LINE",
"1255 731 LINE",
"775 0 LINE"
);
},
{
closed = 1;
nodes = (
"684 162 LINE",
"1053 731 LINE",
"684 1303 LINE",
"311 731 LINE"
);
}
);
width = 1363;
}
);
unicode = 10C93;
},
{
glyphname = u10C94;
layers = (
{
layerId = "4958E06B-1FD7-4815-824D-973C628D14CF";
paths = (
{
closed = 1;
nodes = (
"528 4 LINE",
"528 1233 LINE",
"166 924 LINE",
"48 1046 LINE",
"544 1467 LINE",
"708 1467 LINE",
"708 236 LINE",
"1071 546 LINE",
"1189 425 LINE",
"692 4 LINE"
);
}
);
width = 1221;
}
);
unicode = 10C94;
},
{
glyphname = u10C95;
layers = (
{
layerId = "4958E06B-1FD7-4815-824D-973C628D14CF";
paths = (
{
closed = 1;
nodes = (
"479 5 LINE",
"64 167 LINE",
"132 280 LINE",
"397 170 LINE",
"813 741 LINE",
"409 1297 LINE",
"144 1188 LINE",
"76 1301 LINE",
"491 1466 LINE",
"903 874 LINE",
"1318 1466 LINE",
"1731 1301 LINE",
"1665 1188 LINE",
"1398 1297 LINE",
"995 741 LINE",
"1410 170 LINE",
"1677 280 LINE",
"1743 167 LINE",
"1330 5 LINE",
"903 608 LINE"
);
}
);
width = 1808;
}
);
unicode = 10C95;
},
{
glyphname = u10C96;
layers = (
{
layerId = "4958E06B-1FD7-4815-824D-973C628D14CF";
paths = (
{
closed = 1;
nodes = (
"36 3 LINE",
"718 1463 LINE",
"889 1463 LINE",
"1563 -1 LINE",
"1366 -1 LINE",
"1223 317 LINE",
"1079 2 LINE",
"903 2 LINE",
"1135 508 LINE",
"1015 772 LINE",
"666 -1 LINE",
"487 -1 LINE",
"923 972 LINE",
"899 1029.33 OFFCURVE",
"877 1082 OFFCURVE",
"857 1130 CURVE SMOOTH",
"837 1178 OFFCURVE",
"819.667 1224.67 OFFCURVE",
"805 1270 CURVE",
"797 1270 LINE",
"785.667 1238 OFFCURVE",
"766.333 1187.67 OFFCURVE",
"739 1119 CURVE SMOOTH",
"720.333 1073 OFFCURVE",
"694.667 1014.33 OFFCURVE",
"662 943 CURVE SMOOTH",
"236 3 LINE"
);
}
);
width = 1596;
}
);
unicode = 10C96;
},
{
glyphname = u10C97;
layers = (
{
layerId = "4958E06B-1FD7-4815-824D-973C628D14CF";
paths = (
{
closed = 1;
nodes = (
"859 5 OFFCURVE",
"859 5 OFFCURVE",
"674 5 CURVE",
"570 76.3333 OFFCURVE",
"480.5 148.333 OFFCURVE",
"405.5 221 CURVE SMOOTH",
"330.5 293.667 OFFCURVE",
"272.5 371.667 OFFCURVE",
"231.5 455 CURVE SMOOTH",
"190.5 538.333 OFFCURVE",
"170 632.333 OFFCURVE",
"170 737 CURVE SMOOTH",
"170 839 OFFCURVE",
"190.167 931.833 OFFCURVE",
"230.5 1015.5 CURVE SMOOTH",
"270.833 1099.17 OFFCURVE",
"328.833 1177.5 OFFCURVE",
"404.5 1250.5 CURVE SMOOTH",
"480.167 1323.5 OFFCURVE",
"569.333 1395.33 OFFCURVE",
"672 1466 CURVE",
"859 1466 LINE",
"963 1395.33 OFFCURVE",
"1052.67 1323.5 OFFCURVE",
"1128 1250.5 CURVE SMOOTH",
"1203.33 1177.5 OFFCURVE",
"1261.17 1099.17 OFFCURVE",
"1301.5 1015.5 CURVE SMOOTH",
"1341.83 931.833 OFFCURVE",
"1362 839 OFFCURVE",
"1362 737 CURVE SMOOTH",
"1362 631.667 OFFCURVE",
"1341.83 537.5 OFFCURVE",
"1301.5 454.5 CURVE SMOOTH",
"1261.17 371.5 OFFCURVE",
"1203.33 293.667 OFFCURVE",
"1128 221 CURVE SMOOTH",
"1052.67 148.333 OFFCURVE",
"963 76.3333 OFFCURVE",
"859 5 CURVE"
);
},
{
closed = 1;
nodes = (
"1035 1110 LINE",
"1001.67 1147.33 OFFCURVE",
"963 1185 OFFCURVE",
"919 1223 CURVE SMOOTH",
"875 1261 OFFCURVE",
"825 1301.33 OFFCURVE",
"769 1344 CURVE",
"762 1344 LINE",
"671.333 1274.67 OFFCURVE",
"595.833 1209.33 OFFCURVE",
"535.5 1148 CURVE SMOOTH",
"475.167 1086.67 OFFCURVE",
"430 1023.17 OFFCURVE",
"400 957.5 CURVE SMOOTH",
"370 891.833 OFFCURVE",
"355 818.333 OFFCURVE",
"355 737 CURVE SMOOTH",
"355 643 OFFCURVE",
"375 558.333 OFFCURVE",
"415 483 CURVE"
);
},
{
closed = 1;
nodes = (
"769 129 LINE",
"861 198.333 OFFCURVE",
"937 263.333 OFFCURVE",
"997 324 CURVE SMOOTH",
"1057 384.667 OFFCURVE",
"1103.17 438.667 OFFCURVE",
"1135.5 486 CURVE SMOOTH",
"1167.83 533.333 OFFCURVE",
"1184 613.333 OFFCURVE",
"1184 726 CURVE SMOOTH",
"1184 828.667 OFFCURVE",
"1160.33 921.667 OFFCURVE",
"1113 1005 CURVE",
"499 363 LINE",
"532.333 324.333 OFFCURVE",
"570.333 286.167 OFFCURVE",
"613 248.5 CURVE SMOOTH",
"655.667 210.833 OFFCURVE",
"704.333 170.667 OFFCURVE",
"759 128 CURVE"
);
}
);
width = 1531;
}
);
unicode = 10C97;
},
{
glyphname = u10C98;
layers = (
{
layerId = "4958E06B-1FD7-4815-824D-973C628D14CF";
paths = (
{
closed = 1;
nodes = (
"761 4 LINE",
"204 378 LINE",
"204 541 LINE",
"574 715 LINE",
"204 942 LINE",
"204 1108 LINE",
"761 1465 LINE",
"951 1465 LINE",
"951 4 LINE"
);
},
{
closed = 1;
nodes = (
"771 782 LINE",
"771 1291 LINE",
"371 1022 LINE"
);
},
{
closed = 1;
nodes = (
"771 172 LINE",
"771 640 LINE",
"371 448 LINE"
);
}
);
width = 1210;
}
);
unicode = 10C98;
},
{
glyphname = u10C99;
layers = (
{
layerId = "4958E06B-1FD7-4815-824D-973C628D14CF";
paths = (
{
closed = 1;
nodes = (
"236 0 OFFCURVE",
"236 0 OFFCURVE",
"134 116 CURVE",
"276.667 190 OFFCURVE",
"390.333 259 OFFCURVE",
"475 323 CURVE SMOOTH",
"559.667 387 OFFCURVE",
"620.667 450.833 OFFCURVE",
"658 514.5 CURVE SMOOTH",
"695.333 578.167 OFFCURVE",
"714 649.667 OFFCURVE",
"714 729 CURVE SMOOTH",
"714 787 OFFCURVE",
"704 841.333 OFFCURVE",
"684 892 CURVE SMOOTH",
"664 942.667 OFFCURVE",
"631.333 991.333 OFFCURVE",
"586 1038 CURVE SMOOTH",
"540.667 1084.67 OFFCURVE",
"480.167 1133.67 OFFCURVE",
"404.5 1185 CURVE SMOOTH",
"328.833 1236.33 OFFCURVE",
"235.333 1292 OFFCURVE",
"124 1352 CURVE",
"246 1461 LINE",
"408.667 1375.67 OFFCURVE",
"537.5 1295 OFFCURVE",
"632.5 1219 CURVE SMOOTH",
"727.5 1143 OFFCURVE",
"796 1065.67 OFFCURVE",
"838 987 CURVE SMOOTH",
"880 908.333 OFFCURVE",
"901 822.333 OFFCURVE",
"901 729 CURVE SMOOTH",
"901 635 OFFCURVE",
"879.667 549 OFFCURVE",
"837 471 CURVE SMOOTH",
"794.333 393 OFFCURVE",
"724.833 316.667 OFFCURVE",
"628.5 242 CURVE SMOOTH",
"532.167 167.333 OFFCURVE",
"401.333 86.6667 OFFCURVE",
"236 0 CURVE"
);
}
);
width = 1071;
}
);
unicode = 10C99;
},
{
glyphname = u10C9A;
layers = (
{
layerId = "4958E06B-1FD7-4815-824D-973C628D14CF";
paths = (
{
closed = 1;
nodes = (
"423 1 OFFCURVE",
"423 1 OFFCURVE",
"244 1 CURVE",
"244 1462 LINE",
"423 1462 LINE",
"590.333 1383.33 OFFCURVE",
"723 1307 OFFCURVE",
"821 1233 CURVE SMOOTH",
"921 1157 OFFCURVE",
"994.333 1078 OFFCURVE",
"1041 996 CURVE SMOOTH",
"1087.67 914 OFFCURVE",
"1111 825 OFFCURVE",
"1111 729 CURVE SMOOTH",
"1111 632.333 OFFCURVE",
"1088 542.833 OFFCURVE",
"1042 460.5 CURVE SMOOTH",
"996 378.167 OFFCURVE",
"922.667 300.333 OFFCURVE",
"822 227 CURVE SMOOTH",
"721.333 153.667 OFFCURVE",
"588.333 78.3333 OFFCURVE",
"423 1 CURVE"
);
},
{
closed = 1;
nodes = (
"423 175 LINE",
"543 233.667 OFFCURVE",
"639.333 290.167 OFFCURVE",
"712 344.5 CURVE SMOOTH",
"784.667 398.833 OFFCURVE",
"838 457.667 OFFCURVE",
"872 521 CURVE SMOOTH",
"906 585 OFFCURVE",
"923 654.333 OFFCURVE",
"923 729 CURVE SMOOTH",
"923 805 OFFCURVE",
"906.667 874.333 OFFCURVE",
"874 937 CURVE SMOOTH",
"841.333 999.667 OFFCURVE",
"788.667 1059.67 OFFCURVE",
"716 1117 CURVE SMOOTH",
"642.667 1174.33 OFFCURVE",
"545 1234.33 OFFCURVE",
"423 1297 CURVE"
);
}
);
width = 1261;
}
);
unicode = 10C9A;
},
{
glyphname = u10C9B;
layers = (
{
layerId = "4958E06B-1FD7-4815-824D-973C628D14CF";
paths = (
{
closed = 1;
nodes = (
"580 7 OFFCURVE",
"580 7 OFFCURVE",
"110 365 CURVE",
"234 465 LINE",
"596 188 LINE",
"676 244 OFFCURVE",
"740.167 298.833 OFFCURVE",
"788.5 352.5 CURVE SMOOTH",
"836.833 406.167 OFFCURVE",
"872 463.333 OFFCURVE",
"894 524 CURVE SMOOTH",
"916 584.667 OFFCURVE",
"927 652 OFFCURVE",
"927 726 CURVE SMOOTH",
"927 800 OFFCURVE",
"916 866.167 OFFCURVE",
"894 924.5 CURVE SMOOTH",
"872 982.833 OFFCURVE",
"835.5 1039.67 OFFCURVE",
"784.5 1095 CURVE SMOOTH",
"733.5 1150.33 OFFCURVE",
"664 1209 OFFCURVE",
"576 1271 CURVE",
"234 1010 LINE",
"110 1110 LINE",
"580 1468 LINE",
"710.667 1380 OFFCURVE",
"815.167 1297.5 OFFCURVE",
"893.5 1220.5 CURVE SMOOTH",
"971.833 1143.5 OFFCURVE",
"1028.33 1066 OFFCURVE",
"1063 988 CURVE SMOOTH",
"1097.67 910 OFFCURVE",
"1115 822.667 OFFCURVE",
"1115 726 CURVE SMOOTH",
"1115 623.333 OFFCURVE",
"1095.33 532.167 OFFCURVE",
"1056 452.5 CURVE SMOOTH",
"1016.67 372.833 OFFCURVE",
"957.5 297.5 OFFCURVE",
"878.5 226.5 CURVE SMOOTH",
"799.5 155.5 OFFCURVE",
"700 82.3333 OFFCURVE",
"580 7 CURVE"
);
}
);
width = 1263;
}
);
unicode = 10C9B;
},
{
glyphname = u10C9C;
layers = (
{
layerId = "4958E06B-1FD7-4815-824D-973C628D14CF";
paths = (
{
closed = 1;
nodes = (
"620 4 OFFCURVE",
"620 4 OFFCURVE",
"74 445 CURVE",
"481 815 LINE",
"600 712 LINE",
"317 457 LINE",
"636 194 LINE",
"753.333 282 OFFCURVE",
"836.833 366.833 OFFCURVE",
"886.5 448.5 CURVE SMOOTH",
"936.167 530.167 OFFCURVE",
"961 620.333 OFFCURVE",
"961 719 CURVE SMOOTH",
"961 795.667 OFFCURVE",
"946.667 865.833 OFFCURVE",
"918 929.5 CURVE SMOOTH",
"889.333 993.167 OFFCURVE",
"841.833 1057.67 OFFCURVE",
"775.5 1123 CURVE SMOOTH",
"709.167 1188.33 OFFCURVE",
"617.667 1261.33 OFFCURVE",
"501 1342 CURVE",
"620 1465 LINE",
"750.667 1373.67 OFFCURVE",
"855.333 1288.67 OFFCURVE",
"934 1210 CURVE SMOOTH",
"1012 1131.33 OFFCURVE",
"1068.33 1052.33 OFFCURVE",
"1103 973 CURVE SMOOTH",
"1137.67 893.667 OFFCURVE",
"1155 809 OFFCURVE",
"1155 719 CURVE SMOOTH",
"1155 626.333 OFFCURVE",
"1135.33 540.167 OFFCURVE",
"1096 460.5 CURVE SMOOTH",
"1056.67 380.833 OFFCURVE",
"997.667 304.333 OFFCURVE",
"919 231 CURVE SMOOTH",
"839.667 158.333 OFFCURVE",
"740 82.6667 OFFCURVE",
"620 4 CURVE"
);
}
);
width = 1311;
}
);
unicode = 10C9C;
},
{
glyphname = u10C9D;
layers = (
{
layerId = "4958E06B-1FD7-4815-824D-973C628D14CF";
paths = (
{
closed = 1;
nodes = (
"610 -2 LINE",
"152 572 LINE",
"564 918 LINE",
"172 1343 LINE",
"319 1461 LINE",
"809 918 LINE",
"399 570 LINE",
"775 116 LINE"
);
}
);
width = 961;
}
);
unicode = 10C9D;
},
{
glyphname = u10C9E;
layers = (
{
layerId = "4958E06B-1FD7-4815-824D-973C628D14CF";
paths = (
{
closed = 1;
nodes = (
"246 2 LINE",
"246 1463 LINE",
"425 1463 LINE",
"425 748 LINE",
"973 1464 LINE",
"1191 1464 LINE",
"632 754 LINE",
"1209 3 LINE",
"981 3 LINE",
"425 744 LINE",
"425 2 LINE"
);
}
);
width = 1243;
}
);
unicode = 10C9E;
},
{
glyphname = u10C9F;
layers = (
{
layerId = "4958E06B-1FD7-4815-824D-973C628D14CF";
paths = (
{
closed = 1;
nodes = (
"621 7 OFFCURVE",
"621 7 OFFCURVE",
"79 439 CURVE",
"85 441 LINE",
"75 445 LINE",
"482 810 LINE",
"609 706 LINE",
"326 452 LINE",
"639 195 LINE",
"681.667 227.667 OFFCURVE",
"719.5 258.833 OFFCURVE",
"752.5 288.5 CURVE SMOOTH",
"785.5 318.167 OFFCURVE",
"814.667 348 OFFCURVE",
"840 378 CURVE",
"727 463 LINE",
"822 554 LINE",
"914 487 LINE",
"950 559.667 OFFCURVE",
"968 637.667 OFFCURVE",
"968 721 CURVE SMOOTH",
"968 807.667 OFFCURVE",
"948.667 888 OFFCURVE",
"910 962 CURVE",
"822 898 LINE",
"727 990 LINE",
"834 1069 LINE",
"796.667 1109.67 OFFCURVE",
"751 1152.67 OFFCURVE",
"697 1198 CURVE SMOOTH",
"643 1243.33 OFFCURVE",
"578 1292.67 OFFCURVE",
"502 1346 CURVE",
"621 1467 LINE",
"698.333 1413 OFFCURVE",
"766.333 1362 OFFCURVE",
"825 1314 CURVE SMOOTH",
"883 1266 OFFCURVE",
"932.667 1218.67 OFFCURVE",
"974 1172 CURVE",
"1150 1302 LINE",
"1246 1207 LINE",
"1054 1067 LINE",
"1090 1013 OFFCURVE",
"1116 958 OFFCURVE",
"1132 902 CURVE SMOOTH",
"1148 845.333 OFFCURVE",
"1156 785 OFFCURVE",
"1156 721 CURVE SMOOTH",
"1156 596.333 OFFCURVE",
"1121.33 484 OFFCURVE",
"1052 384 CURVE",
"1252 239 LINE",
"1156 147 LINE",
"970 283 LINE",
"927.333 237 OFFCURVE",
"877.167 191.5 OFFCURVE",
"819.5 146.5 CURVE SMOOTH",
"761.833 101.5 OFFCURVE",
"695.667 55 OFFCURVE",
"621 7 CURVE"
);
}
);
width = 1443;
}
);
unicode = 10C9F;
},
{
glyphname = u10CA0;
layers = (
{
layerId = "4958E06B-1FD7-4815-824D-973C628D14CF";
paths = (
{
closed = 1;
nodes = (
"232 -36 LINE",
"122 68 LINE",
"660 472 LINE",
"660 760 LINE",
"232 449 LINE",
"122 552 LINE",
"660 960 LINE",
"660 1251 LINE",
"232 937 LINE",
"122 1041 LINE",
"678 1465 LINE",
"839 1465 LINE",
"839 4 LINE",
"660 4 LINE",
"660 274 LINE"
);
}
);
width = 1092;
}
);
unicode = 10CA0;
},
{
glyphname = u10CA1;
layers = (
{
layerId = "4958E06B-1FD7-4815-824D-973C628D14CF";
paths = (
{
closed = 1;
nodes = (
"706 181 OFFCURVE",
"706 181 OFFCURVE",
"469 -48 CURVE",
"339 56 LINE",
"598 288 LINE",
"556.667 336.667 OFFCURVE",
"521.833 386.5 OFFCURVE",
"493.5 437.5 CURVE SMOOTH",
"465.167 488.5 OFFCURVE",
"443.667 542.667 OFFCURVE",
"429 600 CURVE",
"160 459 LINE",
"78 593 LINE",
"415 750 LINE",
"416.333 820.667 OFFCURVE",
"429.667 891.333 OFFCURVE",
"455 962 CURVE SMOOTH",
"480.333 1033.33 OFFCURVE",
"523.333 1102.67 OFFCURVE",
"584 1170 CURVE",
"580 1176 LINE",
"319 1059 LINE",
"242 1195 LINE",
"925 1471 LINE",
"1123 1471 LINE",
"1806 1195 LINE",
"1729 1059 LINE",
"1466 1176 LINE",
"1460 1170 LINE",
"1522.67 1103.33 OFFCURVE",
"1564.5 1034.33 OFFCURVE",
"1585.5 963 CURVE SMOOTH",
"1606.5 891.667 OFFCURVE",
"1617.67 820.667 OFFCURVE",
"1619 750 CURVE",
"1956 593 LINE",
"1872 459 LINE",
"1603 600 LINE",
"1577.67 490.667 OFFCURVE",
"1522 386.667 OFFCURVE",
"1436 288 CURVE",
"1707 56 LINE",
"1579 -48 LINE",
"1330 181 LINE",
"1297.33 152.333 OFFCURVE",
"1264.33 123.667 OFFCURVE",
"1231 95 CURVE SMOOTH",
"1197 65.6667 OFFCURVE",
"1161 37.3333 OFFCURVE",
"1123 10 CURVE",
"927 10 LINE",
"905 24 OFFCURVE",
"866.333 52.3333 OFFCURVE",
"811 95 CURVE SMOOTH",
"785.667 113.667 OFFCURVE",
"750.667 142.333 OFFCURVE",
"706 181 CURVE"
);
},
{
closed = 1;
nodes = (
"1031 137 LINE",
"1163 225.667 OFFCURVE",
"1265.17 318.167 OFFCURVE",
"1337.5 414.5 CURVE SMOOTH",
"1409.83 510.833 OFFCURVE",
"1446 623 OFFCURVE",
"1446 751 CURVE SMOOTH",
"1446 874.333 OFFCURVE",
"1412.5 985 OFFCURVE",
"1345.5 1083 CURVE SMOOTH",
"1278.5 1181 OFFCURVE",
"1173.67 1266.33 OFFCURVE",
"1031 1339 CURVE",
"1023 1339 LINE",
"881.667 1266.33 OFFCURVE",
"777.167 1181.17 OFFCURVE",
"709.5 1083.5 CURVE SMOOTH",
"641.833 985.833 OFFCURVE",
"608 875 OFFCURVE",
"608 751 CURVE SMOOTH",
"608 622.333 OFFCURVE",
"644.5 510 OFFCURVE",
"717.5 414 CURVE SMOOTH",
"790.5 318 OFFCURVE",
"892.333 225.667 OFFCURVE",
"1023 137 CURVE"
);
}
);
width = 2048;
}
);
unicode = 10CA1;
},
{
glyphname = u10CA2;
layers = (
{
layerId = "4958E06B-1FD7-4815-824D-973C628D14CF";
paths = (
{
closed = 1;
nodes = (
"259 5 LINE",
"259 1466 LINE",
"439 1466 LINE",
"439 629 LINE",
"1223 1124 LINE",
"1223 1466 LINE",
"1402 1466 LINE",
"1402 5 LINE",
"1223 5 LINE",
"1223 938 LINE",
"439 454 LINE",
"439 5 LINE"
);
}
);
width = 1658;
}
);
unicode = 10CA2;
},
{
glyphname = u10CA3;
layers = (
{
layerId = "4958E06B-1FD7-4815-824D-973C628D14CF";
paths = (
{
closed = 1;
nodes = (
"186 373 LINE",
"104 520 LINE",
"1025 1065 LINE",
"1109 917 LINE"
);
}
);
width = 1221;
}
);
unicode = 10CA3;
},
{
glyphname = u10CA4;
layers = (
{
layerId = "4958E06B-1FD7-4815-824D-973C628D14CF";
paths = (
{
closed = 1;
nodes = (
"26 1 LINE",
"638 1461 LINE",
"819 1461 LINE",
"1420 1 LINE",
"1231 1 LINE",
"845 943 LINE SMOOTH",
"817.667 1009.67 OFFCURVE",
"795.333 1066 OFFCURVE",
"778 1112 CURVE SMOOTH",
"757.333 1166.67 OFFCURVE",
"740 1217.33 OFFCURVE",
"726 1264 CURVE",
"718 1264 LINE",
"699.333 1200.67 OFFCURVE",
"682 1150 OFFCURVE",
"666 1112 CURVE SMOOTH",
"663.333 1106 OFFCURVE",
"640 1048.33 OFFCURVE",
"596 939 CURVE SMOOTH",
"216 1 LINE"
);
}
);
width = 1443;
}
);
unicode = 10CA4;
},
{
glyphname = u10CA5;
layers = (
{
layerId = "4958E06B-1FD7-4815-824D-973C628D14CF";
paths = (
{
closed = 1;
nodes = (
"248 4 LINE",
"248 1465 LINE",
"427 1465 LINE",
"427 4 LINE"
);
}
);
width = 679;
}
);
unicode = 10CA5;
},
{
glyphname = u10CA6;
layers = (
{
layerId = "4958E06B-1FD7-4815-824D-973C628D14CF";
paths = (
{
closed = 1;
nodes = (
"710 3 LINE",
"710 546 LINE",
"70 1371 LINE",
"214 1461 LINE",
"710 803 LINE",
"710 1464 LINE",
"889 1464 LINE",
"889 3 LINE"
);
}
);
width = 1129;
}
);
unicode = 10CA6;
},
{
glyphname = u10CA7;
layers = (
{
layerId = "4958E06B-1FD7-4815-824D-973C628D14CF";
paths = (
{
closed = 1;
nodes = (
"773 2 LINE",
"773 842 LINE",
"369 1243 LINE",
"152 1032 LINE",
"40 1141 LINE",
"375 1461 LINE",
"773 1060 LINE",
"773 1463 LINE",
"953 1463 LINE",
"953 1058 LINE",
"1354 1461 LINE",
"1689 1141 LINE",
"1575 1032 LINE",
"1358 1243 LINE",
"953 840 LINE",
"953 2 LINE"
);
}
);
width = 1726;
}
);
unicode = 10CA7;
},
{
glyphname = u10CA8;
layers = (
{
layerId = "4958E06B-1FD7-4815-824D-973C628D14CF";
paths = (
{
closed = 1;
nodes = (
"534 0 LINE",
"830 428 LINE",
"674 643 LINE",
"216 2 LINE",
"8 2 LINE",
"581 755 LINE",
"44 1461 LINE",
"263 1461 LINE",
"453 1204 LINE",
"632 1461 LINE",
"823 1461 LINE",
"558 1074 LINE",
"690 891 LINE",
"1123 1461 LINE",
"1330 1461 LINE",
"796 766 LINE",
"1370 2 LINE",
"1147 2 LINE",
"933 297 LINE",
"726 0 LINE"
);
}
);
width = 1377;
}
);
unicode = 10CA8;
},
{
glyphname = u10CA9;
layers = (
{
layerId = "4958E06B-1FD7-4815-824D-973C628D14CF";
paths = (
{
closed = 1;
nodes = (
"1213 2 LINE",
"640 135 LINE",
"690 261 LINE",
"1091 160 LINE",
"704 641 LINE",
"210 3 LINE",
"10 3 LINE",
"605 751 LINE",
"40 1461 LINE",
"253 1461 LINE",
"712 881 LINE",
"1053 1300 LINE",
"648 1198 LINE",
"606 1322 LINE",
"1177 1460 LINE",
"1288 1377 LINE",
"808 767 LINE",
"1330 124 LINE"
);
}
);
width = 1433;
}
);
unicode = 10CA9;
},
{
glyphname = u10CAA;
layers = (
{
layerId = "4958E06B-1FD7-4815-824D-973C628D14CF";
paths = (
{
closed = 1;
nodes = (
"248 1 LINE",
"248 1462 LINE",
"423 1462 LINE",
"871 1135 LINE",
"1320 1462 LINE",
"1496 1462 LINE",
"1496 1 LINE",
"1320 1 LINE",
"871 330 LINE",
"423 1 LINE"
);
},
{
closed = 1;
nodes = (
"427 203 LINE",
"871 517 LINE",
"1316 203 LINE",
"1316 1260 LINE",
"871 945 LINE",
"427 1260 LINE"
);
}
);
width = 1764;
}
);
unicode = 10CAA;
},
{
glyphname = u10CAB;
layers = (
{
layerId = "4958E06B-1FD7-4815-824D-973C628D14CF";
paths = (
{
closed = 1;
nodes = (
"244 0 LINE",
"244 1461 LINE",
"407 1461 LINE",
"953 840 LINE",
"1506 1461 LINE",
"1669 1461 LINE",
"1669 0 LINE",
"1506 0 LINE",
"953 634 LINE",
"407 0 LINE"
);
},
{
closed = 1;
nodes = (
"1051 736 LINE",
"1495 235 LINE",
"1498 1246 LINE"
);
},
{
closed = 1;
nodes = (
"407 1221 LINE",
"399 230 LINE",
"857 739 LINE"
);
}
);
width = 1900;
}
);
unicode = 10CAB;
},
{
glyphname = u10CAC;
layers = (
{
layerId = "4958E06B-1FD7-4815-824D-973C628D14CF";
paths = (
{
closed = 1;
nodes = (
"435 188 OFFCURVE",
"435 188 OFFCURVE",
"212 -28 CURVE",
"82 76 LINE",
"329 299 LINE",
"278.333 361.667 OFFCURVE",
"239 428.333 OFFCURVE",
"211 499 CURVE SMOOTH",
"183.667 569.667 OFFCURVE",
"170 646.667 OFFCURVE",
"170 730 CURVE SMOOTH",
"170 814 OFFCURVE",
"184 891.333 OFFCURVE",
"212 962 CURVE SMOOTH",
"240 1033.33 OFFCURVE",
"279 1101 OFFCURVE",
"329 1165 CURVE",
"82 1384 LINE",
"212 1489 LINE",
"435 1273 LINE",
"469.667 1307 OFFCURVE",
"506.333 1339.33 OFFCURVE",
"545 1370 CURVE SMOOTH",
"584.333 1400.67 OFFCURVE",
"626.667 1431 OFFCURVE",
"672 1461 CURVE",
"859 1461 LINE",
"904.333 1429 OFFCURVE",
"947.333 1398 OFFCURVE",
"988 1368 CURVE SMOOTH",
"1028.67 1337.33 OFFCURVE",
"1065.67 1305.67 OFFCURVE",
"1099 1273 CURVE",
"1322 1489 LINE",
"1450 1384 LINE",
"1203 1163 LINE",
"1253.67 1100.33 OFFCURVE",
"1292.67 1033 OFFCURVE",
"1320 961 CURVE SMOOTH",
"1347.33 889.667 OFFCURVE",
"1361.33 812.667 OFFCURVE",
"1362 730 CURVE SMOOTH",
"1362 646 OFFCURVE",
"1348 569.333 OFFCURVE",
"1320 500 CURVE SMOOTH",
"1292.67 430 OFFCURVE",
"1253.67 363 OFFCURVE",
"1203 299 CURVE",
"1452 76 LINE",
"1322 -28 LINE",
"1099 188 LINE",
"1064.33 155.333 OFFCURVE",
"1027 123.667 OFFCURVE",
"987 93 CURVE SMOOTH",
"956.333 69.6667 OFFCURVE",
"913.667 38.6667 OFFCURVE",
"859 0 CURVE",
"674 0 LINE",
"619.333 38.6667 OFFCURVE",
"576.667 69.6667 OFFCURVE",
"546 93 CURVE SMOOTH",
"506.667 123.667 OFFCURVE",
"469.667 155.333 OFFCURVE",
"435 188 CURVE"
);
},
{
closed = 1;
nodes = (
"769 125 LINE",
"861 193 OFFCURVE",
"937 257.667 OFFCURVE",
"997 319 CURVE SMOOTH",
"1057 380.333 OFFCURVE",
"1102 444 OFFCURVE",
"1132 510 CURVE SMOOTH",
"1162 576 OFFCURVE",
"1177 649.333 OFFCURVE",
"1177 730 CURVE SMOOTH",
"1177 811.333 OFFCURVE",
"1162 885 OFFCURVE",
"1132 951 CURVE SMOOTH",
"1102 1017 OFFCURVE",
"1057 1081.17 OFFCURVE",
"997 1143.5 CURVE SMOOTH",
"937 1205.83 OFFCURVE",
"861 1271 OFFCURVE",
"769 1339 CURVE",
"762 1339 LINE",
"671.333 1271 OFFCURVE",
"595.833 1205.83 OFFCURVE",
"535.5 1143.5 CURVE SMOOTH",
"475.167 1081.17 OFFCURVE",
"430 1017 OFFCURVE",
"400 951 CURVE SMOOTH",
"370 885 OFFCURVE",
"355 811.333 OFFCURVE",
"355 730 CURVE SMOOTH",
"355 648.667 OFFCURVE",
"370 575.167 OFFCURVE",
"400 509.5 CURVE SMOOTH",
"430 443.833 OFFCURVE",
"475.167 380.333 OFFCURVE",
"535.5 319 CURVE SMOOTH",
"595.833 257.667 OFFCURVE",
"671.333 193 OFFCURVE",
"762 125 CURVE"
);
}
);
width = 1533;
}
);
unicode = 10CAC;
},
{
glyphname = u10CAD;
layers = (
{
layerId = "4958E06B-1FD7-4815-824D-973C628D14CF";
paths = (
{
closed = 1;
nodes = (
"1131 2 LINE",
"1131 873 LINE",
"439 363 LINE",
"259 363 LINE",
"259 1461 LINE",
"439 1461 LINE",
"439 558 LINE",
"1131 1077 LINE",
"1310 1077 LINE",
"1310 2 LINE"
);
}
);
width = 1570;
}
);
unicode = 10CAD;
},
{
glyphname = u10CAE;
layers = (
{
layerId = "4958E06B-1FD7-4815-824D-973C628D14CF";
paths = (
{
closed = 1;
nodes = (
"248 4 LINE",
"248 1465 LINE",
"423 1465 LINE",
"871 1138 LINE",
"1320 1465 LINE",
"1496 1465 LINE",
"1496 4 LINE",
"1316 4 LINE",
"1316 1263 LINE",
"871 946 LINE",
"427 1263 LINE",
"427 4 LINE"
);
}
);
width = 1770;
}
);
unicode = 10CAE;
},
{
glyphname = u10CAF;
layers = (
{
layerId = "4958E06B-1FD7-4815-824D-973C628D14CF";
paths = (
{
closed = 1;
nodes = (
"242 4 LINE",
"242 1465 LINE",
"421 1465 LINE",
"421 982 LINE",
"1233 1465 LINE",
"1406 1465 LINE",
"1406 4 LINE",
"1227 4 LINE",
"1227 491 LINE",
"415 4 LINE"
);
},
{
closed = 1;
nodes = (
"421 582 LINE",
"1227 1061 LINE",
"1227 1293 LINE",
"421 814 LINE"
);
},
{
closed = 1;
nodes = (
"421 183 LINE",
"1227 661 LINE",
"1227 893 LINE",
"421 415 LINE"
);
}
);
width = 1634;
}
);
unicode = 10CAF;
},
{
glyphname = u10CB0;
layers = (
{
layerId = "4958E06B-1FD7-4815-824D-973C628D14CF";
paths = (
{
closed = 1;
nodes = (
"698 1 LINE",
"698 546 LINE",
"20 1365 LINE",
"168 1461 LINE",
"698 813 LINE",
"698 1462 LINE",
"877 1462 LINE",
"877 822 LINE",
"1408 1461 LINE",
"1555 1365 LINE",
"877 546 LINE",
"877 1 LINE"
);
}
);
width = 1586;
}
);
unicode = 10CB0;
},
{
glyphname = u10CB1;
layers = (
{
layerId = "4958E06B-1FD7-4815-824D-973C628D14CF";
paths = (
{
closed = 1;
nodes = (
"771 3 LINE",
"389 264 LINE",
"172 49 LINE",
"60 162 LINE",
"395 480 LINE",
"771 195 LINE",
"771 447 LINE",
"389 767 LINE",
"172 552 LINE",
"60 663 LINE",
"395 983 LINE",
"771 660 LINE",
"771 913 LINE",
"389 1269 LINE",
"172 1051 LINE",
"60 1162 LINE",
"395 1482 LINE",
"771 1127 LINE",
"771 1464 LINE",
"951 1464 LINE",
"951 1127 LINE",
"1330 1482 LINE",
"1665 1162 LINE",
"1551 1051 LINE",
"1334 1264 LINE",
"951 913 LINE",
"951 653 LINE",
"1330 986 LINE",
"1665 666 LINE",
"1551 555 LINE",
"1334 770 LINE",
"951 440 LINE",
"951 195 LINE",
"1330 480 LINE",
"1665 162 LINE",
"1549 49 LINE",
"1334 264 LINE",
"951 3 LINE"
);
}
);
width = 1726;
}
);
unicode = 10CB1;
},
{
glyphname = u10CB2;
layers = (
{
layerId = "4958E06B-1FD7-4815-824D-973C628D14CF";
paths = (
{
closed = 1;
nodes = (
"865 4 OFFCURVE",
"865 4 OFFCURVE",
"668 4 CURVE",
"565.333 76 OFFCURVE",
"475.667 148.333 OFFCURVE",
"399 221 CURVE SMOOTH",
"321.667 294.333 OFFCURVE",
"261.833 372.667 OFFCURVE",
"219.5 456 CURVE SMOOTH",
"177.167 539.333 OFFCURVE",
"156 632 OFFCURVE",
"156 734 CURVE SMOOTH",
"156 836.667 OFFCURVE",
"177.167 929.833 OFFCURVE",
"219.5 1013.5 CURVE SMOOTH",
"261.833 1097.17 OFFCURVE",
"321.667 1175.67 OFFCURVE",
"399 1249 CURVE SMOOTH",
"476.333 1322.33 OFFCURVE",
"566 1394.33 OFFCURVE",
"668 1465 CURVE",
"865 1465 LINE",
"969 1394.33 OFFCURVE",
"1059.33 1322.33 OFFCURVE",
"1136 1249 CURVE SMOOTH",
"1212.67 1175 OFFCURVE",
"1272.17 1096.33 OFFCURVE",
"1314.5 1013 CURVE SMOOTH",
"1356.83 929.667 OFFCURVE",
"1378 836.667 OFFCURVE",
"1378 734 CURVE SMOOTH",
"1378 631.333 OFFCURVE",
"1356.83 538.5 OFFCURVE",
"1314.5 455.5 CURVE SMOOTH",
"1272.17 372.5 OFFCURVE",
"1212.67 294.333 OFFCURVE",
"1136 221 CURVE SMOOTH",
"1059.33 148.333 OFFCURVE",
"969 76 OFFCURVE",
"865 4 CURVE"
);
},
{
closed = 1;
nodes = (
"682 1293 LINE",
"606 1232.33 OFFCURVE",
"543.333 1173.33 OFFCURVE",
"494 1116 CURVE SMOOTH",
"444 1058.67 OFFCURVE",
"406.667 999.333 OFFCURVE",
"382 938 CURVE SMOOTH",
"357.333 876.667 OFFCURVE",
"345 808.667 OFFCURVE",
"345 734 CURVE SMOOTH",
"345 659.333 OFFCURVE",
"357.333 591.667 OFFCURVE",
"382 531 CURVE SMOOTH",
"406.667 470.333 OFFCURVE",
"443.833 411.667 OFFCURVE",
"493.5 355 CURVE SMOOTH",
"543.167 298.333 OFFCURVE",
"606 239 OFFCURVE",
"682 177 CURVE"
);
},
{
closed = 1;
nodes = (
"851 178 LINE",
"929 242 OFFCURVE",
"992 301 OFFCURVE",
"1040 355 CURVE SMOOTH",
"1090 411.667 OFFCURVE",
"1127 470.5 OFFCURVE",
"1151 531.5 CURVE SMOOTH",
"1175 592.5 OFFCURVE",
"1187 660 OFFCURVE",
"1187 734 CURVE SMOOTH",
"1187 808.667 OFFCURVE",
"1175 876.667 OFFCURVE",
"1151 938 CURVE SMOOTH",
"1127 999.333 OFFCURVE",
"1090 1058.67 OFFCURVE",
"1040 1116 CURVE SMOOTH",
"990 1173.33 OFFCURVE",
"927 1232.33 OFFCURVE",
"851 1293 CURVE"
);
}
);
width = 1533;
}
);
unicode = 10CB2;
},
{
glyphname = u10CC0;
layers = (
{
layerId = "4958E06B-1FD7-4815-824D-973C628D14CF";
paths = (
{
closed = 1;
nodes = (
"522 2 LINE",
"522 558 LINE",
"64 558 LINE",
"64 749 LINE",
"459 1100 LINE",
"696 1100 LINE",
"696 2 LINE"
);
},
{
closed = 1;
nodes = (
"522 696 LINE",
"522 964 LINE",
"216 699 LINE"
);
}
);
width = 885;
}
);
unicode = 10CC0;
},
{
glyphname = u10CC1;
layers = (
{
layerId = "4958E06B-1FD7-4815-824D-973C628D14CF";
paths = (
{
closed = 1;
nodes = (
"501 2 LINE",
"501 300 LINE",
"84 612 LINE",
"84 758 LINE",
"505 1100 LINE",
"674 1100 LINE",
"674 2 LINE"
);
},
{
closed = 1;
nodes = (
"501 490 LINE",
"501 907 LINE",
"236 687 LINE"
);
}
);
width = 863;
}
);
unicode = 10CC1;
},
{
glyphname = u10CC2;
layers = (
{
layerId = "4958E06B-1FD7-4815-824D-973C628D14CF";
paths = (
{
closed = 1;
nodes = (
"20 2 LINE",
"433 572 LINE",
"44 1100 LINE",
"242 1100 LINE",
"538 683 LINE",
"835 1100 LINE",
"1023 1100 LINE",
"640 576 LINE",
"1053 2 LINE",
"851 2 LINE",
"532 466 LINE",
"208 2 LINE"
);
}
);
width = 1071;
}
);
unicode = 10CC2;
},
{
glyphname = u10CC3;
layers = (
{
layerId = "4958E06B-1FD7-4815-824D-973C628D14CF";
paths = (
{
closed = 1;
nodes = (
"512 141 OFFCURVE",
"512 141 OFFCURVE",
"385 3 CURVE",
"80 124 LINE",
"140 245 LINE",
"339 158 LINE",
"415 247 LINE",
"381.667 292.333 OFFCURVE",
"355.667 340.5 OFFCURVE",
"337 391.5 CURVE SMOOTH",
"318.333 442.5 OFFCURVE",
"309 497 OFFCURVE",
"309 555 CURVE SMOOTH",
"309 612.333 OFFCURVE",
"318.333 666.333 OFFCURVE",
"337 717 CURVE SMOOTH",
"355.667 767.667 OFFCURVE",
"381.667 815.667 OFFCURVE",
"415 861 CURVE",
"339 950 LINE",
"140 861 LINE",
"80 986 LINE",
"385 1106 LINE",
"511 968 LINE",
"537.667 992.667 OFFCURVE",
"565.167 1015.33 OFFCURVE",
"593.5 1036 CURVE SMOOTH",
"621.833 1056.67 OFFCURVE",
"652 1078.67 OFFCURVE",
"684 1102 CURVE",
"821 1102 LINE",
"851.667 1080 OFFCURVE",
"881.333 1058.67 OFFCURVE",
"910 1038 CURVE SMOOTH",
"938.667 1017.33 OFFCURVE",
"965.667 995.333 OFFCURVE",
"991 972 CURVE",
"1115 1106 LINE",
"1418 986 LINE",
"1362 861 LINE",
"1159 950 LINE",
"1087 867 LINE",
"1123 821.667 OFFCURVE",
"1150.67 773.333 OFFCURVE",
"1170 722 CURVE SMOOTH",
"1189.33 670.667 OFFCURVE",
"1199 615 OFFCURVE",
"1199 555 CURVE SMOOTH",
"1199 495 OFFCURVE",
"1189.33 439.667 OFFCURVE",
"1170 389 CURVE SMOOTH",
"1150.67 338.333 OFFCURVE",
"1123 289.667 OFFCURVE",
"1087 243 CURVE",
"1159 158 LINE",
"1362 245 LINE",
"1418 124 LINE",
"1115 3 LINE",
"991 139 LINE",
"965.667 115.667 OFFCURVE",
"938.667 93 OFFCURVE",
"910 71 CURVE SMOOTH",
"881.333 49 OFFCURVE",
"851.667 27 OFFCURVE",
"821 5 CURVE",
"684 5 LINE",
"620 49 OFFCURVE",
"562.667 94.3333 OFFCURVE",
"512 141 CURVE"
);
},
{
closed = 1;
nodes = (
"756 123 LINE",
"852 197.667 OFFCURVE",
"922.167 267 OFFCURVE",
"966.5 331 CURVE SMOOTH",
"1010.83 395 OFFCURVE",
"1033 469.667 OFFCURVE",
"1033 555 CURVE SMOOTH",
"1033 641 OFFCURVE",
"1010.33 716 OFFCURVE",
"965 780 CURVE SMOOTH",
"919.667 844 OFFCURVE",
"850 913.333 OFFCURVE",
"756 988 CURVE",
"752 988 LINE",
"688 938 OFFCURVE",
"635.333 890.833 OFFCURVE",
"594 846.5 CURVE SMOOTH",
"552.667 802.167 OFFCURVE",
"522.5 756.833 OFFCURVE",
"503.5 710.5 CURVE SMOOTH",
"484.5 664.167 OFFCURVE",
"475 612.333 OFFCURVE",
"475 555 CURVE SMOOTH",
"475 496.333 OFFCURVE",
"484.833 443.833 OFFCURVE",
"504.5 397.5 CURVE SMOOTH",
"524.167 351.167 OFFCURVE",
"554.333 306.333 OFFCURVE",
"595 263 CURVE SMOOTH",
"635.667 219.667 OFFCURVE",
"688 173 OFFCURVE",
"752 123 CURVE"
);
}
);
width = 1497;
}
);
unicode = 10CC3;
},
{
glyphname = u10CC4;
layers = (
{
layerId = "4958E06B-1FD7-4815-824D-973C628D14CF";
paths = (
{
closed = 1;
nodes = (
"359 1 LINE",
"359 896 LINE",
"106 691 LINE",
"8 793 LINE",
"389 1098 LINE",
"503 1098 LINE",
"883 793 LINE",
"785 691 LINE",
"532 896 LINE",
"532 1 LINE"
);
}
);
width = 891;
}
);
unicode = 10CC4;
},
{
glyphname = u10CC5;
layers = (
{
layerId = "4958E06B-1FD7-4815-824D-973C628D14CF";
paths = (
{
closed = 1;
nodes = (
"389 2 LINE",
"8 306 LINE",
"106 413 LINE",
"359 208 LINE",
"359 897 LINE",
"106 692 LINE",
"8 795 LINE",
"389 1100 LINE",
"503 1100 LINE",
"883 795 LINE",
"785 692 LINE",
"532 897 LINE",
"532 208 LINE",
"785 413 LINE",
"883 306 LINE",
"503 2 LINE"
);
}
);
width = 891;
}
);
unicode = 10CC5;
},
{
glyphname = u10CC6;
layers = (
{
layerId = "4958E06B-1FD7-4815-824D-973C628D14CF";
paths = (
{
closed = 1;
nodes = (
"190 0 LINE",
"190 1098 LINE",
"359 1098 LINE",
"359 782 LINE",
"885 1098 LINE",
"1037 1098 LINE",
"1037 0 LINE",
"867 0 LINE",
"867 312 LINE",
"341 0 LINE"
);
},
{
closed = 1;
nodes = (
"359 167 LINE",
"867 468 LINE",
"867 933 LINE",
"359 626 LINE"
);
}
);
width = 1225;
}
);
unicode = 10CC6;
},
{
glyphname = u10CC7;
layers = (
{
layerId = "4958E06B-1FD7-4815-824D-973C628D14CF";
paths = (
{
closed = 1;
nodes = (
"349 2 LINE",
"349 452 LINE",
"120 343 LINE",
"52 463 LINE",
"349 604 LINE",
"349 1100 LINE",
"522 1100 LINE",
"522 688 LINE",
"754 798 LINE",
"819 673 LINE",
"522 534 LINE",
"522 2 LINE"
);
}
);
width = 871;
}
);
unicode = 10CC7;
},
{
glyphname = u10CC8;
layers = (
{
layerId = "4958E06B-1FD7-4815-824D-973C628D14CF";
paths = (
{
closed = 1;
nodes = (
"20 2 LINE",
"355 465 LINE",
"112 400 LINE",
"66 512 LINE",
"411 604 LINE",
"44 1099 LINE",
"242 1099 LINE",
"538 683 LINE",
"835 1099 LINE",
"1023 1099 LINE",
"720 684 LINE",
"959 748 LINE",
"989 631 LINE",
"662 545 LINE",
"1053 2 LINE",
"851 2 LINE",
"532 466 LINE",
"208 2 LINE"
);
}
);
width = 1071;
}
);
unicode = 10CC8;
},
{
glyphname = u10CC9;
layers = (
{
layerId = "4958E06B-1FD7-4815-824D-973C628D14CF";
paths = (
{
closed = 1;
nodes = (
"610 -2 LINE",
"451 122 LINE",
"377.667 81.3333 OFFCURVE",
"288 40.6667 OFFCURVE",
"182 0 CURVE",
"108 115 LINE",
"196 148.333 OFFCURVE",
"270.333 181.333 OFFCURVE",
"331 214 CURVE",
"180 334 LINE",
"275 429 LINE",
"453 289 LINE",
"503.667 327 OFFCURVE",
"538.5 367 OFFCURVE",
"557.5 409 CURVE SMOOTH",
"576.5 451 OFFCURVE",
"586 498.667 OFFCURVE",
"586 552 CURVE SMOOTH",
"586 601.333 OFFCURVE",
"576.333 646 OFFCURVE",
"557 686 CURVE SMOOTH",
"537.667 726 OFFCURVE",
"503 764.333 OFFCURVE",
"453 801 CURVE",
"275 662 LINE",
"180 756 LINE",
"333 877 LINE",
"301 893 OFFCURVE",
"265.833 909.833 OFFCURVE",
"227.5 927.5 CURVE SMOOTH",
"189.167 945.167 OFFCURVE",
"146.667 963.667 OFFCURVE",
"100 983 CURVE",
"190 1098 LINE",
"296.667 1056 OFFCURVE",
"385.667 1014.67 OFFCURVE",
"457 974 CURVE",
"620 1103 LINE",
"706 999 LINE",
"576 898 LINE",
"642.667 848 OFFCURVE",
"690.667 795.167 OFFCURVE",
"720 739.5 CURVE SMOOTH",
"749.333 683.833 OFFCURVE",
"764 621.333 OFFCURVE",
"764 552 CURVE SMOOTH",
"764 479.333 OFFCURVE",
"748.667 414.833 OFFCURVE",
"718 358.5 CURVE SMOOTH",
"687.333 302.167 OFFCURVE",
"638 248.667 OFFCURVE",
"570 198 CURVE",
"696 102 LINE"
);
}
);
width = 819;
}
);
unicode = 10CC9;
},
{
glyphname = u10CCA;
layers = (
{
layerId = "4958E06B-1FD7-4815-824D-973C628D14CF";
paths = (
{
closed = 1;
nodes = (
"182 4 OFFCURVE",
"182 4 OFFCURVE",
"108 120 CURVE",
"148 136 OFFCURVE",
"184.833 151.167 OFFCURVE",
"218.5 165.5 CURVE SMOOTH",
"252.167 179.833 OFFCURVE",
"283.667 194.667 OFFCURVE",
"313 210 CURVE",
"247.667 260 OFFCURVE",
"200.833 312.667 OFFCURVE",
"172.5 368 CURVE SMOOTH",
"144.167 423.333 OFFCURVE",
"130 486 OFFCURVE",
"130 556 CURVE SMOOTH",
"130 624 OFFCURVE",
"144.333 685.5 OFFCURVE",
"173 740.5 CURVE SMOOTH",
"201.667 795.5 OFFCURVE",
"246.333 847 OFFCURVE",
"307 895 CURVE",
"277.667 909.667 OFFCURVE",
"246.167 924.833 OFFCURVE",
"212.5 940.5 CURVE SMOOTH",
"178.833 956.167 OFFCURVE",
"141.333 972.333 OFFCURVE",
"100 989 CURVE",
"190 1102 LINE",
"290 1062.67 OFFCURVE",
"375.667 1023 OFFCURVE",
"447 983 CURVE",
"519 1023.67 OFFCURVE",
"604.667 1063.33 OFFCURVE",
"704 1102 CURVE",
"793 989 LINE",
"751.667 973 OFFCURVE",
"714.167 957.167 OFFCURVE",
"680.5 941.5 CURVE SMOOTH",
"646.833 925.833 OFFCURVE",
"615.333 910.333 OFFCURVE",
"586 895 CURVE",
"648.667 846.333 OFFCURVE",
"694 794.667 OFFCURVE",
"722 740 CURVE SMOOTH",
"750 685.333 OFFCURVE",
"764 624 OFFCURVE",
"764 556 CURVE SMOOTH",
"764 485.333 OFFCURVE",
"749.667 422.333 OFFCURVE",
"721 367 CURVE SMOOTH",
"692.333 311.667 OFFCURVE",
"645.333 259.333 OFFCURVE",
"580 210 CURVE",
"609.333 195.333 OFFCURVE",
"641 180.667 OFFCURVE",
"675 166 CURVE SMOOTH",
"709 151.333 OFFCURVE",
"745.667 136 OFFCURVE",
"785 120 CURVE",
"712 4 LINE",
"606.667 46 OFFCURVE",
"518.333 86.3333 OFFCURVE",
"447 125 CURVE",
"375.667 86.3333 OFFCURVE",
"287.333 46 OFFCURVE",
"182 4 CURVE"
);
},
{
closed = 1;
nodes = (
"499 358.333 OFFCURVE",
"535.167 399.167 OFFCURVE",
"555.5 441.5 CURVE SMOOTH",
"575.833 483.833 OFFCURVE",
"586 531.333 OFFCURVE",
"586 584 CURVE SMOOTH",
"586 636 OFFCURVE",
"575.667 682.333 OFFCURVE",
"555 723 CURVE SMOOTH",
"534.333 763.667 OFFCURVE",
"498.333 803 OFFCURVE",
"447 841 CURVE",
"395 803 OFFCURVE",
"358.667 763.833 OFFCURVE",
"338 723.5 CURVE SMOOTH",
"317.333 683.167 OFFCURVE",
"307 636.667 OFFCURVE",
"307 584 CURVE SMOOTH",
"307 531.333 OFFCURVE",
"317.333 483.833 OFFCURVE",
"338 441.5 CURVE SMOOTH",
"358.667 399.167 OFFCURVE",
"395 358.333 OFFCURVE",
"447 319 CURVE"
);
}
);
width = 853;
}
);
unicode = 10CCA;
},
{
glyphname = u10CCB;
layers = (
{
layerId = "4958E06B-1FD7-4815-824D-973C628D14CF";
paths = (
{
closed = 1;
nodes = (
"391 1 LINE",
"68 225 LINE",
"208 290 LINE SMOOTH",
"287.333 326.667 OFFCURVE",
"348 369.667 OFFCURVE",
"390 419 CURVE SMOOTH",
"426 461 OFFCURVE",
"444.333 505.667 OFFCURVE",
"445 553 CURVE SMOOTH",
"445 603 OFFCURVE",
"424.333 650 OFFCURVE",
"383 694 CURVE SMOOTH",
"335.667 744.667 OFFCURVE",
"268 789.667 OFFCURVE",
"180 829 CURVE SMOOTH",
"68 879 LINE",
"391 1099 LINE",
"493 1004 LINE",
"331 899 LINE",
"435 843 OFFCURVE",
"508.5 788 OFFCURVE",
"551.5 734 CURVE SMOOTH",
"594.5 680 OFFCURVE",
"616 619.667 OFFCURVE",
"616 553 CURVE SMOOTH",
"616 486.333 OFFCURVE",
"594.333 425.667 OFFCURVE",
"551 371 CURVE SMOOTH",
"507.667 316.333 OFFCURVE",
"435 262 OFFCURVE",
"333 208 CURVE",
"493 100 LINE"
);
}
);
width = 705;
}
);
unicode = 10CCB;
},
{
glyphname = u10CCC;
layers = (
{
layerId = "4958E06B-1FD7-4815-824D-973C628D14CF";
paths = (
{
closed = 1;
nodes = (
"622 3 OFFCURVE",
"622 3 OFFCURVE",
"485 3 CURVE",
"371.667 81.6667 OFFCURVE",
"280.833 164.333 OFFCURVE",
"212.5 251 CURVE SMOOTH",
"144.167 337.667 OFFCURVE",
"110 438.333 OFFCURVE",
"110 553 CURVE SMOOTH",
"110 668.333 OFFCURVE",
"144.167 768.833 OFFCURVE",
"212.5 854.5 CURVE SMOOTH",
"280.833 940.167 OFFCURVE",
"371.667 1022.33 OFFCURVE",
"485 1101 CURVE",
"622 1101 LINE",
"735.333 1022.33 OFFCURVE",
"826.5 940 OFFCURVE",
"895.5 854 CURVE SMOOTH",
"964.5 768 OFFCURVE",
"999 667.667 OFFCURVE",
"999 553 CURVE SMOOTH",
"999 437.667 OFFCURVE",
"964.5 336.833 OFFCURVE",
"895.5 250.5 CURVE SMOOTH",
"826.5 164.167 OFFCURVE",
"735.333 81.6667 OFFCURVE",
"622 3 CURVE"
);
},
{
closed = 1;
nodes = (
"554 643 LINE",
"730 826 LINE",
"708.667 852 OFFCURVE",
"683.333 878.167 OFFCURVE",
"654 904.5 CURVE SMOOTH",
"624.667 930.833 OFFCURVE",
"592 958 OFFCURVE",
"556 986 CURVE",
"552 986 LINE",
"516 958 OFFCURVE",
"483.833 930.833 OFFCURVE",
"455.5 904.5 CURVE SMOOTH",
"427.167 878.167 OFFCURVE",
"401.667 852.667 OFFCURVE",
"379 828 CURVE"
);
},
{
closed = 1;
nodes = (
"467 549 LINE",
"307 721 LINE",
"283 669.667 OFFCURVE",
"271 613.667 OFFCURVE",
"271 553 CURVE SMOOTH",
"271 491 OFFCURVE",
"283 434.333 OFFCURVE",
"307 383 CURVE"
);
},
{
closed = 1;
nodes = (
"801 385 LINE",
"825 436.333 OFFCURVE",
"837 492.333 OFFCURVE",
"837 553 CURVE SMOOTH",
"837 613 OFFCURVE",
"825 668.667 OFFCURVE",
"801 720 CURVE",
"642 549 LINE"
);
},
{
closed = 1;
nodes = (
"556 121 LINE",
"626.667 175 OFFCURVE",
"683.333 225.333 OFFCURVE",
"726 272 CURVE",
"726 272 OFFCURVE",
"726 272 OFFCURVE",
"554 456 CURVE",
"383 272 LINE",
"425 225.333 OFFCURVE",
"481.333 175 OFFCURVE",
"552 121 CURVE"
);
}
);
width = 1107;
}
);
unicode = 10CCC;
},
{
glyphname = u10CCD;
layers = (
{
layerId = "4958E06B-1FD7-4815-824D-973C628D14CF";
paths = (
{
closed = 1;
nodes = (
"10 0 LINE",
"493 1098 LINE",
"634 1098 LINE",
"1119 0 LINE",
"941 0 LINE",
"764 413 LINE",
"598 0 LINE",
"425 0 LINE",
"680 605 LINE",
"648 681 LINE SMOOTH",
"630 724.333 OFFCURVE",
"614 766 OFFCURVE",
"600 806 CURVE SMOOTH",
"586.667 844.667 OFFCURVE",
"576 879.333 OFFCURVE",
"568 910 CURVE",
"560 910 LINE",
"552 878 OFFCURVE",
"542 845.333 OFFCURVE",
"530 812 CURVE SMOOTH",
"519.333 782 OFFCURVE",
"501.667 738.333 OFFCURVE",
"477 681 CURVE SMOOTH",
"184 0 LINE"
);
}
);
width = 1125;
}
);
unicode = 10CCD;
},
{
glyphname = u10CCE;
layers = (
{
layerId = "4958E06B-1FD7-4815-824D-973C628D14CF";
paths = (
{
closed = 1;
nodes = (
"365 2 LINE",
"365 260 LINE",
"134 142 LINE",
"64 255 LINE",
"365 411 LINE",
"365 604 LINE",
"134 482 LINE",
"64 596 LINE",
"365 752 LINE",
"365 1100 LINE",
"538 1100 LINE",
"538 834 LINE",
"781 960 LINE",
"839 844 LINE",
"538 685 LINE",
"538 495 LINE",
"781 618 LINE",
"839 502 LINE",
"538 341 LINE",
"538 2 LINE"
);
}
);
width = 897;
}
);
unicode = 10CCE;
},
{
glyphname = u10CCF;
layers = (
{
layerId = "4958E06B-1FD7-4815-824D-973C628D14CF";
paths = (
{
closed = 1;
nodes = (
"88 3 LINE",
"425 285 LINE",
"80 573 LINE",
"425 837 LINE",
"84 1101 LINE",
"301 1101 LINE",
"534 922 LINE",
"769 1101 LINE",
"985 1101 LINE",
"646 837 LINE",
"989 573 LINE",
"644 285 LINE",
"981 3 LINE",
"767 3 LINE",
"534 196 LINE",
"303 3 LINE"
);
},
{
closed = 1;
nodes = (
"534 379 LINE",
"764 571 LINE",
"534 749 LINE",
"309 571 LINE"
);
}
);
width = 1067;
}
);
unicode = 10CCF;
},
{
glyphname = u10CD0;
layers = (
{
layerId = "4958E06B-1FD7-4815-824D-973C628D14CF";
paths = (
{
closed = 1;
nodes = (
"365 0 LINE",
"365 664 LINE",
"134 545 LINE",
"64 659 LINE",
"365 810 LINE",
"365 1098 LINE",
"538 1098 LINE",
"538 899 LINE",
"781 1022 LINE",
"839 906 LINE",
"538 752 LINE",
"538 0 LINE"
);
}
);
width = 901;
}
);
unicode = 10CD0;
},
{
glyphname = u10CD1;
layers = (
{
layerId = "4958E06B-1FD7-4815-824D-973C628D14CF";
paths = (
{
closed = 1;
nodes = (
"371 4 LINE",
"371 885 LINE",
"86 749 LINE",
"16 856 LINE",
"781 1220 LINE",
"839 1111 LINE",
"544 970 LINE",
"544 4 LINE"
);
}
);
width = 839;
}
);
unicode = 10CD1;
},
{
glyphname = u10CD2;
layers = (
{
layerId = "4958E06B-1FD7-4815-824D-973C628D14CF";
paths = (
{
closed = 1;
nodes = (
"449 2 LINE",
"449 889 LINE",
"130 606 LINE",
"22 702 LINE",
"469 1100 LINE",
"622 1100 LINE",
"622 2 LINE"
);
}
);
width = 811;
}
);
unicode = 10CD2;
},
{
glyphname = u10CD3;
layers = (
{
layerId = "4958E06B-1FD7-4815-824D-973C628D14CF";
paths = (
{
closed = 1;
nodes = (
"417 3 LINE",
"66 557 LINE",
"417 1101 LINE",
"568 1101 LINE",
"917 557 LINE",
"568 3 LINE"
);
},
{
closed = 1;
nodes = (
"493 156 LINE",
"738 556 LINE",
"493 948 LINE",
"246 556 LINE"
);
}
);
width = 983;
}
);
unicode = 10CD3;
},
{
glyphname = u10CD4;
layers = (
{
layerId = "4958E06B-1FD7-4815-824D-973C628D14CF";
paths = (
{
closed = 1;
nodes = (
"381 0 LINE",
"381 892 LINE",
"128 687 LINE",
"30 793 LINE",
"411 1098 LINE",
"554 1098 LINE",
"554 206 LINE",
"807 411 LINE",
"905 304 LINE",
"524 0 LINE"
);
}
);
width = 935;
}
);
unicode = 10CD4;
},
{
glyphname = u10CD5;
layers = (
{
layerId = "4958E06B-1FD7-4815-824D-973C628D14CF";
paths = (
{
closed = 1;
nodes = (
"387 3 LINE",
"56 132 LINE",
"118 245 LINE",
"309 168 LINE",
"588 561 LINE",
"317 936 LINE",
"128 856 LINE",
"66 971 LINE",
"395 1102 LINE",
"684 683 LINE",
"969 1101 LINE",
"1302 972 LINE",
"1241 857 LINE",
"1049 936 LINE",
"779 561 LINE",
"1059 168 LINE",
"1249 245 LINE",
"1310 132 LINE",
"979 3 LINE",
"684 436 LINE"
);
}
);
width = 1365;
}
);
unicode = 10CD5;
},
{
glyphname = u10CD6;
layers = (
{
layerId = "4958E06B-1FD7-4815-824D-973C628D14CF";
paths = (
{
closed = 1;
nodes = (
"10 1 LINE",
"538 1099 LINE",
"680 1099 LINE",
"1211 1 LINE",
"1035 1 LINE",
"933 216 LINE",
"843 1 LINE",
"676 1 LINE",
"849 390 LINE",
"767 560 LINE",
"512 1 LINE",
"345 1 LINE",
"686 732 LINE",
"671.333 767.333 OFFCURVE",
"657.667 800.667 OFFCURVE",
"645 832 CURVE SMOOTH",
"632.333 863.333 OFFCURVE",
"622 890.667 OFFCURVE",
"614 914 CURVE",
"606 914 LINE",
"596.667 884.667 OFFCURVE",
"584.333 851.667 OFFCURVE",
"569 815 CURVE SMOOTH",
"550.333 769.667 OFFCURVE",
"530.333 725.333 OFFCURVE",
"509 682 CURVE SMOOTH",
"180 1 LINE"
);
}
);
width = 1219;
}
);
unicode = 10CD6;
},
{
glyphname = u10CD7;
layers = (
{
layerId = "4958E06B-1FD7-4815-824D-973C628D14CF";
paths = (
{
closed = 1;
nodes = (
"622 2 OFFCURVE",
"622 2 OFFCURVE",
"485 2 CURVE",
"371.667 80.6667 OFFCURVE",
"280.833 163.333 OFFCURVE",
"212.5 250 CURVE SMOOTH",
"144.167 336.667 OFFCURVE",
"110 437.333 OFFCURVE",
"110 552 CURVE SMOOTH",
"110 667.333 OFFCURVE",
"144.167 767.833 OFFCURVE",
"212.5 853.5 CURVE SMOOTH",
"280.833 939.167 OFFCURVE",
"371.667 1021.33 OFFCURVE",
"485 1100 CURVE",
"622 1100 LINE",
"735.333 1021.33 OFFCURVE",
"826.5 939 OFFCURVE",
"895.5 853 CURVE SMOOTH",
"964.5 767 OFFCURVE",
"999 666.667 OFFCURVE",
"999 552 CURVE SMOOTH",
"999 436.667 OFFCURVE",
"964.5 335.833 OFFCURVE",
"895.5 249.5 CURVE SMOOTH",
"826.5 163.167 OFFCURVE",
"735.333 80.6667 OFFCURVE",
"622 2 CURVE"
);
},
{
closed = 1;
nodes = (
"730 823 LINE",
"693.333 866.333 OFFCURVE",
"635.333 919.333 OFFCURVE",
"556 982 CURVE",
"552 982 LINE",
"488 932 OFFCURVE",
"435.5 885.333 OFFCURVE",
"394.5 842 CURVE SMOOTH",
"353.5 798.667 OFFCURVE",
"323.333 754 OFFCURVE",
"304 708 CURVE SMOOTH",
"284.667 662 OFFCURVE",
"275 610 OFFCURVE",
"275 552 CURVE SMOOTH",
"275 492.667 OFFCURVE",
"286.333 436.667 OFFCURVE",
"309 384 CURVE"
);
},
{
closed = 1;
nodes = (
"556 120 LINE",
"652 194.667 OFFCURVE",
"722.167 264 OFFCURVE",
"766.5 328 CURVE SMOOTH",
"810.833 392 OFFCURVE",
"833 466.667 OFFCURVE",
"833 552 CURVE SMOOTH",
"833 609.333 OFFCURVE",
"821.667 663.667 OFFCURVE",
"799 715 CURVE",
"385 271 LINE",
"406.333 246.333 OFFCURVE",
"430.833 221.667 OFFCURVE",
"458.5 197 CURVE SMOOTH",
"486.167 172.333 OFFCURVE",
"517.333 146.667 OFFCURVE",
"552 120 CURVE"
);
}
);
width = 1107;
}
);
unicode = 10CD7;
},
{
glyphname = u10CD8;
layers = (
{
layerId = "4958E06B-1FD7-4815-824D-973C628D14CF";
paths = (
{
closed = 1;
nodes = (
"612 1 LINE",
"96 243 LINE",
"96 425 LINE",
"379 554 LINE",
"96 695 LINE",
"96 876 LINE",
"604 1099 LINE",
"769 1099 LINE",
"769 1 LINE"
);
},
{
closed = 1;
nodes = (
"610 585 LINE",
"610 941 LINE",
"242 779 LINE"
);
},
{
closed = 1;
nodes = (
"610 172 LINE",
"610 522 LINE",
"242 340 LINE"
);
}
);
width = 959;
}
);
unicode = 10CD8;
},
{
glyphname = u10CD9;
layers = (
{
layerId = "4958E06B-1FD7-4815-824D-973C628D14CF";
paths = (
{
closed = 1;
nodes = (
"146 4 OFFCURVE",
"146 4 OFFCURVE",
"72 120 CURVE",
"197.333 168.667 OFFCURVE",
"294.5 214.333 OFFCURVE",
"363.5 257 CURVE SMOOTH",
"432.5 299.667 OFFCURVE",
"480.833 344.667 OFFCURVE",
"508.5 392 CURVE SMOOTH",
"536.167 439.333 OFFCURVE",
"550 494 OFFCURVE",
"550 556 CURVE SMOOTH",
"550 614 OFFCURVE",
"536.167 665.5 OFFCURVE",
"508.5 710.5 CURVE SMOOTH",
"480.833 755.5 OFFCURVE",
"431.833 799.667 OFFCURVE",
"361.5 843 CURVE SMOOTH",
"291.167 886.333 OFFCURVE",
"192 934 OFFCURVE",
"64 986 CURVE",
"154 1102 LINE",
"292.667 1046.67 OFFCURVE",
"403.667 992.167 OFFCURVE",
"487 938.5 CURVE SMOOTH",
"570.333 884.833 OFFCURVE",
"631.333 827 OFFCURVE",
"670 765 CURVE SMOOTH",
"708.667 703 OFFCURVE",
"728 633.333 OFFCURVE",
"728 556 CURVE SMOOTH",
"728 475.333 OFFCURVE",
"708.667 404.167 OFFCURVE",
"670 342.5 CURVE SMOOTH",
"631.333 280.833 OFFCURVE",
"569.667 222.833 OFFCURVE",
"485 168.5 CURVE SMOOTH",
"400.333 114.167 OFFCURVE",
"287.333 59.3333 OFFCURVE",
"146 4 CURVE"
);
}
);
width = 837;
}
);
unicode = 10CD9;
},
{
glyphname = u10CDA;
layers = (
{
layerId = "4958E06B-1FD7-4815-824D-973C628D14CF";
paths = (
{
closed = 1;
nodes = (
"359 1 OFFCURVE",
"359 1 OFFCURVE",
"190 1 CURVE",
"190 1099 LINE",
"359 1099 LINE",
"480.333 1040.33 OFFCURVE",
"578.167 982.5 OFFCURVE",
"652.5 925.5 CURVE SMOOTH",
"726.833 868.5 OFFCURVE",
"781.167 809.5 OFFCURVE",
"815.5 748.5 CURVE SMOOTH",
"849.833 687.5 OFFCURVE",
"867 621.667 OFFCURVE",
"867 551 CURVE SMOOTH",
"867 476.333 OFFCURVE",
"850.167 408.167 OFFCURVE",
"816.5 346.5 CURVE SMOOTH",
"782.833 284.833 OFFCURVE",
"728.833 226.5 OFFCURVE",
"654.5 171.5 CURVE SMOOTH",
"580.167 116.5 OFFCURVE",
"481.667 59.6667 OFFCURVE",
"359 1 CURVE"
);
},
{
closed = 1;
nodes = (
"359 161 LINE",
"481.667 222.333 OFFCURVE",
"568.167 282.833 OFFCURVE",
"618.5 342.5 CURVE SMOOTH",
"668.833 402.167 OFFCURVE",
"694 471.667 OFFCURVE",
"694 551 CURVE SMOOTH",
"694 598.333 OFFCURVE",
"684.333 642.333 OFFCURVE",
"665 683 CURVE SMOOTH",
"645.667 723.667 OFFCURVE",
"612.167 764.5 OFFCURVE",
"564.5 805.5 CURVE SMOOTH",
"516.833 846.5 OFFCURVE",
"448.333 890.333 OFFCURVE",
"359 937 CURVE"
);
}
);
width = 977;
}
);
unicode = 10CDA;
},
{
glyphname = u10CDB;
layers = (
{
layerId = "4958E06B-1FD7-4815-824D-973C628D14CF";
paths = (
{
closed = 1;
nodes = (
"421 3 OFFCURVE",
"421 3 OFFCURVE",
"64 289 CURVE",
"180 388 LINE",
"437 180 LINE",
"519.667 240 OFFCURVE",
"577.333 298 OFFCURVE",
"610 354 CURVE SMOOTH",
"643.333 410.667 OFFCURVE",
"660 474 OFFCURVE",
"660 544 CURVE SMOOTH",
"660 587.333 OFFCURVE",
"652.667 629 OFFCURVE",
"638 669 CURVE SMOOTH",
"623.333 708.333 OFFCURVE",
"598.667 747.667 OFFCURVE",
"564 787 CURVE SMOOTH",
"529.333 826.333 OFFCURVE",
"482.333 868 OFFCURVE",
"423 912 CURVE",
"180 713 LINE",
"64 812 LINE",
"421 1101 LINE",
"522.333 1032.33 OFFCURVE",
"603.167 968.167 OFFCURVE",
"663.5 908.5 CURVE SMOOTH",
"723.833 848.833 OFFCURVE",
"767.333 789.333 OFFCURVE",
"794 730 CURVE SMOOTH",
"820 670.667 OFFCURVE",
"833 608.667 OFFCURVE",
"833 544 CURVE SMOOTH",
"833 435.333 OFFCURVE",
"799 340 OFFCURVE",
"731 258 CURVE SMOOTH",
"663 176 OFFCURVE",
"559.667 91 OFFCURVE",
"421 3 CURVE"
);
}
);
width = 943;
}
);
unicode = 10CDB;
},
{
glyphname = u10CDC;
layers = (
{
layerId = "4958E06B-1FD7-4815-824D-973C628D14CF";
paths = (
{
closed = 1;
nodes = (
"481 3 OFFCURVE",
"481 3 OFFCURVE",
"56 353 CURVE",
"363 640 LINE",
"477 539 LINE",
"281 362 LINE",
"499 178 LINE",
"585.667 239.333 OFFCURVE",
"645.667 298 OFFCURVE",
"679 354 CURVE SMOOTH",
"713 411.333 OFFCURVE",
"730 475 OFFCURVE",
"730 545 CURVE SMOOTH",
"730 595.667 OFFCURVE",
"719.333 643.667 OFFCURVE",
"698 689 CURVE SMOOTH",
"676.667 734.333 OFFCURVE",
"640 781 OFFCURVE",
"588 829 CURVE SMOOTH",
"536 877 OFFCURVE",
"464.333 930.667 OFFCURVE",
"373 990 CURVE",
"481 1101 LINE",
"585 1033 OFFCURVE",
"667.333 969.167 OFFCURVE",
"728 909.5 CURVE SMOOTH",
"788.667 849.833 OFFCURVE",
"832.667 790.667 OFFCURVE",
"860 732 CURVE SMOOTH",
"887.333 672.667 OFFCURVE",
"901 610.333 OFFCURVE",
"901 545 CURVE SMOOTH",
"901 437 OFFCURVE",
"866.667 341.667 OFFCURVE",
"798 259 CURVE SMOOTH",
"729.333 176.333 OFFCURVE",
"623.667 91 OFFCURVE",
"481 3 CURVE"
);
}
);
width = 1011;
}
);
unicode = 10CDC;
},
{
glyphname = u10CDD;
layers = (
{
layerId = "4958E06B-1FD7-4815-824D-973C628D14CF";
paths = (
{
closed = 1;
nodes = (
"524 2 LINE",
"66 382 LINE",
"461 700 LINE",
"94 995 LINE",
"208 1098 LINE",
"672 707 LINE",
"279 388 LINE",
"627 105 LINE"
);
}
);
width = 737;
}
);
unicode = 10CDD;
},
{
glyphname = u10CDE;
layers = (
{
layerId = "4958E06B-1FD7-4815-824D-973C628D14CF";
paths = (
{
closed = 1;
nodes = (
"190 2 LINE",
"190 1100 LINE",
"363 1100 LINE",
"363 567 LINE",
"738 1100 LINE",
"931 1100 LINE",
"536 565 LINE",
"945 2 LINE",
"742 2 LINE",
"363 552 LINE",
"363 2 LINE"
);
}
);
width = 981;
}
);
unicode = 10CDE;
},
{
glyphname = u10CDF;
layers = (
{
layerId = "4958E06B-1FD7-4815-824D-973C628D14CF";
paths = (
{
closed = 1;
nodes = (
"481 4 OFFCURVE",
"481 4 OFFCURVE",
"56 354 CURVE",
"363 641 LINE",
"477 540 LINE",
"281 363 LINE",
"499 179 LINE",
"555 218.333 OFFCURVE",
"599.333 256.667 OFFCURVE",
"632 294 CURVE",
"536 363 LINE",
"628 448 LINE",
"700 396 LINE",
"720 443.333 OFFCURVE",
"730 493.333 OFFCURVE",
"730 546 CURVE SMOOTH",
"730 571.333 OFFCURVE",
"727.333 597 OFFCURVE",
"722 623 CURVE SMOOTH",
"716.667 648.333 OFFCURVE",
"707.333 673.667 OFFCURVE",
"694 699 CURVE",
"626 649 LINE",
"534 735 LINE",
"620 798 LINE",
"565.333 855.333 OFFCURVE",
"483 919.667 OFFCURVE",
"373 991 CURVE",
"481 1102 LINE",
"539.667 1064 OFFCURVE",
"590.833 1027.67 OFFCURVE",
"634.5 993 CURVE SMOOTH",
"678.167 958.333 OFFCURVE",
"716 924.333 OFFCURVE",
"748 891 CURVE",
"881 988 LINE",
"971 906 LINE",
"825 796 LINE",
"851.667 755.333 OFFCURVE",
"871 714.5 OFFCURVE",
"883 673.5 CURVE SMOOTH",
"895 632.5 OFFCURVE",
"901 590 OFFCURVE",
"901 546 CURVE SMOOTH",
"901 457.333 OFFCURVE",
"877 375.667 OFFCURVE",
"829 301 CURVE",
"977 192 LINE",
"887 106 LINE",
"750 206 LINE",
"716.667 172 OFFCURVE",
"677.833 138.5 OFFCURVE",
"633.5 105.5 CURVE SMOOTH",
"589.167 72.5 OFFCURVE",
"538.333 38.6667 OFFCURVE",
"481 4 CURVE"
);
}
);
width = 1077;
}
);
unicode = 10CDF;
},
{
glyphname = u10CE0;
layers = (
{
layerId = "4958E06B-1FD7-4815-824D-973C628D14CF";
paths = (
{
closed = 1;
nodes = (
"184 -14 LINE",
"84 85 LINE",
"544 425 LINE",
"544 590 LINE",
"184 314 LINE",
"84 412 LINE",
"544 753 LINE",
"544 918 LINE",
"184 641 LINE",
"84 737 LINE",
"564 1100 LINE",
"714 1100 LINE",
"714 2 LINE",
"544 2 LINE",
"544 263 LINE"
);
}
);
width = 903;
}
);
unicode = 10CE0;
},
{
glyphname = u10CE1;
layers = (
{
layerId = "4958E06B-1FD7-4815-824D-973C628D14CF";
paths = (
{
closed = 1;
nodes = (
"509 129 OFFCURVE",
"509 129 OFFCURVE",
"339 -33 CURVE",
"222 65 LINE",
"413 232 LINE",
"365 293.333 OFFCURVE",
"332.333 357 OFFCURVE",
"315 423 CURVE",
"104 318 LINE",
"28 441 LINE",
"299 569 LINE",
"301.667 624.333 OFFCURVE",
"312.333 674.167 OFFCURVE",
"331 718.5 CURVE SMOOTH",
"349.667 762.833 OFFCURVE",
"375.667 806 OFFCURVE",
"409 848 CURVE",
"164 743 LINE",
"94 867 LINE",
"672 1097 LINE",
"815 1097 LINE",
"1394 867 LINE",
"1324 743 LINE",
"1077 850 LINE",
"1111.67 808 OFFCURVE",
"1138.67 764.5 OFFCURVE",
"1158 719.5 CURVE SMOOTH",
"1177.33 674.5 OFFCURVE",
"1187.67 624.333 OFFCURVE",
"1189 569 CURVE",
"1460 441 LINE",
"1384 318 LINE",
"1173 423 LINE",
"1163.67 388.333 OFFCURVE",
"1150.67 355.333 OFFCURVE",
"1134 324 CURVE SMOOTH",
"1117.33 292.667 OFFCURVE",
"1097.67 262 OFFCURVE",
"1075 232 CURVE",
"1267 65 LINE",
"1149 -33 LINE",
"979 129 LINE",
"953.667 107 OFFCURVE",
"927 85 OFFCURVE",
"899 63 CURVE SMOOTH",
"871 41 OFFCURVE",
"841.667 19.6667 OFFCURVE",
"811 -1 CURVE",
"674 -1 LINE",
"643.333 19.6667 OFFCURVE",
"614.167 40.6667 OFFCURVE",
"586.5 62 CURVE SMOOTH",
"558.833 83.3333 OFFCURVE",
"533 105.667 OFFCURVE",
"509 129 CURVE"
);
},
{
closed = 1;
nodes = (
"746 127 LINE",
"842 201.667 OFFCURVE",
"912.167 271.167 OFFCURVE",
"956.5 335.5 CURVE SMOOTH",
"1000.83 399.833 OFFCURVE",
"1023 474.667 OFFCURVE",
"1023 560 CURVE SMOOTH",
"1023 648 OFFCURVE",
"1000.33 724.833 OFFCURVE",
"955 790.5 CURVE SMOOTH",
"909.667 856.167 OFFCURVE",
"840 922.667 OFFCURVE",
"746 990 CURVE",
"746 990 OFFCURVE",
"746 990 OFFCURVE",
"742 990 CURVE",
"644.667 922.667 OFFCURVE",
"574.167 856.167 OFFCURVE",
"530.5 790.5 CURVE SMOOTH",
"486.833 724.833 OFFCURVE",
"465 648 OFFCURVE",
"465 560 CURVE SMOOTH",
"465 501.333 OFFCURVE",
"474.833 448.667 OFFCURVE",
"494.5 402 CURVE SMOOTH",
"514.167 355.333 OFFCURVE",
"544.333 310.333 OFFCURVE",
"585 267 CURVE SMOOTH",
"625.667 223.667 OFFCURVE",
"678 177 OFFCURVE",
"742 127 CURVE"
);
}
);
width = 1487;
}
);
unicode = 10CE1;
},
{
glyphname = u10CE2;
layers = (
{
layerId = "4958E06B-1FD7-4815-824D-973C628D14CF";
paths = (
{
closed = 1;
nodes = (
"190 1 LINE",
"190 1099 LINE",
"363 1099 LINE",
"363 485 LINE",
"887 797 LINE",
"887 1099 LINE",
"1061 1099 LINE",
"1061 1 LINE",
"887 1 LINE",
"887 634 LINE",
"363 322 LINE",
"363 1 LINE"
);
}
);
width = 1249;
}
);
unicode = 10CE2;
},
{
glyphname = u10CE3;
layers = (
{
layerId = "4958E06B-1FD7-4815-824D-973C628D14CF";
paths = (
{
closed = 1;
nodes = (
"132 344 LINE",
"54 469 LINE",
"736 826 LINE",
"815 702 LINE"
);
}
);
width = 879;
}
);
unicode = 10CE3;
},
{
glyphname = u10CE4;
layers = (
{
layerId = "4958E06B-1FD7-4815-824D-973C628D14CF";
paths = (
{
closed = 1;
nodes = (
"10 2 LINE",
"493 1098 LINE",
"634 1098 LINE",
"1119 2 LINE",
"941 2 LINE",
"648 683 LINE SMOOTH",
"632.667 719.667 OFFCURVE",
"616.667 761.667 OFFCURVE",
"600 809 CURVE SMOOTH",
"586.667 847 OFFCURVE",
"576 881.333 OFFCURVE",
"568 912 CURVE",
"560 912 LINE",
"552 880 OFFCURVE",
"541.667 847 OFFCURVE",
"529 813 CURVE SMOOTH",
"500.333 740.333 OFFCURVE",
"483 697 OFFCURVE",
"477 683 CURVE SMOOTH",
"184 2 LINE"
);
}
);
width = 1127;
}
);
unicode = 10CE4;
},
{
glyphname = u10CE5;
layers = (
{
layerId = "4958E06B-1FD7-4815-824D-973C628D14CF";
paths = (
{
closed = 1;
nodes = (
"190 2 LINE",
"190 1100 LINE",
"363 1100 LINE",
"363 2 LINE"
);
}
);
width = 551;
}
);
unicode = 10CE5;
},
{
glyphname = u10CE6;
layers = (
{
layerId = "4958E06B-1FD7-4815-824D-973C628D14CF";
paths = (
{
closed = 1;
nodes = (
"568 1 LINE",
"568 440 LINE",
"76 991 LINE",
"206 1096 LINE",
"568 679 LINE",
"568 1099 LINE",
"742 1099 LINE",
"742 1 LINE"
);
}
);
width = 931;
}
);
unicode = 10CE6;
},
{
glyphname = u10CE7;
layers = (
{
layerId = "4958E06B-1FD7-4815-824D-973C628D14CF";
paths = (
{
closed = 1;
nodes = (
"574 6 LINE",
"574 625 LINE",
"285 915 LINE",
"134 771 LINE",
"28 867 LINE",
"293 1104 LINE",
"574 817 LINE",
"574 1104 LINE",
"744 1104 LINE",
"744 819 LINE",
"1027 1104 LINE",
"1290 867 LINE",
"1187 771 LINE",
"1033 915 LINE",
"744 627 LINE",
"744 6 LINE"
);
}
);
width = 1317;
}
);
unicode = 10CE7;
},
{
glyphname = u10CE8;
layers = (
{
layerId = "4958E06B-1FD7-4815-824D-973C628D14CF";
paths = (
{
closed = 1;
nodes = (
"20 3 LINE",
"433 573 LINE",
"44 1098 LINE",
"242 1098 LINE",
"363 930 LINE",
"477 1098 LINE",
"652 1098 LINE",
"449 807 LINE",
"538 684 LINE",
"835 1098 LINE",
"1023 1098 LINE",
"640 577 LINE",
"1053 3 LINE",
"851 3 LINE",
"714 203 LINE",
"578 3 LINE",
"405 3 LINE",
"628 328 LINE",
"532 467 LINE",
"208 3 LINE"
);
}
);
width = 1071;
}
);
unicode = 10CE8;
},
{
glyphname = u10CE9;
layers = (
{
layerId = "4958E06B-1FD7-4815-824D-973C628D14CF";
paths = (
{
closed = 1;
nodes = (
"875 -5 LINE",
"471 102 LINE",
"514 227 LINE",
"763 155 LINE",
"542 458 LINE",
"208 3 LINE",
"20 3 LINE",
"433 573 LINE",
"44 1098 LINE",
"242 1098 LINE",
"541 696 LINE",
"709 932 LINE",
"476 866 LINE",
"436 991 LINE",
"830 1098 LINE",
"942 1004 LINE",
"629 577 LINE",
"1003 89 LINE"
);
}
);
width = 1029;
}
);
unicode = 10CE9;
},
{
glyphname = u10CEA;
layers = (
{
layerId = "4958E06B-1FD7-4815-824D-973C628D14CF";
paths = (
{
closed = 1;
nodes = (
"190 1 LINE",
"190 1099 LINE",
"343 1099 LINE",
"660 889 LINE",
"973 1099 LINE",
"1131 1099 LINE",
"1131 1 LINE",
"973 1 LINE",
"660 211 LINE",
"343 1 LINE"
);
},
{
closed = 1;
nodes = (
"359 185 LINE",
"660 379 LINE",
"961 185 LINE",
"961 913 LINE",
"660 720 LINE",
"359 913 LINE"
);
}
);
width = 1319;
}
);
unicode = 10CEA;
},
{
glyphname = u10CEB;
layers = (
{
layerId = "4958E06B-1FD7-4815-824D-973C628D14CF";
paths = (
{
closed = 1;
nodes = (
"190 -1 LINE",
"190 1097 LINE",
"345 1097 LINE",
"710 647 LINE",
"1081 1097 LINE",
"1227 1097 LINE",
"1227 -1 LINE",
"1081 -1 LINE",
"710 445 LINE",
"345 -1 LINE"
);
},
{
closed = 1;
nodes = (
"1071 231 LINE",
"1077 231 LINE",
"1077 862 LINE",
"1071 862 LINE",
"803 549 LINE"
);
},
{
closed = 1;
nodes = (
"349 239 LINE",
"355 239 LINE",
"616 549 LINE",
"355 852 LINE",
"349 852 LINE"
);
}
);
width = 1415;
}
);
unicode = 10CEB;
},
{
glyphname = u10CEC;
layers = (
{
layerId = "4958E06B-1FD7-4815-824D-973C628D14CF";
paths = (
{
closed = 1;
nodes = (
"351 133 OFFCURVE",
"351 133 OFFCURVE",
"194 -25 CURVE",
"76 73 LINE",
"254 239 LINE",
"218 285.667 OFFCURVE",
"190.333 334.833 OFFCURVE",
"171 386.5 CURVE SMOOTH",
"151.667 438.167 OFFCURVE",
"142 493 OFFCURVE",
"142 551 CURVE SMOOTH",
"142 610.333 OFFCURVE",
"151.667 666 OFFCURVE",
"171 718 CURVE SMOOTH",
"190.333 770 OFFCURVE",
"218 818.667 OFFCURVE",
"254 864 CURVE",
"76 1027 LINE",
"194 1125 LINE",
"351 968 LINE",
"397.667 1012 OFFCURVE",
"452.667 1056.33 OFFCURVE",
"516 1101 CURVE",
"654 1101 LINE",
"716.667 1057 OFFCURVE",
"772.333 1012.67 OFFCURVE",
"821 968 CURVE",
"821 968 OFFCURVE",
"821 968 OFFCURVE",
"981 1125 CURVE",
"1099 1027 LINE",
"919 864 LINE",
"953.667 817.333 OFFCURVE",
"981 768.333 OFFCURVE",
"1001 717 CURVE SMOOTH",
"1021 665.667 OFFCURVE",
"1031 610.333 OFFCURVE",
"1031 551 CURVE SMOOTH",
"1031 492.333 OFFCURVE",
"1021 437.333 OFFCURVE",
"1001 386 CURVE SMOOTH",
"981 334.667 OFFCURVE",
"953.667 285.667 OFFCURVE",
"919 239 CURVE",
"1099 73 LINE",
"981 -25 LINE",
"821 133 LINE",
"795.667 111 OFFCURVE",
"769.167 89 OFFCURVE",
"741.5 67 CURVE SMOOTH",
"713.833 45 OFFCURVE",
"684.667 23.6667 OFFCURVE",
"654 3 CURVE",
"516 3 LINE",
"455.333 45.6667 OFFCURVE",
"400.333 89 OFFCURVE",
"351 133 CURVE"
);
},
{
closed = 1;
nodes = (
"588 120 LINE",
"684 194.667 OFFCURVE",
"754.167 264.167 OFFCURVE",
"798.5 328.5 CURVE SMOOTH",
"842.833 392.833 OFFCURVE",
"865 467 OFFCURVE",
"865 551 CURVE SMOOTH",
"865 636.333 OFFCURVE",
"842.5 711 OFFCURVE",
"797.5 775 CURVE SMOOTH",
"752.5 839 OFFCURVE",
"682.667 908.333 OFFCURVE",
"588 983 CURVE",
"588 983 OFFCURVE",
"588 983 OFFCURVE",
"584 983 CURVE",
"520 933 OFFCURVE",
"467.5 885.833 OFFCURVE",
"426.5 841.5 CURVE SMOOTH",
"385.5 797.167 OFFCURVE",
"355.333 751.833 OFFCURVE",
"336 705.5 CURVE SMOOTH",
"316.667 659.167 OFFCURVE",
"307 607.5 OFFCURVE",
"307 550.5 CURVE SMOOTH",
"307 493.5 OFFCURVE",
"317 441.833 OFFCURVE",
"337 395.5 CURVE SMOOTH",
"357 349.167 OFFCURVE",
"387.167 304.167 OFFCURVE",
"427.5 260.5 CURVE SMOOTH",
"467.833 216.833 OFFCURVE",
"520 170 OFFCURVE",
"584 120 CURVE"
);
}
);
width = 1173;
}
);
unicode = 10CEC;
},
{
glyphname = u10CED;
layers = (
{
layerId = "4958E06B-1FD7-4815-824D-973C628D14CF";
paths = (
{
closed = 1;
nodes = (
"805 1 LINE",
"805 646 LINE",
"339 307 LINE",
"172 307 LINE",
"172 1098 LINE",
"345 1098 LINE",
"345 496 LINE",
"809 835 LINE",
"979 835 LINE",
"979 1 LINE"
);
}
);
width = 1149;
}
);
unicode = 10CED;
},
{
glyphname = u10CEE;
layers = (
{
layerId = "4958E06B-1FD7-4815-824D-973C628D14CF";
paths = (
{
closed = 1;
nodes = (
"190 0 LINE",
"190 1098 LINE",
"343 1098 LINE",
"660 888 LINE",
"973 1098 LINE",
"1131 1098 LINE",
"1131 0 LINE",
"961 0 LINE",
"961 912 LINE",
"660 719 LINE",
"359 912 LINE",
"359 0 LINE"
);
}
);
width = 1319;
}
);
unicode = 10CEE;
},
{
glyphname = u10CEF;
layers = (
{
layerId = "4958E06B-1FD7-4815-824D-973C628D14CF";
paths = (
{
closed = 1;
nodes = (
"190 48 LINE",
"190 1149 LINE",
"359 1149 LINE",
"359 831 LINE",
"867 1149 LINE",
"1037 1149 LINE",
"1037 48 LINE",
"867 48 LINE",
"867 365 LINE",
"359 48 LINE"
);
},
{
closed = 1;
nodes = (
"359 514 LINE",
"867 831 LINE",
"867 1000 LINE",
"359 683 LINE"
);
},
{
closed = 1;
nodes = (
"359 197 LINE",
"867 514 LINE",
"867 683 LINE",
"359 365 LINE"
);
}
);
width = 1225;
}
);
unicode = 10CEF;
},
{
glyphname = u10CF0;
layers = (
{
layerId = "4958E06B-1FD7-4815-824D-973C628D14CF";
paths = (
{
closed = 1;
nodes = (
"532 2 LINE",
"532 477 LINE",
"58 1014 LINE",
"196 1100 LINE",
"532 706 LINE",
"532 1100 LINE",
"706 1100 LINE",
"706 706 LINE",
"1057 1100 LINE",
"1193 1014 LINE",
"706 477 LINE",
"706 2 LINE"
);
}
);
width = 1239;
}
);
unicode = 10CF0;
},
{
glyphname = u10CF1;
layers = (
{
layerId = "4958E06B-1FD7-4815-824D-973C628D14CF";
paths = (
{
closed = 1;
nodes = (
"618 4 LINE",
"331 280 LINE",
"154 157 LINE",
"60 258 LINE",
"337 453 LINE",
"618 181 LINE",
"618 356 LINE",
"331 617 LINE",
"154 492 LINE",
"60 595 LINE",
"337 785 LINE",
"618 523 LINE",
"618 692 LINE",
"331 953 LINE",
"154 830 LINE",
"60 931 LINE",
"337 1126 LINE",
"618 861 LINE",
"618 1102 LINE",
"787 1102 LINE",
"787 861 LINE",
"1071 1126 LINE",
"1348 931 LINE",
"1255 830 LINE",
"1077 953 LINE",
"787 692 LINE",
"787 523 LINE",
"1071 785 LINE",
"1348 595 LINE",
"1255 492 LINE",
"1077 617 LINE",
"787 356 LINE",
"787 181 LINE",
"1071 453 LINE",
"1348 258 LINE",
"1255 157 LINE",
"1077 280 LINE",
"787 4 LINE"
);
}
);
width = 1407;
}
);
unicode = 10CF1;
},
{
glyphname = u10CF2;
layers = (
{
layerId = "4958E06B-1FD7-4815-824D-973C628D14CF";
paths = (
{
closed = 1;
nodes = (
"622 2 OFFCURVE",
"622 2 OFFCURVE",
"485 2 CURVE",
"371.667 80.6667 OFFCURVE",
"280.833 163.333 OFFCURVE",
"212.5 250 CURVE SMOOTH",
"144.167 336.667 OFFCURVE",
"110 436.333 OFFCURVE",
"110 549 CURVE SMOOTH",
"110 664.333 OFFCURVE",
"144.167 765.333 OFFCURVE",
"212.5 852 CURVE SMOOTH",
"280.833 938.667 OFFCURVE",
"371.667 1021.33 OFFCURVE",
"485 1100 CURVE",
"622 1100 LINE",
"735.333 1021.33 OFFCURVE",
"826.5 938.5 OFFCURVE",
"895.5 851.5 CURVE SMOOTH",
"964.5 764.5 OFFCURVE",
"999 663.667 OFFCURVE",
"999 549 CURVE SMOOTH",
"999 435.667 OFFCURVE",
"964.5 335.833 OFFCURVE",
"895.5 249.5 CURVE SMOOTH",
"826.5 163.167 OFFCURVE",
"735.333 80.6667 OFFCURVE",
"622 2 CURVE"
);
},
{
closed = 1;
nodes = (
"479 922 LINE",
"408.333 862 OFFCURVE",
"356.667 803.167 OFFCURVE",
"324 745.5 CURVE SMOOTH",
"291.333 687.833 OFFCURVE",
"275 622.5 OFFCURVE",
"275 549.5 CURVE SMOOTH",
"275 476.5 OFFCURVE",
"291.667 411.667 OFFCURVE",
"325 355 CURVE SMOOTH",
"358.333 298.333 OFFCURVE",
"409.667 240 OFFCURVE",
"479 180 CURVE"
);
},
{
closed = 1;
nodes = (
"632 182 LINE",
"701.333 242 OFFCURVE",
"752.167 300.167 OFFCURVE",
"784.5 356.5 CURVE SMOOTH",
"816.833 412.833 OFFCURVE",
"833 477.333 OFFCURVE",
"833 550 CURVE SMOOTH",
"833 622.667 OFFCURVE",
"816.833 687.5 OFFCURVE",
"784.5 744.5 CURVE SMOOTH",
"752.167 801.5 OFFCURVE",
"701.333 860 OFFCURVE",
"632 920 CURVE"
);
}
);
width = 1107;
}
);
unicode = 10CF2;
},
{
glyphname = u10CFA;
layers = (
{
layerId = "4958E06B-1FD7-4815-824D-973C628D14CF";
paths = (
{
closed = 1;
nodes = (
"248 2 LINE",
"248 1463 LINE",
"427 1463 LINE",
"427 2 LINE"
);
}
);
width = 679;
}
);
unicode = 10CFA;
},
{
glyphname = u10CFB;
layers = (
{
layerId = "4958E06B-1FD7-4815-824D-973C628D14CF";
paths = (
{
closed = 1;
nodes = (
"495 0 LINE",
"10 1497 LINE",
"188 1497 LINE",
"481 594 LINE SMOOTH",
"494.333 552 OFFCURVE",
"510 493 OFFCURVE",
"528 417 CURVE SMOOTH",
"541.333 362.333 OFFCURVE",
"552 313 OFFCURVE",
"560 269 CURVE",
"560 269 OFFCURVE",
"560 269 OFFCURVE",
"568 269 CURVE",
"566.667 275 OFFCURVE",
"576.667 322.333 OFFCURVE",
"598 411 CURVE SMOOTH",
"610 459.667 OFFCURVE",
"628 520.667 OFFCURVE",
"652 594 CURVE SMOOTH",
"945 1497 LINE",
"1119 1497 LINE",
"636 0 LINE"
);
}
);
width = 1127;
}
);
unicode = 10CFB;
},
{
glyphname = u10CFC;
layers = (
{
layerId = "4958E06B-1FD7-4815-824D-973C628D14CF";
paths = (
{
closed = 1;
nodes = (
"8 3 LINE",
"570 754 LINE",
"44 1460 LINE",
"263 1460 LINE",
"690 867 LINE",
"1123 1460 LINE",
"1330 1460 LINE",
"805 756 LINE",
"1370 3 LINE",
"1147 3 LINE",
"684 637 LINE",
"216 3 LINE"
);
}
);
width = 1377;
}
);
unicode = 10CFC;
},
{
glyphname = u10CFD;
layers = (
{
layerId = "4958E06B-1FD7-4815-824D-973C628D14CF";
paths = (
{
closed = 1;
nodes = (
"473 4 LINE",
"4 1461 LINE",
"188 1461 LINE",
"429 690 LINE",
"434.333 670 OFFCURVE",
"444.333 633.333 OFFCURVE",
"459 580 CURVE SMOOTH",
"468.333 545.333 OFFCURVE",
"477 511.667 OFFCURVE",
"485 479 CURVE",
"479 1461 LINE",
"652 1461 LINE",
"646 477 LINE",
"653.333 507.667 OFFCURVE",
"662 541.333 OFFCURVE",
"672 578 CURVE SMOOTH",
"681.333 612.667 OFFCURVE",
"691.333 650 OFFCURVE",
"702 690 CURVE",
"945 1461 LINE",
"1125 1461 LINE",
"658 4 LINE"
);
}
);
width = 1127;
}
);
unicode = 10CFD;
},
{
glyphname = u10CFE;
layers = (
{
layerId = "4958E06B-1FD7-4815-824D-973C628D14CF";
paths = (
{
closed = 1;
nodes = (
"785 987 LINE",
"1127 1456 LINE",
"1334 1456 LINE",
"809 762 LINE",
"1374 0 LINE",
"1151 0 LINE",
"785 535 LINE",
"785 8 LINE",
"612 8 LINE",
"612 543 LINE",
"220 0 LINE",
"12 0 LINE",
"574 760 LINE",
"48 1456 LINE",
"267 1456 LINE",
"612 978 LINE",
"612 1454 LINE",
"785 1454 LINE"
);
}
);
width = 1377;
}
);
unicode = 10CFE;
},
{
glyphname = u10CFF;
layers = (
{
layerId = "4958E06B-1FD7-4815-824D-973C628D14CF";
paths = (
{
closed = 1;
nodes = (
"865 679 LINE",
"1370 1 LINE",
"1147 1 LINE",
"781 550 LINE",
"781 9 LINE",
"608 9 LINE",
"608 548 LINE",
"216 1 LINE",
"8 1 LINE",
"499 671 LINE",
"52 671 LINE",
"46 889 LINE",
"481 885 LINE",
"44 1468 LINE",
"263 1468 LINE",
"608 983 LINE",
"608 1466 LINE",
"781 1466 LINE",
"781 992 LINE",
"1123 1468 LINE",
"1330 1468 LINE",
"895 890 LINE",
"1322 893 LINE",
"1328 679 LINE"
);
}
);
width = 1377;
}
);
unicode = 10CFF;
},
{
glyphname = uni10C80.ltr;
layers = (
{
layerId = "4958E06B-1FD7-4815-824D-973C628D14CF";
paths = (
{
closed = 1;
nodes = (
"20 1465 LINE",
"213 1465 LINE",
"797 958 LINE",
"797 760 LINE",
"199 760 LINE",
"199 4 LINE",
"20 4 LINE"
);
},
{
closed = 1;
nodes = (
"199 1285 LINE",
"199 916 LINE",
"633 916 LINE"
);
}
);
width = 1053;
}
);
},
{
glyphname = uni10C81.ltr;
layers = (
{
layerId = "4958E06B-1FD7-4815-824D-973C628D14CF";
paths = (
{
closed = 1;
nodes = (
"46 1463 LINE",
"231 1463 LINE",
"797 964 LINE",
"797 822 LINE",
"225 442 LINE",
"225 2 LINE",
"46 2 LINE"
);
},
{
closed = 1;
nodes = (
"225 1265 LINE",
"225 637 LINE",
"629 904 LINE"
);
}
);
width = 1053;
}
);
},
{
glyphname = uni10C82.ltr;
layers = (
{
layerId = "4958E06B-1FD7-4815-824D-973C628D14CF";
paths = (
{
closed = 1;
nodes = (
"694 639 LINE",
"232 -1 LINE",
"9 -1 LINE",
"573 759 LINE",
"49 1461 LINE",
"256 1461 LINE",
"688 869 LINE",
"1116 1461 LINE",
"1335 1461 LINE",
"808 756 LINE",
"1371 1 LINE",
"1163 1 LINE"
);
}
);
width = 1377;
}
);
},
{
glyphname = uni10C83.ltr;
layers = (
{
layerId = "4958E06B-1FD7-4815-824D-973C628D14CF";
paths = (
{
closed = 1;
nodes = (
"872.333 28.6667 OFFCURVE",
"829.167 60 OFFCURVE",
"789.5 92 CURVE SMOOTH",
"749.833 124 OFFCURVE",
"712.667 156.333 OFFCURVE",
"678 189 CURVE",
"505 0 LINE",
"110 152 LINE",
"174 282 LINE",
"453 165 LINE",
"572 302 LINE",
"521.333 366 OFFCURVE",
"482.833 432.833 OFFCURVE",
"456.5 502.5 CURVE SMOOTH",
"430.167 572.167 OFFCURVE",
"417 647.333 OFFCURVE",
"417 728 CURVE SMOOTH",
"417 810 OFFCURVE",
"430.333 885.667 OFFCURVE",
"457 955 CURVE SMOOTH",
"483.667 1024.33 OFFCURVE",
"522 1091 OFFCURVE",
"572 1155 CURVE",
"453 1292 LINE",
"174 1175 LINE",
"110 1307 LINE",
"505 1457 LINE",
"678 1268 LINE",
"712.667 1302.67 OFFCURVE",
"749.833 1335.5 OFFCURVE",
"789.5 1366.5 CURVE SMOOTH",
"829.167 1397.5 OFFCURVE",
"872.333 1428.33 OFFCURVE",
"919 1459 CURVE",
"1107 1459 LINE",
"1152.33 1429 OFFCURVE",
"1195.5 1397.67 OFFCURVE",
"1236.5 1365 CURVE SMOOTH",
"1277.5 1332.33 OFFCURVE",
"1315.33 1298.67 OFFCURVE",
"1350 1264 CURVE",
"1530 1457 LINE",
"1920 1307 LINE",
"1860 1175 LINE",
"1579 1292 LINE",
"1456 1151 LINE",
"1505.33 1087.67 OFFCURVE",
"1543.17 1021 OFFCURVE",
"1569.5 951 CURVE SMOOTH",
"1595.83 881 OFFCURVE",
"1609 806.667 OFFCURVE",
"1609 728 CURVE SMOOTH",
"1609 649.333 OFFCURVE",
"1595.83 575.333 OFFCURVE",
"1569.5 506 CURVE SMOOTH",
"1543.17 436.667 OFFCURVE",
"1505.33 370.667 OFFCURVE",
"1456 308 CURVE",
"1579 165 LINE",
"1860 282 LINE",
"1920 152 LINE",
"1530 0 LINE",
"1350 193 LINE",
"1315.33 159.667 OFFCURVE",
"1277.5 126.667 OFFCURVE",
"1236.5 94 CURVE SMOOTH",
"1195.5 61.3333 OFFCURVE",
"1151.67 29.3333 OFFCURVE",
"1105 -2 CURVE",
"919 -2 LINE"
);
},
{
closed = 1;
nodes = (
"1107.67 191 OFFCURVE",
"1183.17 256.833 OFFCURVE",
"1243.5 318.5 CURVE SMOOTH",
"1303.83 380.167 OFFCURVE",
"1349 444 OFFCURVE",
"1379 510 CURVE SMOOTH",
"1409 576 OFFCURVE",
"1424 648.667 OFFCURVE",
"1424 728 CURVE SMOOTH",
"1424 810 OFFCURVE",
"1409 883.167 OFFCURVE",
"1379 947.5 CURVE SMOOTH",
"1349 1011.83 OFFCURVE",
"1303.83 1076 OFFCURVE",
"1243.5 1140 CURVE SMOOTH",
"1183.17 1204 OFFCURVE",
"1107.67 1271 OFFCURVE",
"1017 1341 CURVE",
"1009 1336 LINE",
"917 1266 OFFCURVE",
"841.167 1200.17 OFFCURVE",
"781.5 1138.5 CURVE SMOOTH",
"721.833 1076.83 OFFCURVE",
"677 1012.67 OFFCURVE",
"647 946 CURVE SMOOTH",
"617 879.333 OFFCURVE",
"602 806.667 OFFCURVE",
"602 728 CURVE SMOOTH",
"602 649.333 OFFCURVE",
"617 576.833 OFFCURVE",
"647 510.5 CURVE SMOOTH",
"677 444.167 OFFCURVE",
"721.833 380.167 OFFCURVE",
"781.5 318.5 CURVE SMOOTH",
"841.167 256.833 OFFCURVE",
"917 191 OFFCURVE",
"1009 121 CURVE",
"1017 121 LINE"
);
}
);
width = 2030;
}
);
},
{
glyphname = uni10C84.ltr;
layers = (
{
layerId = "4958E06B-1FD7-4815-824D-973C628D14CF";
paths = (
{
closed = 1;
nodes = (
"528 1230 LINE",
"166 921 LINE",
"48 1043 LINE",
"544 1464 LINE",
"692 1464 LINE",
"1189 1043 LINE",
"1071 921 LINE",
"708 1230 LINE",
"708 1 LINE",
"528 1 LINE"
);
}
);
width = 1235;
}
);
},
{
glyphname = uni10C85.ltr;
layers = (
{
layerId = "4958E06B-1FD7-4815-824D-973C628D14CF";
paths = (
{
closed = 1;
nodes = (
"54 426 LINE",
"172 545 LINE",
"534 239 LINE",
"534 1234 LINE",
"172 927 LINE",
"68 1047 LINE",
"550 1468 LINE",
"698 1468 LINE",
"1181 1047 LINE",
"1077 927 LINE",
"714 1234 LINE",
"714 239 LINE",
"1077 545 LINE",
"1195 426 LINE",
"698 5 LINE",
"550 5 LINE"
);
}
);
width = 1235;
}
);
},
{
glyphname = uni10C86.ltr;
layers = (
{
layerId = "4958E06B-1FD7-4815-824D-973C628D14CF";
paths = (
{
closed = 1;
nodes = (
"427 493 LINE",
"427 2 LINE",
"248 2 LINE",
"248 1465 LINE",
"421 1465 LINE",
"1233 978 LINE",
"1233 1465 LINE",
"1412 1465 LINE",
"1412 2 LINE",
"1239 2 LINE"
);
},
{
closed = 1;
nodes = (
"427 1275 LINE",
"427 676 LINE",
"1233 202 LINE",
"1233 790 LINE"
);
}
);
width = 1658;
}
);
},
{
glyphname = uni10C87.ltr;
layers = (
{
layerId = "4958E06B-1FD7-4815-824D-973C628D14CF";
paths = (
{
closed = 1;
nodes = (
"528 742 LINE",
"114 958 LINE",
"192 1098 LINE",
"528 918 LINE",
"528 1467 LINE",
"720 1467 LINE",
"720 822 LINE",
"1135 613 LINE",
"1057 476 LINE",
"720 651 LINE",
"720 4 LINE",
"528 4 LINE"
);
}
);
width = 1249;
}
);
},
{
glyphname = uni10C88.ltr;
layers = (
{
layerId = "4958E06B-1FD7-4815-824D-973C628D14CF";
paths = (
{
closed = 1;
nodes = (
"693 645 LINE",
"231 4 LINE",
"8 4 LINE",
"552 737 LINE",
"78 859 LINE",
"109 981 LINE",
"485 882 LINE",
"48 1461 LINE",
"255 1461 LINE",
"687 875 LINE",
"1115 1461 LINE",
"1334 1461 LINE",
"831 793 LINE",
"1318 668 LINE",
"1270 552 LINE",
"889 652 LINE",
"1370 4 LINE",
"1162 4 LINE"
);
}
);
width = 1377;
}
);
},
{
glyphname = uni10C89.ltr;
layers = (
{
layerId = "4958E06B-1FD7-4815-824D-973C628D14CF";
paths = (
{
closed = 1;
nodes = (
"759.333 34.3333 OFFCURVE",
"701.667 66.3333 OFFCURVE",
"649 97 CURVE SMOOTH",
"596.333 127.667 OFFCURVE",
"549 157.667 OFFCURVE",
"507 187 CURVE",
"262 14 LINE",
"164 117 LINE",
"389 276 LINE",
"307 347.333 OFFCURVE",
"248.667 419.167 OFFCURVE",
"214 491.5 CURVE SMOOTH",
"179.333 563.833 OFFCURVE",
"162 643.667 OFFCURVE",
"162 731 CURVE SMOOTH",
"162 818.333 OFFCURVE",
"179.5 898.5 OFFCURVE",
"214.5 971.5 CURVE SMOOTH",
"249.5 1044.5 OFFCURVE",
"309 1117.33 OFFCURVE",
"393 1190 CURVE",
"164 1354 LINE",
"262 1457 LINE",
"511 1280 LINE",
"552.333 1309.33 OFFCURVE",
"597.833 1339 OFFCURVE",
"647.5 1369 CURVE SMOOTH",
"697.167 1399 OFFCURVE",
"752 1430 OFFCURVE",
"812 1462 CURVE",
"933 1352 LINE",
"875.667 1321.33 OFFCURVE",
"823.5 1292 OFFCURVE",
"776.5 1264 CURVE SMOOTH",
"729.5 1236 OFFCURVE",
"686.667 1209 OFFCURVE",
"648 1183 CURVE",
"899 1007 LINE",
"790 908 LINE",
"530 1093 LINE",
"463.333 1035.67 OFFCURVE",
"416.5 978.167 OFFCURVE",
"389.5 920.5 CURVE SMOOTH",
"362.5 862.833 OFFCURVE",
"349 799.667 OFFCURVE",
"349 731 CURVE SMOOTH",
"349 662.333 OFFCURVE",
"362.333 599 OFFCURVE",
"389 541 CURVE SMOOTH",
"415.667 483 OFFCURVE",
"460 426.333 OFFCURVE",
"522 371 CURVE",
"790 560 LINE",
"899 465 LINE",
"640 280 LINE",
"671.333 259.333 OFFCURVE",
"713.667 233.333 OFFCURVE",
"767 202 CURVE SMOOTH",
"813.667 174.667 OFFCURVE",
"865.667 146.333 OFFCURVE",
"923 117 CURVE",
"822 1 LINE"
);
}
);
width = 1121;
}
);
},
{
glyphname = uni10C8A.ltr;
layers = (
{
layerId = "4958E06B-1FD7-4815-824D-973C628D14CF";
paths = (
{
closed = 1;
nodes = (
"815.333 31.3333 OFFCURVE",
"764 59.6667 OFFCURVE",
"716 87 CURVE SMOOTH",
"668 114.333 OFFCURVE",
"624 141.333 OFFCURVE",
"584 168 CURVE",
"544 141.333 OFFCURVE",
"500.333 114.333 OFFCURVE",
"453 87 CURVE SMOOTH",
"405.667 59.6667 OFFCURVE",
"354.667 31.3333 OFFCURVE",
"300 2 CURVE",
"196 119 LINE",
"245.333 144.333 OFFCURVE",
"291.5 169 OFFCURVE",
"334.5 193 CURVE SMOOTH",
"377.5 217 OFFCURVE",
"417 240.667 OFFCURVE",
"453 264 CURVE",
"363 338 OFFCURVE",
"299 412.167 OFFCURVE",
"261 486.5 CURVE SMOOTH",
"223 560.833 OFFCURVE",
"204 642.5 OFFCURVE",
"204 731.5 CURVE SMOOTH",
"204 820.5 OFFCURVE",
"222.833 902.167 OFFCURVE",
"260.5 976.5 CURVE SMOOTH",
"298.167 1050.83 OFFCURVE",
"361 1125 OFFCURVE",
"449 1199 CURVE",
"413.667 1223 OFFCURVE",
"374 1248 OFFCURVE",
"330 1274 CURVE SMOOTH",
"263.333 1314 OFFCURVE",
"215.333 1341.33 OFFCURVE",
"186 1356 CURVE",
"308 1463 LINE",
"416.667 1404.33 OFFCURVE",
"508.667 1349.67 OFFCURVE",
"584 1299 CURVE",
"660 1350.33 OFFCURVE",
"752.667 1405 OFFCURVE",
"862 1463 CURVE",
"983 1353 LINE",
"931.667 1325 OFFCURVE",
"884 1298.33 OFFCURVE",
"840 1273 CURVE SMOOTH",
"796 1247.67 OFFCURVE",
"755.333 1222.33 OFFCURVE",
"718 1197 CURVE",
"807.333 1124.33 OFFCURVE",
"870.833 1050.5 OFFCURVE",
"908.5 975.5 CURVE SMOOTH",
"946.167 900.5 OFFCURVE",
"965 819 OFFCURVE",
"965 731 CURVE SMOOTH",
"965 643 OFFCURVE",
"945.833 561.667 OFFCURVE",
"907.5 487 CURVE SMOOTH",
"869.167 412.333 OFFCURVE",
"805.333 338 OFFCURVE",
"716 264 CURVE",
"752 241.333 OFFCURVE",
"791.167 218.167 OFFCURVE",
"833.5 194.5 CURVE SMOOTH",
"875.833 170.833 OFFCURVE",
"922.333 145.667 OFFCURVE",
"973 119 CURVE",
"870 2 LINE"
);
},
{
closed = 1;
nodes = (
"653.333 418 OFFCURVE",
"703 476.833 OFFCURVE",
"733 536.5 CURVE SMOOTH",
"763 596.167 OFFCURVE",
"778 661 OFFCURVE",
"778 731 CURVE SMOOTH",
"778 801 OFFCURVE",
"763.333 865 OFFCURVE",
"734 923 CURVE SMOOTH",
"704.667 981 OFFCURVE",
"654.667 1039.67 OFFCURVE",
"584 1099 CURVE",
"513.333 1041 OFFCURVE",
"463.667 982.5 OFFCURVE",
"435 923.5 CURVE SMOOTH",
"406.333 864.5 OFFCURVE",
"392 800.333 OFFCURVE",
"392 731 CURVE SMOOTH",
"392 661.667 OFFCURVE",
"406.667 597 OFFCURVE",
"436 537 CURVE SMOOTH",
"465.333 477 OFFCURVE",
"514.667 418 OFFCURVE",
"584 360 CURVE"
);
}
);
width = 1167;
}
);
},
{
glyphname = uni10C8B.ltr;
layers = (
{
layerId = "4958E06B-1FD7-4815-824D-973C628D14CF";
paths = (
{
closed = 1;
nodes = (
"572 256 LINE",
"430.667 333.333 OFFCURVE",
"329.333 409.667 OFFCURVE",
"268 485 CURVE SMOOTH",
"206.667 560.333 OFFCURVE",
"176 643.667 OFFCURVE",
"176 735 CURVE SMOOTH",
"176 829.667 OFFCURVE",
"206.833 914.5 OFFCURVE",
"268.5 989.5 CURVE SMOOTH",
"330.167 1064.5 OFFCURVE",
"431.333 1140.67 OFFCURVE",
"572 1218 CURVE",
"359 1360 LINE",
"475 1467 LINE",
"857 1204 LINE",
"743 1150 OFFCURVE",
"649.5 1098.67 OFFCURVE",
"576.5 1050 CURVE SMOOTH",
"503.5 1001.33 OFFCURVE",
"449.667 951.833 OFFCURVE",
"415 901.5 CURVE SMOOTH",
"380.333 851.167 OFFCURVE",
"363 795.667 OFFCURVE",
"363 735 CURVE SMOOTH",
"363 675.667 OFFCURVE",
"380.667 621 OFFCURVE",
"416 571 CURVE SMOOTH",
"451.333 521 OFFCURVE",
"505 471.667 OFFCURVE",
"577 423 CURVE SMOOTH",
"649 374.333 OFFCURVE",
"742.333 323.333 OFFCURVE",
"857 270 CURVE",
"475 6 LINE",
"359 115 LINE"
);
}
);
width = 1021;
}
);
},
{
glyphname = uni10C8C.ltr;
layers = (
{
layerId = "4958E06B-1FD7-4815-824D-973C628D14CF";
paths = (
{
closed = 1;
nodes = (
"565.333 77.3333 OFFCURVE",
"474.167 149.333 OFFCURVE",
"398.5 222 CURVE SMOOTH",
"322.833 294.667 OFFCURVE",
"264.5 372.5 OFFCURVE",
"223.5 455.5 CURVE SMOOTH",
"182.5 538.5 OFFCURVE",
"162 632 OFFCURVE",
"162 736 CURVE SMOOTH",
"162 839.333 OFFCURVE",
"182.5 932.833 OFFCURVE",
"223.5 1016.5 CURVE SMOOTH",
"264.5 1100.17 OFFCURVE",
"322.833 1178.5 OFFCURVE",
"398.5 1251.5 CURVE SMOOTH",
"474.167 1324.5 OFFCURVE",
"565.333 1396.33 OFFCURVE",
"672 1467 CURVE",
"859 1467 LINE",
"964.333 1396.33 OFFCURVE",
"1055.33 1324.5 OFFCURVE",
"1132 1251.5 CURVE SMOOTH",
"1208.67 1178.5 OFFCURVE",
"1267.5 1100.17 OFFCURVE",
"1308.5 1016.5 CURVE SMOOTH",
"1349.5 932.833 OFFCURVE",
"1370 839.333 OFFCURVE",
"1370 736 CURVE SMOOTH",
"1370 632.667 OFFCURVE",
"1349.5 539.333 OFFCURVE",
"1308.5 456 CURVE SMOOTH",
"1267.5 372.667 OFFCURVE",
"1208.67 294.667 OFFCURVE",
"1132 222 CURVE SMOOTH",
"1055.33 149.333 OFFCURVE",
"963.667 77.3333 OFFCURVE",
"857 6 CURVE",
"672 6 LINE"
);
},
{
closed = 1;
nodes = (
"961 1199.67 OFFCURVE",
"874.333 1278 OFFCURVE",
"779 1346 CURVE",
"752 1345 LINE",
"693.333 1302.33 OFFCURVE",
"643.333 1262 OFFCURVE",
"602 1224 CURVE SMOOTH",
"560.667 1186 OFFCURVE",
"523.667 1147.67 OFFCURVE",
"491 1109 CURVE",
"762 826 LINE",
"1039 1111 LINE"
);
},
{
closed = 1;
nodes = (
"1137 505.333 OFFCURVE",
"1155 547.833 OFFCURVE",
"1167 591.5 CURVE SMOOTH",
"1179 635.167 OFFCURVE",
"1185 683.333 OFFCURVE",
"1185 736 CURVE SMOOTH",
"1185 836 OFFCURVE",
"1161.67 926 OFFCURVE",
"1115 1006 CURVE",
"855 732 LINE",
"1113 464 LINE"
);
},
{
closed = 1;
nodes = (
"415 1000 LINE",
"369.667 922.667 OFFCURVE",
"347 834.333 OFFCURVE",
"347 735 CURVE SMOOTH",
"347 635.667 OFFCURVE",
"369.667 547 OFFCURVE",
"415 469 CURVE",
"670 732 LINE"
);
},
{
closed = 1;
nodes = (
"828.667 172 OFFCURVE",
"876.833 210 OFFCURVE",
"918.5 246 CURVE SMOOTH",
"960.167 282 OFFCURVE",
"997.667 318.333 OFFCURVE",
"1031 355 CURVE",
"762 637 LINE",
"497 360 LINE",
"530.333 321.333 OFFCURVE",
"568.667 283.333 OFFCURVE",
"612 246 CURVE SMOOTH",
"642 220.667 OFFCURVE",
"692 183 OFFCURVE",
"762 133 CURVE",
"774 132 LINE"
);
}
);
width = 1533;
}
);
},
{
glyphname = uni10C8D.ltr;
layers = (
{
layerId = "4958E06B-1FD7-4815-824D-973C628D14CF";
paths = (
{
closed = 1;
nodes = (
"963 891 LINE",
"876 1082 LINE",
"853.333 1138 OFFCURVE",
"831 1194.33 OFFCURVE",
"809 1251 CURVE",
"790 1251 LINE",
"772.667 1220.33 OFFCURVE",
"750 1164.67 OFFCURVE",
"722 1084 CURVE SMOOTH",
"718 1072.67 OFFCURVE",
"695 1012.33 OFFCURVE",
"653 903 CURVE SMOOTH",
"625 827 LINE",
"993 6 LINE",
"805 6 LINE",
"525 625 LINE",
"246 9 LINE",
"48 9 LINE",
"712 1461 LINE",
"885 1461 LINE",
"1561 3 LINE",
"1362 3 LINE"
);
}
);
width = 1596;
}
);
},
{
glyphname = uni10C8E.ltr;
layers = (
{
layerId = "4958E06B-1FD7-4815-824D-973C628D14CF";
paths = (
{
closed = 1;
nodes = (
"528 478 LINE",
"114 675 LINE",
"192 804 LINE",
"528 645 LINE",
"528 910 LINE",
"114 1107 LINE",
"192 1236 LINE",
"528 1077 LINE",
"528 1467 LINE",
"720 1467 LINE",
"720 986 LINE",
"1135 787 LINE",
"1057 662 LINE",
"720 821 LINE",
"720 554 LINE",
"1135 356 LINE",
"1057 228 LINE",
"720 389 LINE",
"720 6 LINE",
"528 6 LINE"
);
}
);
width = 1243;
}
);
},
{
glyphname = uni10C8F.ltr;
layers = (
{
layerId = "4958E06B-1FD7-4815-824D-973C628D14CF";
paths = (
{
closed = 1;
nodes = (
"709 277 LINE",
"373 3 LINE",
"130 3 LINE",
"590 370 LINE",
"102 759 LINE",
"590 1123 LINE",
"130 1464 LINE",
"373 1464 LINE",
"709 1209 LINE",
"1049 1464 LINE",
"1288 1464 LINE",
"827 1123 LINE",
"1314 759 LINE",
"827 370 LINE",
"1288 3 LINE",
"1045 3 LINE"
);
},
{
closed = 1;
nodes = (
"709 1030 LINE",
"351 761 LINE",
"709 470 LINE",
"1069 761 LINE"
);
}
);
width = 1415;
}
);
},
{
glyphname = uni10C90.ltr;
layers = (
{
layerId = "4958E06B-1FD7-4815-824D-973C628D14CF";
paths = (
{
closed = 1;
nodes = (
"528 989 LINE",
"114 1201 LINE",
"192 1340 LINE",
"528 1169 LINE",
"528 1465 LINE",
"720 1465 LINE",
"720 1071 LINE",
"1135 857 LINE",
"1057 722 LINE",
"720 893 LINE",
"720 4 LINE",
"528 4 LINE"
);
}
);
width = 1249;
}
);
},
{
glyphname = uni10C91.ltr;
layers = (
{
layerId = "4958E06B-1FD7-4815-824D-973C628D14CF";
paths = (
{
closed = 1;
nodes = (
"498 1301 LINE",
"114 1483 LINE",
"192 1610 LINE",
"1135 1168 LINE",
"1057 1042 LINE",
"694 1211 LINE",
"694 3 LINE",
"498 3 LINE"
);
}
);
width = 1249;
}
);
},
{
glyphname = uni10C92.ltr;
layers = (
{
layerId = "4958E06B-1FD7-4815-824D-973C628D14CF";
paths = (
{
closed = 1;
nodes = (
"62 1463 LINE",
"213 1463 LINE",
"823 896 LINE",
"713 782 LINE",
"239 1225 LINE",
"239 0 LINE",
"62 0 LINE"
);
}
);
width = 1089;
}
);
},
{
glyphname = uni10C93.ltr;
layers = (
{
layerId = "4958E06B-1FD7-4815-824D-973C628D14CF";
paths = (
{
closed = 1;
nodes = (
"112 731 LINE",
"591 1463 LINE",
"774 1463 LINE",
"1255 731 LINE",
"774 0 LINE",
"591 0 LINE"
);
},
{
closed = 1;
nodes = (
"682 1303 LINE",
"314 731 LINE",
"682 162 LINE",
"1056 731 LINE"
);
}
);
width = 1363;
}
);
},
{
glyphname = uni10C94.ltr;
layers = (
{
layerId = "4958E06B-1FD7-4815-824D-973C628D14CF";
paths = (
{
closed = 1;
nodes = (
"48 425 LINE",
"166 546 LINE",
"528 236 LINE",
"528 1467 LINE",
"692 1467 LINE",
"1189 1046 LINE",
"1071 924 LINE",
"708 1233 LINE",
"708 4 LINE",
"544 4 LINE"
);
}
);
width = 1221;
}
);
},
{
glyphname = uni10C95.ltr;
layers = (
{
layerId = "4958E06B-1FD7-4815-824D-973C628D14CF";
paths = (
{
closed = 1;
nodes = (
"478 5 LINE",
"64 167 LINE",
"130 280 LINE",
"398 170 LINE",
"812 741 LINE",
"410 1297 LINE",
"142 1188 LINE",
"76 1301 LINE",
"490 1466 LINE",
"904 874 LINE",
"1317 1466 LINE",
"1731 1301 LINE",
"1663 1188 LINE",
"1399 1297 LINE",
"994 741 LINE",
"1411 170 LINE",
"1675 280 LINE",
"1743 167 LINE",
"1329 5 LINE",
"904 608 LINE"
);
}
);
width = 1808;
}
);
},
{
glyphname = uni10C96.ltr;
layers = (
{
layerId = "4958E06B-1FD7-4815-824D-973C628D14CF";
paths = (
{
closed = 1;
nodes = (
"937 943 LINE SMOOTH",
"905 1014.33 OFFCURVE",
"879.667 1073 OFFCURVE",
"861 1119 CURVE SMOOTH",
"833 1187 OFFCURVE",
"813.333 1237.33 OFFCURVE",
"802 1270 CURVE",
"794 1270 LINE",
"779.333 1224.67 OFFCURVE",
"762 1178 OFFCURVE",
"742 1130 CURVE SMOOTH",
"722 1082 OFFCURVE",
"700 1029.33 OFFCURVE",
"676 972 CURVE",
"1113 -1 LINE",
"933 -1 LINE",
"584 772 LINE",
"465 508 LINE",
"696 2 LINE",
"520 2 LINE",
"377 317 LINE",
"234 -1 LINE",
"36 -1 LINE",
"710 1463 LINE",
"881 1463 LINE",
"1563 3 LINE",
"1364 3 LINE"
);
}
);
width = 1596;
}
);
},
{
glyphname = uni10C97.ltr;
layers = (
{
layerId = "4958E06B-1FD7-4815-824D-973C628D14CF";
paths = (
{
closed = 1;
nodes = (
"568 76.3333 OFFCURVE",
"478.5 148.333 OFFCURVE",
"403.5 221 CURVE SMOOTH",
"328.5 293.667 OFFCURVE",
"270.833 371.5 OFFCURVE",
"230.5 454.5 CURVE SMOOTH",
"190.167 537.5 OFFCURVE",
"170 631.667 OFFCURVE",
"170 737 CURVE SMOOTH",
"170 839 OFFCURVE",
"190.167 931.833 OFFCURVE",
"230.5 1015.5 CURVE SMOOTH",
"270.833 1099.17 OFFCURVE",
"328.5 1177.5 OFFCURVE",
"403.5 1250.5 CURVE SMOOTH",
"478.5 1323.5 OFFCURVE",
"568 1395.33 OFFCURVE",
"672 1466 CURVE",
"859 1466 LINE",
"961.667 1395.33 OFFCURVE",
"1051 1323.5 OFFCURVE",
"1127 1250.5 CURVE SMOOTH",
"1203 1177.5 OFFCURVE",
"1261.17 1099.17 OFFCURVE",
"1301.5 1015.5 CURVE SMOOTH",
"1341.83 931.833 OFFCURVE",
"1362 839 OFFCURVE",
"1362 737 CURVE SMOOTH",
"1362 632.333 OFFCURVE",
"1341.5 538.333 OFFCURVE",
"1300.5 455 CURVE SMOOTH",
"1259.5 371.667 OFFCURVE",
"1201.33 293.667 OFFCURVE",
"1126 221 CURVE SMOOTH",
"1050.67 148.333 OFFCURVE",
"961 76.3333 OFFCURVE",
"857 5 CURVE",
"672 5 LINE"
);
},
{
closed = 1;
nodes = (
"1157 558.333 OFFCURVE",
"1177 643 OFFCURVE",
"1177 737 CURVE SMOOTH",
"1177 818.333 OFFCURVE",
"1162 891.833 OFFCURVE",
"1132 957.5 CURVE SMOOTH",
"1102 1023.17 OFFCURVE",
"1056.67 1086.67 OFFCURVE",
"996 1148 CURVE SMOOTH",
"935.333 1209.33 OFFCURVE",
"859.667 1274.67 OFFCURVE",
"769 1344 CURVE",
"769 1344 OFFCURVE",
"769 1344 OFFCURVE",
"762 1344 CURVE",
"706 1301.33 OFFCURVE",
"656 1261 OFFCURVE",
"612 1223 CURVE SMOOTH",
"568 1185 OFFCURVE",
"529.667 1147.33 OFFCURVE",
"497 1110 CURVE",
"1117 483 LINE"
);
},
{
closed = 1;
nodes = (
"826.667 170.667 OFFCURVE",
"875.5 210.833 OFFCURVE",
"918.5 248.5 CURVE SMOOTH",
"961.5 286.167 OFFCURVE",
"999.667 324.333 OFFCURVE",
"1033 363 CURVE",
"419 1005 LINE",
"371.667 921 OFFCURVE",
"348 827.667 OFFCURVE",
"348 725 CURVE SMOOTH",
"348 613 OFFCURVE",
"364.167 533.333 OFFCURVE",
"396.5 486 CURVE SMOOTH",
"428.833 438.667 OFFCURVE",
"474.833 384.667 OFFCURVE",
"534.5 324 CURVE SMOOTH",
"594.167 263.333 OFFCURVE",
"670 198.333 OFFCURVE",
"762 129 CURVE",
"772 128 LINE"
);
}
);
width = 1531;
}
);
},
{
glyphname = uni10C98.ltr;
layers = (
{
layerId = "4958E06B-1FD7-4815-824D-973C628D14CF";
paths = (
{
closed = 1;
nodes = (
"204 1465 LINE",
"394 1465 LINE",
"951 1108 LINE",
"951 942 LINE",
"580 715 LINE",
"951 541 LINE",
"951 378 LINE",
"394 4 LINE",
"204 4 LINE"
);
},
{
closed = 1;
nodes = (
"384 1291 LINE",
"384 782 LINE",
"784 1022 LINE"
);
},
{
closed = 1;
nodes = (
"384 640 LINE",
"384 172 LINE",
"784 448 LINE"
);
}
);
width = 1210;
}
);
},
{
glyphname = uni10C99.ltr;
layers = (
{
layerId = "4958E06B-1FD7-4815-824D-973C628D14CF";
paths = (
{
closed = 1;
nodes = (
"623.667 86.6667 OFFCURVE",
"492.833 167.333 OFFCURVE",
"396.5 242 CURVE SMOOTH",
"300.167 316.667 OFFCURVE",
"230.667 393 OFFCURVE",
"188 471 CURVE SMOOTH",
"145.333 549 OFFCURVE",
"124 635 OFFCURVE",
"124 729 CURVE SMOOTH",
"124 822.333 OFFCURVE",
"145 908.333 OFFCURVE",
"187 987 CURVE SMOOTH",
"229 1065.67 OFFCURVE",
"297.5 1143 OFFCURVE",
"392.5 1219 CURVE SMOOTH",
"487.5 1295 OFFCURVE",
"616.333 1375.67 OFFCURVE",
"779 1461 CURVE",
"901 1352 LINE",
"789.667 1292 OFFCURVE",
"696.167 1236.33 OFFCURVE",
"620.5 1185 CURVE SMOOTH",
"544.833 1133.67 OFFCURVE",
"484.333 1084.67 OFFCURVE",
"439 1038 CURVE SMOOTH",
"393.667 991.333 OFFCURVE",
"361 942.667 OFFCURVE",
"341 892 CURVE SMOOTH",
"321 841.333 OFFCURVE",
"311 787 OFFCURVE",
"311 729 CURVE SMOOTH",
"311 649.667 OFFCURVE",
"329.667 578.167 OFFCURVE",
"367 514.5 CURVE SMOOTH",
"404.333 450.833 OFFCURVE",
"465.333 387 OFFCURVE",
"550 323 CURVE SMOOTH",
"634.667 259 OFFCURVE",
"748.333 190 OFFCURVE",
"891 116 CURVE",
"789 0 LINE"
);
}
);
width = 1071;
}
);
},
{
glyphname = uni10C9A.ltr;
layers = (
{
layerId = "4958E06B-1FD7-4815-824D-973C628D14CF";
paths = (
{
closed = 1;
nodes = (
"766.667 78.3333 OFFCURVE",
"633.667 153.667 OFFCURVE",
"533 227 CURVE SMOOTH",
"432.333 300.333 OFFCURVE",
"359 378.167 OFFCURVE",
"313 460.5 CURVE SMOOTH",
"267 542.833 OFFCURVE",
"244 632.333 OFFCURVE",
"244 729 CURVE SMOOTH",
"244 825 OFFCURVE",
"267.333 914 OFFCURVE",
"314 996 CURVE SMOOTH",
"360.667 1078 OFFCURVE",
"433.667 1157 OFFCURVE",
"533 1233 CURVE SMOOTH",
"631.667 1307 OFFCURVE",
"764.667 1383.33 OFFCURVE",
"932 1462 CURVE",
"1111 1462 LINE",
"1111 1 LINE",
"932 1 LINE"
);
},
{
closed = 1;
nodes = (
"810 1235.33 OFFCURVE",
"712.333 1175 OFFCURVE",
"639 1117 CURVE SMOOTH",
"565.667 1059.67 OFFCURVE",
"512.833 999.667 OFFCURVE",
"480.5 937 CURVE SMOOTH",
"448.167 874.333 OFFCURVE",
"432 805 OFFCURVE",
"432 729 CURVE SMOOTH",
"432 653.667 OFFCURVE",
"449 584 OFFCURVE",
"483 520 CURVE SMOOTH",
"517 456.667 OFFCURVE",
"570.333 398 OFFCURVE",
"643 344 CURVE SMOOTH",
"715.667 290 OFFCURVE",
"812 233.667 OFFCURVE",
"932 175 CURVE",
"932 1298 LINE"
);
}
);
width = 1261;
}
);
},
{
glyphname = uni10C9B.ltr;
layers = (
{
layerId = "4958E06B-1FD7-4815-824D-973C628D14CF";
paths = (
{
closed = 1;
nodes = (
"524 82.3333 OFFCURVE",
"424.667 155.5 OFFCURVE",
"346 226.5 CURVE SMOOTH",
"267.333 297.5 OFFCURVE",
"208.333 372.833 OFFCURVE",
"169 452.5 CURVE SMOOTH",
"129.667 532.167 OFFCURVE",
"110 623.333 OFFCURVE",
"110 726 CURVE SMOOTH",
"110 822.667 OFFCURVE",
"127.333 910 OFFCURVE",
"162 988 CURVE SMOOTH",
"196.667 1066 OFFCURVE",
"253.167 1143.5 OFFCURVE",
"331.5 1220.5 CURVE SMOOTH",
"409.833 1297.5 OFFCURVE",
"514 1380 OFFCURVE",
"644 1468 CURVE",
"1115 1110 LINE",
"991 1010 LINE",
"648 1271 LINE",
"560 1209 OFFCURVE",
"490.667 1150.33 OFFCURVE",
"440 1095 CURVE SMOOTH",
"389.333 1039.67 OFFCURVE",
"353 982.833 OFFCURVE",
"331 924.5 CURVE SMOOTH",
"309 866.167 OFFCURVE",
"298 800 OFFCURVE",
"298 726 CURVE SMOOTH",
"298 652 OFFCURVE",
"309 584.667 OFFCURVE",
"331 524 CURVE SMOOTH",
"353 463.333 OFFCURVE",
"388.167 406.167 OFFCURVE",
"436.5 352.5 CURVE SMOOTH",
"484.833 298.833 OFFCURVE",
"548.667 244 OFFCURVE",
"628 188 CURVE",
"991 465 LINE",
"1115 365 LINE",
"644 7 LINE"
);
}
);
width = 1263;
}
);
},
{
glyphname = uni10C9C.ltr;
layers = (
{
layerId = "4958E06B-1FD7-4815-824D-973C628D14CF";
paths = (
{
closed = 1;
nodes = (
"487.333 82.6667 OFFCURVE",
"388 158.667 OFFCURVE",
"310 232 CURVE SMOOTH",
"231.333 304.667 OFFCURVE",
"172.333 380.667 OFFCURVE",
"133 460 CURVE SMOOTH",
"93.6667 539.333 OFFCURVE",
"74 625.333 OFFCURVE",
"74 718 CURVE SMOOTH",
"74 808.667 OFFCURVE",
"91.3333 893.667 OFFCURVE",
"126 973 CURVE SMOOTH",
"160.667 1052.33 OFFCURVE",
"217.333 1131.33 OFFCURVE",
"296 1210 CURVE SMOOTH",
"374.667 1289.33 OFFCURVE",
"478.667 1374.67 OFFCURVE",
"608 1466 CURVE",
"728 1343 LINE",
"610.667 1261.67 OFFCURVE",
"519 1188.33 OFFCURVE",
"453 1123 CURVE SMOOTH",
"387 1057.67 OFFCURVE",
"339.667 993 OFFCURVE",
"311 929 CURVE SMOOTH",
"282.333 865 OFFCURVE",
"268 794.667 OFFCURVE",
"268 718 CURVE SMOOTH",
"268 620 OFFCURVE",
"292.833 530.167 OFFCURVE",
"342.5 448.5 CURVE SMOOTH",
"392.167 366.833 OFFCURVE",
"475.333 282 OFFCURVE",
"592 194 CURVE",
"912 457 LINE",
"628 712 LINE",
"748 815 LINE",
"1155 445 LINE",
"608 4 LINE"
);
}
);
width = 1311;
}
);
},
{
glyphname = uni10C9D.ltr;
layers = (
{
layerId = "4958E06B-1FD7-4815-824D-973C628D14CF";
paths = (
{
closed = 1;
nodes = (
"562 570 LINE",
"152 918 LINE",
"642 1461 LINE",
"789 1343 LINE",
"397 918 LINE",
"809 572 LINE",
"351 -2 LINE",
"186 116 LINE"
);
}
);
width = 961;
}
);
},
{
glyphname = uni10C9E.ltr;
layers = (
{
layerId = "4958E06B-1FD7-4815-824D-973C628D14CF";
paths = (
{
closed = 1;
nodes = (
"1030 744 LINE",
"474 3 LINE",
"246 3 LINE",
"822 754 LINE",
"264 1464 LINE",
"482 1464 LINE",
"1030 748 LINE",
"1030 1463 LINE",
"1209 1463 LINE",
"1209 2 LINE",
"1030 2 LINE"
);
}
);
width = 1243;
}
);
},
{
glyphname = uni10C9F.ltr;
layers = (
{
layerId = "4958E06B-1FD7-4815-824D-973C628D14CF";
paths = (
{
closed = 1;
nodes = (
"630.333 55 OFFCURVE",
"564.333 101.667 OFFCURVE",
"507 147 CURVE SMOOTH",
"449.667 192.333 OFFCURVE",
"399.667 238 OFFCURVE",
"357 284 CURVE",
"171 147 LINE",
"75 239 LINE",
"275 384 LINE",
"205.667 484.667 OFFCURVE",
"171 597 OFFCURVE",
"171 721 CURVE SMOOTH",
"171 785 OFFCURVE",
"179 845.333 OFFCURVE",
"195 902 CURVE SMOOTH",
"211 958 OFFCURVE",
"237 1013 OFFCURVE",
"273 1067 CURVE",
"81 1207 LINE",
"177 1302 LINE",
"353 1172 LINE",
"393.667 1218.67 OFFCURVE",
"443.167 1266 OFFCURVE",
"501.5 1314 CURVE SMOOTH",
"559.833 1362 OFFCURVE",
"627.667 1413 OFFCURVE",
"705 1467 CURVE",
"825 1346 LINE",
"749 1293.33 OFFCURVE",
"683.667 1244.33 OFFCURVE",
"629 1199 CURVE SMOOTH",
"574.333 1153 OFFCURVE",
"529 1109.67 OFFCURVE",
"493 1069 CURVE",
"599 990 LINE",
"505 898 LINE",
"417 961 LINE",
"378.333 887.667 OFFCURVE",
"359 807.667 OFFCURVE",
"359 721 CURVE SMOOTH",
"359 637.667 OFFCURVE",
"377 560 OFFCURVE",
"413 488 CURVE",
"505 554 LINE",
"599 463 LINE",
"487 379 LINE",
"512.333 348.333 OFFCURVE",
"541.333 318.167 OFFCURVE",
"574 288.5 CURVE SMOOTH",
"606.667 258.833 OFFCURVE",
"644.333 227.667 OFFCURVE",
"687 195 CURVE",
"1001 453 LINE",
"717 706 LINE",
"845 810 LINE",
"1252 446 LINE",
"1242 441 LINE",
"1248 440 LINE",
"705 7 LINE"
);
}
);
width = 1443;
}
);
},
{
glyphname = uni10CA0.ltr;
layers = (
{
layerId = "4958E06B-1FD7-4815-824D-973C628D14CF";
paths = (
{
closed = 1;
nodes = (
"301 4 LINE",
"122 4 LINE",
"122 1465 LINE",
"283 1465 LINE",
"839 1041 LINE",
"729 937 LINE",
"301 1251 LINE",
"301 960 LINE",
"839 552 LINE",
"729 449 LINE",
"301 760 LINE",
"301 472 LINE",
"839 68 LINE",
"729 -36 LINE",
"301 274 LINE"
);
}
);
width = 1092;
}
);
},
{
glyphname = uni10CA1.ltr;
layers = (
{
layerId = "4958E06B-1FD7-4815-824D-973C628D14CF";
paths = (
{
closed = 1;
nodes = (
"1283.33 142.333 OFFCURVE",
"1248.33 113.667 OFFCURVE",
"1223 95 CURVE SMOOTH",
"1167 52.3333 OFFCURVE",
"1128.33 24 OFFCURVE",
"1107 10 CURVE",
"911 10 LINE",
"873.667 37.3333 OFFCURVE",
"837.667 65.6667 OFFCURVE",
"803 95 CURVE SMOOTH",
"769.667 123.667 OFFCURVE",
"736.667 152.333 OFFCURVE",
"704 181 CURVE",
"455 -48 LINE",
"327 56 LINE",
"598 288 LINE",
"511.333 387.333 OFFCURVE",
"455.667 491.333 OFFCURVE",
"431 600 CURVE",
"162 459 LINE",
"78 593 LINE",
"415 750 LINE",
"416.333 820.667 OFFCURVE",
"427.667 891.667 OFFCURVE",
"449 963 CURVE SMOOTH",
"470.333 1034.33 OFFCURVE",
"512 1103.67 OFFCURVE",
"574 1171 CURVE",
"568 1176 LINE",
"305 1059 LINE",
"228 1195 LINE",
"911 1472 LINE",
"1109 1472 LINE",
"1792 1195 LINE",
"1715 1059 LINE",
"1454 1176 LINE",
"1450 1171 LINE",
"1511.33 1103 OFFCURVE",
"1554.33 1033.33 OFFCURVE",
"1579 962 CURVE SMOOTH",
"1604.33 891.333 OFFCURVE",
"1617.67 820.667 OFFCURVE",
"1619 750 CURVE",
"1956 593 LINE",
"1874 459 LINE",
"1605 600 LINE",
"1590.33 542.667 OFFCURVE",
"1568.83 488.5 OFFCURVE",
"1540.5 437.5 CURVE SMOOTH",
"1512.17 386.5 OFFCURVE",
"1477.33 336.667 OFFCURVE",
"1436 288 CURVE",
"1695 56 LINE",
"1565 -48 LINE",
"1328 181 LINE"
);
},
{
closed = 1;
nodes = (
"1141.67 225.667 OFFCURVE",
"1243.5 318 OFFCURVE",
"1316.5 414 CURVE SMOOTH",
"1389.5 510 OFFCURVE",
"1426 622.333 OFFCURVE",
"1426 751 CURVE SMOOTH",
"1426 875 OFFCURVE",
"1392.17 986 OFFCURVE",
"1324.5 1084 CURVE SMOOTH",
"1256.83 1182 OFFCURVE",
"1152.33 1267.33 OFFCURVE",
"1011 1340 CURVE",
"1003 1340 LINE",
"860.333 1267.33 OFFCURVE",
"755.5 1182 OFFCURVE",
"688.5 1084 CURVE SMOOTH",
"621.5 986 OFFCURVE",
"588 875 OFFCURVE",
"588 751 CURVE SMOOTH",
"588 623 OFFCURVE",
"624.167 510.833 OFFCURVE",
"696.5 414.5 CURVE SMOOTH",
"768.833 318.167 OFFCURVE",
"871 225.667 OFFCURVE",
"1003 137 CURVE",
"1011 137 LINE"
);
}
);
width = 2048;
}
);
},
{
glyphname = uni10CA2.ltr;
layers = (
{
layerId = "4958E06B-1FD7-4815-824D-973C628D14CF";
paths = (
{
closed = 1;
nodes = (
"1222 454 LINE",
"438 938 LINE",
"438 5 LINE",
"259 5 LINE",
"259 1466 LINE",
"438 1466 LINE",
"438 1124 LINE",
"1222 629 LINE",
"1222 1466 LINE",
"1402 1466 LINE",
"1402 5 LINE",
"1222 5 LINE"
);
}
);
width = 1658;
}
);
},
{
glyphname = uni10CA3.ltr;
layers = (
{
layerId = "4958E06B-1FD7-4815-824D-973C628D14CF";
paths = (
{
closed = 1;
nodes = (
"188 1065 LINE",
"1109 520 LINE",
"1027 373 LINE",
"104 917 LINE"
);
}
);
width = 1221;
}
);
},
{
glyphname = uni10CA4.ltr;
layers = (
{
layerId = "4958E06B-1FD7-4815-824D-973C628D14CF";
paths = (
{
closed = 1;
nodes = (
"849 939 LINE SMOOTH",
"805 1048.33 OFFCURVE",
"781.667 1106.33 OFFCURVE",
"779 1113 CURVE SMOOTH",
"763 1150.33 OFFCURVE",
"745.667 1200.67 OFFCURVE",
"727 1264 CURVE",
"719 1264 LINE",
"705.667 1218 OFFCURVE",
"688.333 1167.67 OFFCURVE",
"667 1113 CURVE SMOOTH",
"649.667 1066.33 OFFCURVE",
"627.333 1009.67 OFFCURVE",
"600 943 CURVE SMOOTH",
"215 1 LINE",
"26 1 LINE",
"626 1461 LINE",
"807 1461 LINE",
"1420 1 LINE",
"1230 1 LINE"
);
}
);
width = 1443;
}
);
},
{
glyphname = uni10CA5.ltr;
layers = (
{
layerId = "4958E06B-1FD7-4815-824D-973C628D14CF";
paths = (
{
closed = 1;
nodes = (
"248 1465 LINE",
"427 1465 LINE",
"427 4 LINE",
"248 4 LINE"
);
}
);
width = 679;
}
);
},
{
glyphname = uni10CA6.ltr;
layers = (
{
layerId = "4958E06B-1FD7-4815-824D-973C628D14CF";
paths = (
{
closed = 1;
nodes = (
"70 1464 LINE",
"249 1464 LINE",
"249 803 LINE",
"745 1461 LINE",
"889 1371 LINE",
"249 546 LINE",
"249 3 LINE",
"70 3 LINE"
);
}
);
width = 1129;
}
);
},
{
glyphname = uni10CA7.ltr;
layers = (
{
layerId = "4958E06B-1FD7-4815-824D-973C628D14CF";
paths = (
{
closed = 1;
nodes = (
"776 840 LINE",
"372 1243 LINE",
"154 1032 LINE",
"40 1141 LINE",
"376 1461 LINE",
"776 1058 LINE",
"776 1463 LINE",
"956 1463 LINE",
"956 1060 LINE",
"1355 1461 LINE",
"1689 1141 LINE",
"1577 1032 LINE",
"1361 1243 LINE",
"956 842 LINE",
"956 2 LINE",
"776 2 LINE"
);
}
);
width = 1726;
}
);
},
{
glyphname = uni10CA8.ltr;
layers = (
{
layerId = "4958E06B-1FD7-4815-824D-973C628D14CF";
paths = (
{
closed = 1;
nodes = (
"445 297 LINE",
"231 2 LINE",
"8 2 LINE",
"581 765 LINE",
"48 1461 LINE",
"255 1461 LINE",
"687 891 LINE",
"819 1074 LINE",
"554 1461 LINE",
"745 1461 LINE",
"925 1205 LINE",
"1115 1461 LINE",
"1334 1461 LINE",
"796 755 LINE",
"1370 2 LINE",
"1162 2 LINE",
"703 642 LINE",
"547 428 LINE",
"843 0 LINE",
"651 0 LINE"
);
}
);
width = 1377;
}
);
},
{
glyphname = uni10CA9.ltr;
layers = (
{
layerId = "4958E06B-1FD7-4815-824D-973C628D14CF";
paths = (
{
closed = 1;
nodes = (
"531 766 LINE",
"52 1377 LINE",
"163 1461 LINE",
"733 1322 LINE",
"691 1198 LINE",
"287 1301 LINE",
"627 881 LINE",
"1087 1461 LINE",
"1300 1461 LINE",
"734 750 LINE",
"1330 3 LINE",
"1130 3 LINE",
"635 640 LINE",
"249 161 LINE",
"649 261 LINE",
"699 135 LINE",
"127 2 LINE",
"10 124 LINE"
);
}
);
width = 1433;
}
);
},
{
glyphname = uni10CAA.ltr;
layers = (
{
layerId = "4958E06B-1FD7-4815-824D-973C628D14CF";
paths = (
{
closed = 1;
nodes = (
"872 330 LINE",
"424 1 LINE",
"248 1 LINE",
"248 1462 LINE",
"424 1462 LINE",
"872 1135 LINE",
"1321 1462 LINE",
"1496 1462 LINE",
"1496 1 LINE",
"1321 1 LINE"
);
},
{
closed = 1;
nodes = (
"872 945 LINE",
"428 1260 LINE",
"428 203 LINE",
"872 517 LINE",
"1317 203 LINE",
"1317 1260 LINE"
);
}
);
width = 1764;
}
);
},
{
glyphname = uni10CAB.ltr;
layers = (
{
layerId = "4958E06B-1FD7-4815-824D-973C628D14CF";
paths = (
{
closed = 1;
nodes = (
"960 634 LINE",
"408 0 LINE",
"244 0 LINE",
"244 1461 LINE",
"408 1461 LINE",
"960 840 LINE",
"1507 1461 LINE",
"1669 1461 LINE",
"1669 0 LINE",
"1507 0 LINE"
);
},
{
closed = 1;
nodes = (
"419 235 LINE",
"862 736 LINE",
"416 1246 LINE"
);
},
{
closed = 1;
nodes = (
"1515 230 LINE",
"1507 1221 LINE",
"1056 739 LINE"
);
}
);
width = 1900;
}
);
},
{
glyphname = uni10CAC.ltr;
layers = (
{
layerId = "4958E06B-1FD7-4815-824D-973C628D14CF";
paths = (
{
closed = 1;
nodes = (
"1064.33 156.333 OFFCURVE",
"1027 124.333 OFFCURVE",
"987 93 CURVE SMOOTH",
"956.333 69.6667 OFFCURVE",
"913.667 38.6667 OFFCURVE",
"859 0 CURVE",
"674 0 LINE",
"619.333 38.6667 OFFCURVE",
"576.667 69.6667 OFFCURVE",
"546 93 CURVE SMOOTH",
"506 124.333 OFFCURVE",
"469 156.333 OFFCURVE",
"435 189 CURVE",
"212 -28 LINE",
"82 76 LINE",
"331 299 LINE",
"281 363 OFFCURVE",
"242 429.833 OFFCURVE",
"214 499.5 CURVE SMOOTH",
"186 569.167 OFFCURVE",
"172 646 OFFCURVE",
"172 730 CURVE SMOOTH",
"172 812.667 OFFCURVE",
"186 889.667 OFFCURVE",
"214 961 CURVE SMOOTH",
"242 1033 OFFCURVE",
"281 1100.33 OFFCURVE",
"331 1163 CURVE",
"84 1384 LINE",
"212 1490 LINE",
"435 1273 LINE",
"468.333 1305.67 OFFCURVE",
"505.167 1337.33 OFFCURVE",
"545.5 1368 CURVE SMOOTH",
"585.833 1398.67 OFFCURVE",
"628.667 1430 OFFCURVE",
"674 1462 CURVE",
"861 1462 LINE",
"906.333 1431.33 OFFCURVE",
"948.667 1400.67 OFFCURVE",
"988 1370 CURVE SMOOTH",
"1027.33 1339.33 OFFCURVE",
"1064.33 1307 OFFCURVE",
"1099 1273 CURVE",
"1322 1490 LINE",
"1452 1384 LINE",
"1205 1165 LINE",
"1255 1101 OFFCURVE",
"1294 1033.33 OFFCURVE",
"1322 962 CURVE SMOOTH",
"1350 891.333 OFFCURVE",
"1364 814 OFFCURVE",
"1364 730 CURVE SMOOTH",
"1364.67 646.667 OFFCURVE",
"1351 570 OFFCURVE",
"1323 500 CURVE SMOOTH",
"1295 428.667 OFFCURVE",
"1255.67 361.667 OFFCURVE",
"1205 299 CURVE",
"1452 76 LINE",
"1322 -28 LINE",
"1099 189 LINE"
);
},
{
closed = 1;
nodes = (
"861.667 193 OFFCURVE",
"937.333 257.833 OFFCURVE",
"998 319.5 CURVE SMOOTH",
"1058.67 381.167 OFFCURVE",
"1104 444.667 OFFCURVE",
"1134 510 CURVE SMOOTH",
"1164 575.333 OFFCURVE",
"1179 648.667 OFFCURVE",
"1179 730 CURVE SMOOTH",
"1179 811.333 OFFCURVE",
"1164 885 OFFCURVE",
"1134 951 CURVE SMOOTH",
"1104 1017 OFFCURVE",
"1058.67 1081.17 OFFCURVE",
"998 1143.5 CURVE SMOOTH",
"937.333 1205.83 OFFCURVE",
"861.667 1271 OFFCURVE",
"771 1339 CURVE",
"764 1339 LINE",
"672 1271 OFFCURVE",
"596.167 1205.83 OFFCURVE",
"536.5 1143.5 CURVE SMOOTH",
"476.833 1081.17 OFFCURVE",
"432 1017 OFFCURVE",
"402 951 CURVE SMOOTH",
"372 885 OFFCURVE",
"357 811.333 OFFCURVE",
"357 730 CURVE SMOOTH",
"357 649.333 OFFCURVE",
"372 576.167 OFFCURVE",
"402 510.5 CURVE SMOOTH",
"432 444.833 OFFCURVE",
"476.833 381.167 OFFCURVE",
"536.5 319.5 CURVE SMOOTH",
"596.167 257.833 OFFCURVE",
"672 193 OFFCURVE",
"764 125 CURVE",
"771 125 LINE"
);
}
);
width = 1533;
}
);
},
{
glyphname = uni10CAD.ltr;
layers = (
{
layerId = "4958E06B-1FD7-4815-824D-973C628D14CF";
paths = (
{
closed = 1;
nodes = (
"259 1077 LINE",
"438 1077 LINE",
"1130 558 LINE",
"1130 1461 LINE",
"1310 1461 LINE",
"1310 363 LINE",
"1130 363 LINE",
"438 873 LINE",
"438 2 LINE",
"259 2 LINE"
);
}
);
width = 1570;
}
);
},
{
glyphname = uni10CAE.ltr;
layers = (
{
layerId = "4958E06B-1FD7-4815-824D-973C628D14CF";
paths = (
{
closed = 1;
nodes = (
"1317 1263 LINE",
"872 946 LINE",
"428 1263 LINE",
"428 4 LINE",
"248 4 LINE",
"248 1465 LINE",
"424 1465 LINE",
"872 1138 LINE",
"1321 1465 LINE",
"1496 1465 LINE",
"1496 4 LINE",
"1317 4 LINE"
);
}
);
width = 1770;
}
);
},
{
glyphname = uni10CAF.ltr;
layers = (
{
layerId = "4958E06B-1FD7-4815-824D-973C628D14CF";
paths = (
{
closed = 1;
nodes = (
"421 491 LINE",
"421 4 LINE",
"242 4 LINE",
"242 1465 LINE",
"415 1465 LINE",
"1227 982 LINE",
"1227 1465 LINE",
"1406 1465 LINE",
"1406 4 LINE",
"1233 4 LINE"
);
},
{
closed = 1;
nodes = (
"421 1293 LINE",
"421 1061 LINE",
"1227 582 LINE",
"1227 814 LINE"
);
},
{
closed = 1;
nodes = (
"421 893 LINE",
"421 661 LINE",
"1227 183 LINE",
"1227 415 LINE"
);
}
);
width = 1634;
}
);
},
{
glyphname = uni10CB0.ltr;
layers = (
{
layerId = "4958E06B-1FD7-4815-824D-973C628D14CF";
paths = (
{
closed = 1;
nodes = (
"698 546 LINE",
"20 1365 LINE",
"168 1461 LINE",
"698 822 LINE",
"698 1462 LINE",
"877 1462 LINE",
"877 813 LINE",
"1408 1461 LINE",
"1555 1365 LINE",
"877 546 LINE",
"877 1 LINE",
"698 1 LINE"
);
}
);
width = 1586;
}
);
},
{
glyphname = uni10CB1.ltr;
layers = (
{
layerId = "4958E06B-1FD7-4815-824D-973C628D14CF";
paths = (
{
closed = 1;
nodes = (
"392 264 LINE",
"176 49 LINE",
"60 162 LINE",
"396 480 LINE",
"774 195 LINE",
"774 440 LINE",
"392 770 LINE",
"174 555 LINE",
"60 666 LINE",
"396 986 LINE",
"774 653 LINE",
"774 913 LINE",
"392 1264 LINE",
"174 1051 LINE",
"60 1162 LINE",
"396 1482 LINE",
"774 1127 LINE",
"774 1464 LINE",
"954 1464 LINE",
"954 1127 LINE",
"1331 1482 LINE",
"1665 1162 LINE",
"1553 1051 LINE",
"1337 1269 LINE",
"954 913 LINE",
"954 660 LINE",
"1331 983 LINE",
"1665 663 LINE",
"1553 552 LINE",
"1337 767 LINE",
"954 447 LINE",
"954 195 LINE",
"1331 480 LINE",
"1665 162 LINE",
"1553 49 LINE",
"1337 264 LINE",
"954 3 LINE",
"774 3 LINE"
);
}
);
width = 1726;
}
);
},
{
glyphname = uni10CB2.ltr;
layers = (
{
layerId = "4958E06B-1FD7-4815-824D-973C628D14CF";
paths = (
{
closed = 1;
nodes = (
"564 76 OFFCURVE",
"474 148.333 OFFCURVE",
"398 221 CURVE SMOOTH",
"321.333 294.333 OFFCURVE",
"261.833 372.5 OFFCURVE",
"219.5 455.5 CURVE SMOOTH",
"177.167 538.5 OFFCURVE",
"156 631.333 OFFCURVE",
"156 734 CURVE SMOOTH",
"156 836.667 OFFCURVE",
"177.167 929.833 OFFCURVE",
"219.5 1013.5 CURVE SMOOTH",
"261.833 1097.17 OFFCURVE",
"321.333 1176 OFFCURVE",
"398 1250 CURVE SMOOTH",
"474.667 1323.33 OFFCURVE",
"564.667 1395.33 OFFCURVE",
"668 1466 CURVE",
"865 1466 LINE",
"967.667 1395.33 OFFCURVE",
"1057.67 1323.33 OFFCURVE",
"1135 1250 CURVE SMOOTH",
"1212.33 1176 OFFCURVE",
"1272.17 1097.17 OFFCURVE",
"1314.5 1013.5 CURVE SMOOTH",
"1356.83 929.833 OFFCURVE",
"1378 836.667 OFFCURVE",
"1378 734 CURVE SMOOTH",
"1378 632 OFFCURVE",
"1356.83 539.333 OFFCURVE",
"1314.5 456 CURVE SMOOTH",
"1272.17 372.667 OFFCURVE",
"1212.33 294.333 OFFCURVE",
"1135 221 CURVE SMOOTH",
"1057.67 148.333 OFFCURVE",
"967.667 76 OFFCURVE",
"865 4 CURVE",
"668 4 LINE"
);
},
{
closed = 1;
nodes = (
"927 239 OFFCURVE",
"990 298.333 OFFCURVE",
"1040 355 CURVE SMOOTH",
"1090 411.667 OFFCURVE",
"1127.33 470.333 OFFCURVE",
"1152 531 CURVE SMOOTH",
"1176.67 591.667 OFFCURVE",
"1189 659.333 OFFCURVE",
"1189 734 CURVE SMOOTH",
"1189 808.667 OFFCURVE",
"1176.67 876.667 OFFCURVE",
"1152 938 CURVE SMOOTH",
"1127.33 999.333 OFFCURVE",
"1090 1058.67 OFFCURVE",
"1040 1116 CURVE SMOOTH",
"990 1173.33 OFFCURVE",
"927 1232.33 OFFCURVE",
"851 1293 CURVE",
"851 177 LINE"
);
},
{
closed = 1;
nodes = (
"606 1232.33 OFFCURVE",
"543.167 1173.33 OFFCURVE",
"493.5 1116 CURVE SMOOTH",
"443.833 1058.67 OFFCURVE",
"407 999.333 OFFCURVE",
"383 938 CURVE SMOOTH",
"359 876.667 OFFCURVE",
"347 808.667 OFFCURVE",
"347 734 CURVE SMOOTH",
"347 660 OFFCURVE",
"359 592.5 OFFCURVE",
"383 531.5 CURVE SMOOTH",
"407 470.5 OFFCURVE",
"444 411.667 OFFCURVE",
"494 355 CURVE SMOOTH",
"542 301 OFFCURVE",
"604.667 242 OFFCURVE",
"682 178 CURVE",
"682 1293 LINE"
);
}
);
width = 1533;
}
);
},
{
glyphname = uni10CC0.ltr;
layers = (
{
layerId = "4958E06B-1FD7-4815-824D-973C628D14CF";
paths = (
{
closed = 1;
nodes = (
"64 1100 LINE",
"301 1100 LINE",
"696 749 LINE",
"696 558 LINE",
"238 558 LINE",
"238 2 LINE",
"64 2 LINE"
);
},
{
closed = 1;
nodes = (
"238 964 LINE",
"238 696 LINE",
"544 699 LINE"
);
}
);
width = 885;
}
);
},
{
glyphname = uni10CC1.ltr;
layers = (
{
layerId = "4958E06B-1FD7-4815-824D-973C628D14CF";
paths = (
{
closed = 1;
nodes = (
"84 1100 LINE",
"253 1100 LINE",
"674 758 LINE",
"674 612 LINE",
"257 300 LINE",
"257 2 LINE",
"84 2 LINE"
);
},
{
closed = 1;
nodes = (
"257 907 LINE",
"257 490 LINE",
"522 687 LINE"
);
}
);
width = 863;
}
);
},
{
glyphname = uni10CC2.ltr;
layers = (
{
layerId = "4958E06B-1FD7-4815-824D-973C628D14CF";
paths = (
{
closed = 1;
nodes = (
"541 466 LINE",
"222 2 LINE",
"20 2 LINE",
"433 576 LINE",
"50 1100 LINE",
"238 1100 LINE",
"535 683 LINE",
"831 1100 LINE",
"1029 1100 LINE",
"640 572 LINE",
"1053 2 LINE",
"865 2 LINE"
);
}
);
width = 1071;
}
);
},
{
glyphname = uni10CC3.ltr;
layers = (
{
layerId = "4958E06B-1FD7-4815-824D-973C628D14CF";
paths = (
{
closed = 1;
nodes = (
"935.333 94.3333 OFFCURVE",
"878 49 OFFCURVE",
"814 5 CURVE",
"677 5 LINE",
"646.333 27 OFFCURVE",
"616.667 49 OFFCURVE",
"588 71 CURVE SMOOTH",
"559.333 93 OFFCURVE",
"532.333 115.667 OFFCURVE",
"507 139 CURVE",
"383 3 LINE",
"80 124 LINE",
"136 245 LINE",
"339 158 LINE",
"411 243 LINE",
"375 289.667 OFFCURVE",
"347.333 338.333 OFFCURVE",
"328 389 CURVE SMOOTH",
"308.667 439.667 OFFCURVE",
"299 495 OFFCURVE",
"299 555 CURVE SMOOTH",
"299 615 OFFCURVE",
"308.667 670.667 OFFCURVE",
"328 722 CURVE SMOOTH",
"347.333 773.333 OFFCURVE",
"375 821.667 OFFCURVE",
"411 867 CURVE",
"339 950 LINE",
"136 861 LINE",
"80 986 LINE",
"383 1106 LINE",
"507 972 LINE",
"532.333 995.333 OFFCURVE",
"559.333 1017.33 OFFCURVE",
"588 1038 CURVE SMOOTH",
"616.667 1058.67 OFFCURVE",
"646.333 1080 OFFCURVE",
"677 1102 CURVE",
"814 1102 LINE",
"846 1078.67 OFFCURVE",
"876.167 1056.67 OFFCURVE",
"904.5 1036 CURVE SMOOTH",
"932.833 1015.33 OFFCURVE",
"960.333 992.667 OFFCURVE",
"987 968 CURVE",
"1113 1106 LINE",
"1418 986 LINE",
"1358 861 LINE",
"1159 950 LINE",
"1083 861 LINE",
"1116.33 815.667 OFFCURVE",
"1142.33 767.667 OFFCURVE",
"1161 717 CURVE SMOOTH",
"1179.67 666.333 OFFCURVE",
"1189 612.333 OFFCURVE",
"1189 555 CURVE SMOOTH",
"1189 497 OFFCURVE",
"1179.67 442.5 OFFCURVE",
"1161 391.5 CURVE SMOOTH",
"1142.33 340.5 OFFCURVE",
"1116.33 292.333 OFFCURVE",
"1083 247 CURVE",
"1159 158 LINE",
"1358 245 LINE",
"1418 124 LINE",
"1113 3 LINE",
"986 141 LINE"
);
},
{
closed = 1;
nodes = (
"810 173 OFFCURVE",
"862.333 219.667 OFFCURVE",
"903 263 CURVE SMOOTH",
"943.667 306.333 OFFCURVE",
"973.833 351.167 OFFCURVE",
"993.5 397.5 CURVE SMOOTH",
"1013.17 443.833 OFFCURVE",
"1023 496.333 OFFCURVE",
"1023 555 CURVE SMOOTH",
"1023 612.333 OFFCURVE",
"1013.5 664.167 OFFCURVE",
"994.5 710.5 CURVE SMOOTH",
"975.5 756.833 OFFCURVE",
"945.333 802.167 OFFCURVE",
"904 846.5 CURVE SMOOTH",
"862.667 890.833 OFFCURVE",
"810 938 OFFCURVE",
"746 988 CURVE",
"742 988 LINE",
"648 913.333 OFFCURVE",
"578.333 844 OFFCURVE",
"533 780 CURVE SMOOTH",
"487.667 716 OFFCURVE",
"465 641 OFFCURVE",
"465 555 CURVE SMOOTH",
"465 469.667 OFFCURVE",
"487.167 395 OFFCURVE",
"531.5 331 CURVE SMOOTH",
"575.833 267 OFFCURVE",
"646 197.667 OFFCURVE",
"742 123 CURVE",
"746 123 LINE"
);
}
);
width = 1497;
}
);
},
{
glyphname = uni10CC4.ltr;
layers = (
{
layerId = "4958E06B-1FD7-4815-824D-973C628D14CF";
paths = (
{
closed = 1;
nodes = (
"359 896 LINE",
"106 691 LINE",
"8 793 LINE",
"388 1098 LINE",
"502 1098 LINE",
"883 793 LINE",
"785 691 LINE",
"532 896 LINE",
"532 1 LINE",
"359 1 LINE"
);
}
);
width = 891;
}
);
},
{
glyphname = uni10CC5.ltr;
layers = (
{
layerId = "4958E06B-1FD7-4815-824D-973C628D14CF";
paths = (
{
closed = 1;
nodes = (
"8 306 LINE",
"106 413 LINE",
"359 208 LINE",
"359 897 LINE",
"106 692 LINE",
"8 795 LINE",
"388 1100 LINE",
"502 1100 LINE",
"883 795 LINE",
"785 692 LINE",
"532 897 LINE",
"532 208 LINE",
"785 413 LINE",
"883 306 LINE",
"502 2 LINE",
"388 2 LINE"
);
}
);
width = 891;
}
);
},
{
glyphname = uni10CC6.ltr;
layers = (
{
layerId = "4958E06B-1FD7-4815-824D-973C628D14CF";
paths = (
{
closed = 1;
nodes = (
"360 312 LINE",
"360 0 LINE",
"190 0 LINE",
"190 1098 LINE",
"342 1098 LINE",
"868 782 LINE",
"868 1098 LINE",
"1037 1098 LINE",
"1037 0 LINE",
"886 0 LINE"
);
},
{
closed = 1;
nodes = (
"360 933 LINE",
"360 468 LINE",
"868 167 LINE",
"868 626 LINE"
);
}
);
width = 1225;
}
);
},
{
glyphname = uni10CC7.ltr;
layers = (
{
layerId = "4958E06B-1FD7-4815-824D-973C628D14CF";
paths = (
{
closed = 1;
nodes = (
"349 534 LINE",
"52 673 LINE",
"117 798 LINE",
"349 688 LINE",
"349 1100 LINE",
"522 1100 LINE",
"522 604 LINE",
"819 463 LINE",
"751 343 LINE",
"522 452 LINE",
"522 2 LINE",
"349 2 LINE"
);
}
);
width = 871;
}
);
},
{
glyphname = uni10CC8.ltr;
layers = (
{
layerId = "4958E06B-1FD7-4815-824D-973C628D14CF";
paths = (
{
closed = 1;
nodes = (
"541 466 LINE",
"222 2 LINE",
"20 2 LINE",
"411 545 LINE",
"84 631 LINE",
"114 748 LINE",
"353 684 LINE",
"50 1099 LINE",
"238 1099 LINE",
"535 683 LINE",
"831 1099 LINE",
"1029 1099 LINE",
"662 604 LINE",
"1007 512 LINE",
"961 400 LINE",
"718 465 LINE",
"1053 2 LINE",
"865 2 LINE"
);
}
);
width = 1071;
}
);
},
{
glyphname = uni10CC9.ltr;
layers = (
{
layerId = "4958E06B-1FD7-4815-824D-973C628D14CF";
paths = (
{
closed = 1;
nodes = (
"294 198 LINE",
"226 248.667 OFFCURVE",
"176.667 302.167 OFFCURVE",
"146 358.5 CURVE SMOOTH",
"115.333 414.833 OFFCURVE",
"100 479.333 OFFCURVE",
"100 552 CURVE SMOOTH",
"100 621.333 OFFCURVE",
"114.667 683.833 OFFCURVE",
"144 739.5 CURVE SMOOTH",
"173.333 795.167 OFFCURVE",
"221.333 848 OFFCURVE",
"288 898 CURVE",
"158 999 LINE",
"244 1103 LINE",
"407 974 LINE",
"478.333 1014.67 OFFCURVE",
"567.333 1056 OFFCURVE",
"674 1098 CURVE",
"764 983 LINE",
"717.333 963.667 OFFCURVE",
"674.833 945.167 OFFCURVE",
"636.5 927.5 CURVE SMOOTH",
"598.167 909.833 OFFCURVE",
"563 893 OFFCURVE",
"531 877 CURVE",
"684 756 LINE",
"589 662 LINE",
"411 801 LINE",
"361 764.333 OFFCURVE",
"326.333 726 OFFCURVE",
"307 686 CURVE SMOOTH",
"287.667 646 OFFCURVE",
"278 601.333 OFFCURVE",
"278 552 CURVE SMOOTH",
"278 498.667 OFFCURVE",
"287.5 451 OFFCURVE",
"306.5 409 CURVE SMOOTH",
"325.5 367 OFFCURVE",
"360.333 327 OFFCURVE",
"411 289 CURVE",
"589 429 LINE",
"684 334 LINE",
"533 214 LINE",
"593.667 181.333 OFFCURVE",
"668 148.333 OFFCURVE",
"756 115 CURVE",
"682 0 LINE",
"576 40.6667 OFFCURVE",
"486.333 81.3333 OFFCURVE",
"413 122 CURVE",
"254 -2 LINE",
"168 102 LINE"
);
}
);
width = 819;
}
);
},
{
glyphname = uni10CCA.ltr;
layers = (
{
layerId = "4958E06B-1FD7-4815-824D-973C628D14CF";
paths = (
{
closed = 1;
nodes = (
"605.667 46 OFFCURVE",
"517.333 86.3333 OFFCURVE",
"446 125 CURVE",
"374.667 86.3333 OFFCURVE",
"286.333 46 OFFCURVE",
"181 4 CURVE",
"108 120 LINE",
"147.333 136 OFFCURVE",
"184 151.333 OFFCURVE",
"218 166 CURVE SMOOTH",
"252 180.667 OFFCURVE",
"283.667 195.333 OFFCURVE",
"313 210 CURVE",
"247.667 259.333 OFFCURVE",
"200.667 311.667 OFFCURVE",
"172 367 CURVE SMOOTH",
"143.333 422.333 OFFCURVE",
"129 485.333 OFFCURVE",
"129 556 CURVE SMOOTH",
"129 624 OFFCURVE",
"143 685.333 OFFCURVE",
"171 740 CURVE SMOOTH",
"199 794.667 OFFCURVE",
"244.333 846.333 OFFCURVE",
"307 895 CURVE",
"277.667 910.333 OFFCURVE",
"246.167 925.833 OFFCURVE",
"212.5 941.5 CURVE SMOOTH",
"178.833 957.167 OFFCURVE",
"141.333 973 OFFCURVE",
"100 989 CURVE",
"189 1102 LINE",
"288.333 1063.33 OFFCURVE",
"374 1023.67 OFFCURVE",
"446 983 CURVE",
"517.333 1023 OFFCURVE",
"603 1062.67 OFFCURVE",
"703 1102 CURVE",
"793 989 LINE",
"751.667 972.333 OFFCURVE",
"714.167 956.167 OFFCURVE",
"680.5 940.5 CURVE SMOOTH",
"646.833 924.833 OFFCURVE",
"615.333 909.667 OFFCURVE",
"586 895 CURVE",
"646.667 847 OFFCURVE",
"691.333 795.5 OFFCURVE",
"720 740.5 CURVE SMOOTH",
"748.667 685.5 OFFCURVE",
"763 624 OFFCURVE",
"763 556 CURVE SMOOTH",
"763 486 OFFCURVE",
"748.833 423.333 OFFCURVE",
"720.5 368 CURVE SMOOTH",
"692.167 312.667 OFFCURVE",
"645.333 260 OFFCURVE",
"580 210 CURVE",
"609.333 194.667 OFFCURVE",
"640.833 179.833 OFFCURVE",
"674.5 165.5 CURVE SMOOTH",
"708.167 151.167 OFFCURVE",
"745 136 OFFCURVE",
"785 120 CURVE",
"711 4 LINE"
);
},
{
closed = 1;
nodes = (
"498 358.333 OFFCURVE",
"534.333 399.167 OFFCURVE",
"555 441.5 CURVE SMOOTH",
"575.667 483.833 OFFCURVE",
"586 531.333 OFFCURVE",
"586 584 CURVE SMOOTH",
"586 636.667 OFFCURVE",
"575.667 683.167 OFFCURVE",
"555 723.5 CURVE SMOOTH",
"534.333 763.833 OFFCURVE",
"498 803 OFFCURVE",
"446 841 CURVE",
"394.667 803 OFFCURVE",
"358.667 763.667 OFFCURVE",
"338 723 CURVE SMOOTH",
"317.333 682.333 OFFCURVE",
"307 636 OFFCURVE",
"307 584 CURVE SMOOTH",
"307 531.333 OFFCURVE",
"317.167 483.833 OFFCURVE",
"337.5 441.5 CURVE SMOOTH",
"357.833 399.167 OFFCURVE",
"394 358.333 OFFCURVE",
"446 319 CURVE"
);
}
);
width = 853;
}
);
},
{
glyphname = uni10CCB.ltr;
layers = (
{
layerId = "4958E06B-1FD7-4815-824D-973C628D14CF";
paths = (
{
closed = 1;
nodes = (
"351 208 LINE",
"249 262 OFFCURVE",
"176.333 316.333 OFFCURVE",
"133 371 CURVE SMOOTH",
"89.6667 425.667 OFFCURVE",
"68 486.333 OFFCURVE",
"68 553 CURVE SMOOTH",
"68 619.667 OFFCURVE",
"89.5 680 OFFCURVE",
"132.5 734 CURVE SMOOTH",
"175.5 788 OFFCURVE",
"249 843 OFFCURVE",
"353 899 CURVE",
"191 1004 LINE",
"293 1099 LINE",
"616 879 LINE",
"504 829 LINE SMOOTH",
"416 789.667 OFFCURVE",
"348.333 744.667 OFFCURVE",
"301 694 CURVE SMOOTH",
"259.667 650 OFFCURVE",
"239 603 OFFCURVE",
"239 553 CURVE SMOOTH",
"239.667 505.667 OFFCURVE",
"258 461 OFFCURVE",
"294 419 CURVE SMOOTH",
"336 369.667 OFFCURVE",
"396.667 326.667 OFFCURVE",
"476 290 CURVE SMOOTH",
"616 225 LINE",
"293 1 LINE",
"191 100 LINE"
);
}
);
width = 705;
}
);
},
{
glyphname = uni10CCC.ltr;
layers = (
{
layerId = "4958E06B-1FD7-4815-824D-973C628D14CF";
paths = (
{
closed = 1;
nodes = (
"373.667 81.6667 OFFCURVE",
"282.5 164.167 OFFCURVE",
"213.5 250.5 CURVE SMOOTH",
"144.5 336.833 OFFCURVE",
"110 437.667 OFFCURVE",
"110 553 CURVE SMOOTH",
"110 667.667 OFFCURVE",
"144.5 768 OFFCURVE",
"213.5 854 CURVE SMOOTH",
"282.5 940 OFFCURVE",
"373.667 1022.33 OFFCURVE",
"487 1101 CURVE",
"624 1101 LINE",
"737.333 1022.33 OFFCURVE",
"828.167 940.167 OFFCURVE",
"896.5 854.5 CURVE SMOOTH",
"964.833 768.833 OFFCURVE",
"999 668.333 OFFCURVE",
"999 553 CURVE SMOOTH",
"999 438.333 OFFCURVE",
"964.833 337.667 OFFCURVE",
"896.5 251 CURVE SMOOTH",
"828.167 164.333 OFFCURVE",
"737.333 81.6667 OFFCURVE",
"624 3 CURVE",
"487 3 LINE"
);
},
{
closed = 1;
nodes = (
"707.333 852.667 OFFCURVE",
"681.833 878.167 OFFCURVE",
"653.5 904.5 CURVE SMOOTH",
"625.167 930.833 OFFCURVE",
"593 958 OFFCURVE",
"557 986 CURVE",
"553 986 LINE",
"517 958 OFFCURVE",
"484.333 930.833 OFFCURVE",
"455 904.5 CURVE SMOOTH",
"425.667 878.167 OFFCURVE",
"400.333 852 OFFCURVE",
"379 826 CURVE",
"555 643 LINE",
"730 828 LINE"
);
},
{
closed = 1;
nodes = (
"826 434.333 OFFCURVE",
"838 491 OFFCURVE",
"838 553 CURVE SMOOTH",
"838 613.667 OFFCURVE",
"826 669.667 OFFCURVE",
"802 721 CURVE",
"642 549 LINE",
"802 383 LINE"
);
},
{
closed = 1;
nodes = (
"308 720 LINE",
"284 668.667 OFFCURVE",
"272 613 OFFCURVE",
"272 553 CURVE SMOOTH",
"272 492.333 OFFCURVE",
"284 436.333 OFFCURVE",
"308 385 CURVE",
"467 549 LINE"
);
},
{
closed = 1;
nodes = (
"627.667 175 OFFCURVE",
"684 225.333 OFFCURVE",
"726 272 CURVE",
"555 456 LINE",
"383 272 LINE",
"425.667 225.333 OFFCURVE",
"482.333 175 OFFCURVE",
"553 121 CURVE",
"557 121 LINE"
);
}
);
width = 1107;
}
);
},
{
glyphname = uni10CCD.ltr;
layers = (
{
layerId = "4958E06B-1FD7-4815-824D-973C628D14CF";
paths = (
{
closed = 1;
nodes = (
"652 681 LINE SMOOTH",
"627.333 739 OFFCURVE",
"610 782.667 OFFCURVE",
"600 812 CURVE SMOOTH",
"588 845.333 OFFCURVE",
"577.667 878 OFFCURVE",
"569 910 CURVE",
"561 910 LINE",
"553 879.333 OFFCURVE",
"542.333 844.667 OFFCURVE",
"529 806 CURVE SMOOTH",
"515 766 OFFCURVE",
"499 724.333 OFFCURVE",
"481 681 CURVE",
"481 681 OFFCURVE",
"481 681 OFFCURVE",
"449 605 CURVE",
"704 0 LINE",
"531 0 LINE",
"365 413 LINE",
"188 0 LINE",
"10 0 LINE",
"495 1098 LINE",
"636 1098 LINE",
"1119 0 LINE",
"945 0 LINE"
);
}
);
width = 1125;
}
);
},
{
glyphname = uni10CCE.ltr;
layers = (
{
layerId = "4958E06B-1FD7-4815-824D-973C628D14CF";
paths = (
{
closed = 1;
nodes = (
"365 341 LINE",
"64 502 LINE",
"122 618 LINE",
"365 495 LINE",
"365 685 LINE",
"64 844 LINE",
"122 960 LINE",
"365 834 LINE",
"365 1100 LINE",
"538 1100 LINE",
"538 752 LINE",
"839 596 LINE",
"769 482 LINE",
"538 604 LINE",
"538 411 LINE",
"839 255 LINE",
"769 142 LINE",
"538 260 LINE",
"538 2 LINE",
"365 2 LINE"
);
}
);
width = 897;
}
);
},
{
glyphname = uni10CCF.ltr;
layers = (
{
layerId = "4958E06B-1FD7-4815-824D-973C628D14CF";
paths = (
{
closed = 1;
nodes = (
"535 196 LINE",
"302 3 LINE",
"88 3 LINE",
"425 285 LINE",
"80 573 LINE",
"423 837 LINE",
"84 1101 LINE",
"300 1101 LINE",
"535 922 LINE",
"768 1101 LINE",
"985 1101 LINE",
"644 837 LINE",
"989 573 LINE",
"644 285 LINE",
"981 3 LINE",
"766 3 LINE"
);
},
{
closed = 1;
nodes = (
"535 749 LINE",
"305 571 LINE",
"535 379 LINE",
"760 571 LINE"
);
}
);
width = 1067;
}
);
},
{
glyphname = uni10CD0.ltr;
layers = (
{
layerId = "4958E06B-1FD7-4815-824D-973C628D14CF";
paths = (
{
closed = 1;
nodes = (
"365 752 LINE",
"64 906 LINE",
"122 1022 LINE",
"365 899 LINE",
"365 1098 LINE",
"538 1098 LINE",
"538 810 LINE",
"839 659 LINE",
"769 545 LINE",
"538 664 LINE",
"538 0 LINE",
"365 0 LINE"
);
}
);
width = 901;
}
);
},
{
glyphname = uni10CD1.ltr;
layers = (
{
layerId = "4958E06B-1FD7-4815-824D-973C628D14CF";
paths = (
{
closed = 1;
nodes = (
"311 970 LINE",
"16 1111 LINE",
"74 1220 LINE",
"839 856 LINE",
"769 749 LINE",
"484 885 LINE",
"484 4 LINE",
"311 4 LINE"
);
}
);
width = 839;
}
);
},
{
glyphname = uni10CD2.ltr;
layers = (
{
layerId = "4958E06B-1FD7-4815-824D-973C628D14CF";
paths = (
{
closed = 1;
nodes = (
"22 1100 LINE",
"175 1100 LINE",
"622 702 LINE",
"514 606 LINE",
"195 889 LINE",
"195 2 LINE",
"22 2 LINE"
);
}
);
width = 811;
}
);
},
{
glyphname = uni10CD3.ltr;
layers = (
{
layerId = "4958E06B-1FD7-4815-824D-973C628D14CF";
paths = (
{
closed = 1;
nodes = (
"66 557 LINE",
"415 1101 LINE",
"566 1101 LINE",
"917 557 LINE",
"566 3 LINE",
"415 3 LINE"
);
},
{
closed = 1;
nodes = (
"490 948 LINE",
"245 556 LINE",
"490 156 LINE",
"737 556 LINE"
);
}
);
width = 983;
}
);
},
{
glyphname = uni10CD4.ltr;
layers = (
{
layerId = "4958E06B-1FD7-4815-824D-973C628D14CF";
paths = (
{
closed = 1;
nodes = (
"30 304 LINE",
"128 411 LINE",
"381 206 LINE",
"381 1098 LINE",
"524 1098 LINE",
"905 793 LINE",
"807 687 LINE",
"554 892 LINE",
"554 0 LINE",
"411 0 LINE"
);
}
);
width = 935;
}
);
},
{
glyphname = uni10CD5.ltr;
layers = (
{
layerId = "4958E06B-1FD7-4815-824D-973C628D14CF";
paths = (
{
closed = 1;
nodes = (
"387 3 LINE",
"56 132 LINE",
"117 245 LINE",
"307 168 LINE",
"587 561 LINE",
"317 936 LINE",
"125 857 LINE",
"64 972 LINE",
"397 1101 LINE",
"682 683 LINE",
"971 1102 LINE",
"1300 971 LINE",
"1238 856 LINE",
"1049 936 LINE",
"778 561 LINE",
"1057 168 LINE",
"1248 245 LINE",
"1310 132 LINE",
"979 3 LINE",
"682 436 LINE"
);
}
);
width = 1365;
}
);
},
{
glyphname = uni10CD6.ltr;
layers = (
{
layerId = "4958E06B-1FD7-4815-824D-973C628D14CF";
paths = (
{
closed = 1;
nodes = (
"712 682 LINE SMOOTH",
"690.667 725.333 OFFCURVE",
"670.667 769.667 OFFCURVE",
"652 815 CURVE SMOOTH",
"636.667 851.667 OFFCURVE",
"624.333 884.667 OFFCURVE",
"615 914 CURVE",
"607 914 LINE",
"599 890.667 OFFCURVE",
"588.667 863.333 OFFCURVE",
"576 832 CURVE SMOOTH",
"563.333 800.667 OFFCURVE",
"549.667 767.333 OFFCURVE",
"535 732 CURVE",
"876 1 LINE",
"709 1 LINE",
"454 560 LINE",
"372 390 LINE",
"545 1 LINE",
"378 1 LINE",
"288 216 LINE",
"186 1 LINE",
"10 1 LINE",
"541 1099 LINE",
"683 1099 LINE",
"1211 1 LINE",
"1041 1 LINE"
);
}
);
width = 1219;
}
);
},
{
glyphname = uni10CD7.ltr;
layers = (
{
layerId = "4958E06B-1FD7-4815-824D-973C628D14CF";
paths = (
{
closed = 1;
nodes = (
"373.667 80.6667 OFFCURVE",
"282.5 163.167 OFFCURVE",
"213.5 249.5 CURVE SMOOTH",
"144.5 335.833 OFFCURVE",
"110 436.667 OFFCURVE",
"110 552 CURVE SMOOTH",
"110 666.667 OFFCURVE",
"144.5 767 OFFCURVE",
"213.5 853 CURVE SMOOTH",
"282.5 939 OFFCURVE",
"373.667 1021.33 OFFCURVE",
"487 1100 CURVE",
"624 1100 LINE",
"737.333 1021.33 OFFCURVE",
"828.167 939.167 OFFCURVE",
"896.5 853.5 CURVE SMOOTH",
"964.833 767.833 OFFCURVE",
"999 667.333 OFFCURVE",
"999 552 CURVE SMOOTH",
"999 437.333 OFFCURVE",
"964.833 336.667 OFFCURVE",
"896.5 250 CURVE SMOOTH",
"828.167 163.333 OFFCURVE",
"737.333 80.6667 OFFCURVE",
"624 2 CURVE",
"487 2 LINE"
);
},
{
closed = 1;
nodes = (
"822.667 436.667 OFFCURVE",
"834 492.667 OFFCURVE",
"834 552 CURVE SMOOTH",
"834 610 OFFCURVE",
"824.333 662 OFFCURVE",
"805 708 CURVE SMOOTH",
"785.667 754 OFFCURVE",
"755.5 798.667 OFFCURVE",
"714.5 842 CURVE SMOOTH",
"673.5 885.333 OFFCURVE",
"621 932 OFFCURVE",
"557 982 CURVE",
"553 982 LINE",
"473.667 919.333 OFFCURVE",
"415.667 866.333 OFFCURVE",
"379 823 CURVE",
"800 384 LINE"
);
},
{
closed = 1;
nodes = (
"591.667 146.667 OFFCURVE",
"622.833 172.333 OFFCURVE",
"650.5 197 CURVE SMOOTH",
"678.167 221.667 OFFCURVE",
"702.667 246.333 OFFCURVE",
"724 271 CURVE",
"310 715 LINE",
"287.333 663.667 OFFCURVE",
"276 609.333 OFFCURVE",
"276 552 CURVE SMOOTH",
"276 466.667 OFFCURVE",
"298.167 392 OFFCURVE",
"342.5 328 CURVE SMOOTH",
"386.833 264 OFFCURVE",
"457 194.667 OFFCURVE",
"553 120 CURVE",
"557 120 LINE"
);
}
);
width = 1107;
}
);
},
{
glyphname = uni10CD8.ltr;
layers = (
{
layerId = "4958E06B-1FD7-4815-824D-973C628D14CF";
paths = (
{
closed = 1;
nodes = (
"96 1099 LINE",
"261 1099 LINE",
"769 876 LINE",
"769 695 LINE",
"486 554 LINE",
"769 425 LINE",
"769 243 LINE",
"253 1 LINE",
"96 1 LINE"
);
},
{
closed = 1;
nodes = (
"255 941 LINE",
"255 585 LINE",
"623 779 LINE"
);
},
{
closed = 1;
nodes = (
"255 522 LINE",
"255 172 LINE",
"623 340 LINE"
);
}
);
width = 959;
}
);
},
{
glyphname = uni10CD9.ltr;
layers = (
{
layerId = "4958E06B-1FD7-4815-824D-973C628D14CF";
paths = (
{
closed = 1;
nodes = (
"504.667 59.3333 OFFCURVE",
"391.667 114.167 OFFCURVE",
"307 168.5 CURVE SMOOTH",
"222.333 222.833 OFFCURVE",
"160.667 280.833 OFFCURVE",
"122 342.5 CURVE SMOOTH",
"83.3333 404.167 OFFCURVE",
"64 475.333 OFFCURVE",
"64 556 CURVE SMOOTH",
"64 633.333 OFFCURVE",
"83.3333 703 OFFCURVE",
"122 765 CURVE SMOOTH",
"160.667 827 OFFCURVE",
"221.667 884.833 OFFCURVE",
"305 938.5 CURVE SMOOTH",
"388.333 992.167 OFFCURVE",
"499.333 1046.67 OFFCURVE",
"638 1102 CURVE",
"728 986 LINE",
"600 934 OFFCURVE",
"500.833 886.333 OFFCURVE",
"430.5 843 CURVE SMOOTH",
"360.167 799.667 OFFCURVE",
"311.167 755.5 OFFCURVE",
"283.5 710.5 CURVE SMOOTH",
"255.833 665.5 OFFCURVE",
"242 614 OFFCURVE",
"242 556 CURVE SMOOTH",
"242 494 OFFCURVE",
"255.833 439.333 OFFCURVE",
"283.5 392 CURVE SMOOTH",
"311.167 344.667 OFFCURVE",
"359.5 299.667 OFFCURVE",
"428.5 257 CURVE SMOOTH",
"497.5 214.333 OFFCURVE",
"594.667 168.667 OFFCURVE",
"720 120 CURVE",
"646 4 LINE"
);
}
);
width = 837;
}
);
},
{
glyphname = uni10CDA.ltr;
layers = (
{
layerId = "4958E06B-1FD7-4815-824D-973C628D14CF";
paths = (
{
closed = 1;
nodes = (
"575.333 59.6667 OFFCURVE",
"476.833 116.5 OFFCURVE",
"402.5 171.5 CURVE SMOOTH",
"328.167 226.5 OFFCURVE",
"274.167 284.833 OFFCURVE",
"240.5 346.5 CURVE SMOOTH",
"206.833 408.167 OFFCURVE",
"190 476.333 OFFCURVE",
"190 551 CURVE SMOOTH",
"190 621.667 OFFCURVE",
"207.167 687.5 OFFCURVE",
"241.5 748.5 CURVE SMOOTH",
"275.833 809.5 OFFCURVE",
"330.167 868.5 OFFCURVE",
"404.5 925.5 CURVE SMOOTH",
"478.833 982.5 OFFCURVE",
"576.667 1040.33 OFFCURVE",
"698 1099 CURVE",
"867 1099 LINE",
"867 1 LINE",
"698 1 LINE"
);
},
{
closed = 1;
nodes = (
"608.667 890.333 OFFCURVE",
"540.167 846.5 OFFCURVE",
"492.5 805.5 CURVE SMOOTH",
"444.833 764.5 OFFCURVE",
"411.333 723.667 OFFCURVE",
"392 683 CURVE SMOOTH",
"372.667 642.333 OFFCURVE",
"363 598.333 OFFCURVE",
"363 551 CURVE SMOOTH",
"363 471.667 OFFCURVE",
"388.167 402.167 OFFCURVE",
"438.5 342.5 CURVE SMOOTH",
"488.833 282.833 OFFCURVE",
"575.333 222.333 OFFCURVE",
"698 161 CURVE",
"698 937 LINE"
);
}
);
width = 977;
}
);
},
{
glyphname = uni10CDB.ltr;
layers = (
{
layerId = "4958E06B-1FD7-4815-824D-973C628D14CF";
paths = (
{
closed = 1;
nodes = (
"337.333 91 OFFCURVE",
"234 176 OFFCURVE",
"166 258 CURVE SMOOTH",
"98 340 OFFCURVE",
"64 435.333 OFFCURVE",
"64 544 CURVE SMOOTH",
"64 608.667 OFFCURVE",
"77 670.667 OFFCURVE",
"103 730 CURVE SMOOTH",
"129.667 789.333 OFFCURVE",
"173.167 848.833 OFFCURVE",
"233.5 908.5 CURVE SMOOTH",
"293.833 968.167 OFFCURVE",
"374.667 1032.33 OFFCURVE",
"476 1101 CURVE",
"833 812 LINE",
"717 713 LINE",
"474 912 LINE",
"414.667 868 OFFCURVE",
"367.667 826.333 OFFCURVE",
"333 787 CURVE SMOOTH",
"298.333 747.667 OFFCURVE",
"273.667 708.333 OFFCURVE",
"259 669 CURVE SMOOTH",
"244.333 629 OFFCURVE",
"237 587.333 OFFCURVE",
"237 544 CURVE SMOOTH",
"237 474 OFFCURVE",
"253.667 410.667 OFFCURVE",
"287 354 CURVE SMOOTH",
"319.667 298 OFFCURVE",
"377.333 240 OFFCURVE",
"460 180 CURVE",
"717 388 LINE",
"833 289 LINE",
"476 3 LINE"
);
}
);
width = 943;
}
);
},
{
glyphname = uni10CDC.ltr;
layers = (
{
layerId = "4958E06B-1FD7-4815-824D-973C628D14CF";
paths = (
{
closed = 1;
nodes = (
"333.333 91 OFFCURVE",
"227.667 176.333 OFFCURVE",
"159 259 CURVE SMOOTH",
"90.3333 341.667 OFFCURVE",
"56 437 OFFCURVE",
"56 545 CURVE SMOOTH",
"56 610.333 OFFCURVE",
"69.6667 672.667 OFFCURVE",
"97 732 CURVE SMOOTH",
"124.333 790.667 OFFCURVE",
"168.333 849.833 OFFCURVE",
"229 909.5 CURVE SMOOTH",
"289.667 969.167 OFFCURVE",
"372 1033 OFFCURVE",
"476 1101 CURVE",
"584 990 LINE",
"492.667 930.667 OFFCURVE",
"421 877 OFFCURVE",
"369 829 CURVE SMOOTH",
"317 781 OFFCURVE",
"280.333 734.333 OFFCURVE",
"259 689 CURVE SMOOTH",
"237.667 643.667 OFFCURVE",
"227 595.667 OFFCURVE",
"227 545 CURVE SMOOTH",
"227 475 OFFCURVE",
"244 411.333 OFFCURVE",
"278 354 CURVE SMOOTH",
"311.333 298 OFFCURVE",
"371.333 239.333 OFFCURVE",
"458 178 CURVE",
"676 362 LINE",
"480 539 LINE",
"594 640 LINE",
"901 353 LINE",
"476 3 LINE"
);
}
);
width = 1011;
}
);
},
{
glyphname = uni10CDD.ltr;
layers = (
{
layerId = "4958E06B-1FD7-4815-824D-973C628D14CF";
paths = (
{
closed = 1;
nodes = (
"459 388 LINE",
"66 707 LINE",
"530 1098 LINE",
"644 995 LINE",
"277 700 LINE",
"672 382 LINE",
"214 2 LINE",
"111 105 LINE"
);
}
);
width = 737;
}
);
},
{
glyphname = uni10CDE.ltr;
layers = (
{
layerId = "4958E06B-1FD7-4815-824D-973C628D14CF";
paths = (
{
closed = 1;
nodes = (
"772 552 LINE",
"393 2 LINE",
"190 2 LINE",
"599 565 LINE",
"204 1100 LINE",
"397 1100 LINE",
"772 567 LINE",
"772 1100 LINE",
"945 1100 LINE",
"945 2 LINE",
"772 2 LINE"
);
}
);
width = 981;
}
);
},
{
glyphname = uni10CDF.ltr;
layers = (
{
layerId = "4958E06B-1FD7-4815-824D-973C628D14CF";
paths = (
{
closed = 1;
nodes = (
"494.667 38.6667 OFFCURVE",
"443.833 72.5 OFFCURVE",
"399.5 105.5 CURVE SMOOTH",
"355.167 138.5 OFFCURVE",
"316.333 172 OFFCURVE",
"283 206 CURVE",
"146 106 LINE",
"56 192 LINE",
"204 301 LINE",
"156 375.667 OFFCURVE",
"132 457.333 OFFCURVE",
"132 546 CURVE SMOOTH",
"132 590 OFFCURVE",
"138 632.5 OFFCURVE",
"150 673.5 CURVE SMOOTH",
"162 714.5 OFFCURVE",
"181.333 755.333 OFFCURVE",
"208 796 CURVE",
"62 906 LINE",
"152 988 LINE",
"285 891 LINE",
"317 924.333 OFFCURVE",
"354.833 958.333 OFFCURVE",
"398.5 993 CURVE SMOOTH",
"442.167 1027.67 OFFCURVE",
"493.333 1064 OFFCURVE",
"552 1102 CURVE",
"660 991 LINE",
"550 919.667 OFFCURVE",
"467.667 855.333 OFFCURVE",
"413 798 CURVE",
"413 798 OFFCURVE",
"413 798 OFFCURVE",
"499 735 CURVE",
"407 649 LINE",
"339 699 LINE",
"325.667 673.667 OFFCURVE",
"316.333 648.333 OFFCURVE",
"311 623 CURVE SMOOTH",
"305.667 597 OFFCURVE",
"303 571.333 OFFCURVE",
"303 546 CURVE SMOOTH",
"303 493.333 OFFCURVE",
"313 443.333 OFFCURVE",
"333 396 CURVE",
"405 448 LINE",
"497 363 LINE",
"401 294 LINE",
"433.667 256.667 OFFCURVE",
"478 218.333 OFFCURVE",
"534 179 CURVE",
"752 363 LINE",
"556 540 LINE",
"670 641 LINE",
"977 354 LINE",
"552 4 LINE"
);
}
);
width = 1077;
}
);
},
{
glyphname = uni10CE0.ltr;
layers = (
{
layerId = "4958E06B-1FD7-4815-824D-973C628D14CF";
paths = (
{
closed = 1;
nodes = (
"254 2 LINE",
"84 2 LINE",
"84 1100 LINE",
"234 1100 LINE",
"714 737 LINE",
"614 641 LINE",
"254 918 LINE",
"254 753 LINE",
"714 412 LINE",
"614 314 LINE",
"254 590 LINE",
"254 425 LINE",
"714 85 LINE",
"614 -14 LINE",
"254 263 LINE"
);
}
);
width = 903;
}
);
},
{
glyphname = uni10CE1.ltr;
layers = (
{
layerId = "4958E06B-1FD7-4815-824D-973C628D14CF";
paths = (
{
closed = 1;
nodes = (
"955 105.667 OFFCURVE",
"929.167 83.3333 OFFCURVE",
"901.5 62 CURVE SMOOTH",
"873.833 40.6667 OFFCURVE",
"844.667 19.6667 OFFCURVE",
"814 -1 CURVE",
"677 -1 LINE",
"646.333 19.6667 OFFCURVE",
"617 41 OFFCURVE",
"589 63 CURVE SMOOTH",
"561 85 OFFCURVE",
"534.333 107 OFFCURVE",
"509 129 CURVE",
"339 -33 LINE",
"221 65 LINE",
"413 232 LINE",
"390.333 262 OFFCURVE",
"370.667 292.667 OFFCURVE",
"354 324 CURVE SMOOTH",
"337.333 355.333 OFFCURVE",
"324.333 388.333 OFFCURVE",
"315 423 CURVE",
"104 318 LINE",
"28 441 LINE",
"299 569 LINE",
"300.333 624.333 OFFCURVE",
"310.667 674.5 OFFCURVE",
"330 719.5 CURVE SMOOTH",
"349.333 764.5 OFFCURVE",
"376.333 808 OFFCURVE",
"411 850 CURVE",
"411 850 OFFCURVE",
"411 850 OFFCURVE",
"164 743 CURVE",
"94 867 LINE",
"673 1097 LINE",
"816 1097 LINE",
"1394 867 LINE",
"1324 743 LINE",
"1079 848 LINE",
"1112.33 806 OFFCURVE",
"1138.33 762.833 OFFCURVE",
"1157 718.5 CURVE SMOOTH",
"1175.67 674.167 OFFCURVE",
"1186.33 624.333 OFFCURVE",
"1189 569 CURVE",
"1460 441 LINE",
"1384 318 LINE",
"1173 423 LINE",
"1155.67 357 OFFCURVE",
"1123 293.333 OFFCURVE",
"1075 232 CURVE",
"1266 65 LINE",
"1149 -33 LINE",
"979 129 LINE"
);
},
{
closed = 1;
nodes = (
"810 177 OFFCURVE",
"862.333 223.667 OFFCURVE",
"903 267 CURVE SMOOTH",
"943.667 310.333 OFFCURVE",
"973.833 355.333 OFFCURVE",
"993.5 402 CURVE SMOOTH",
"1013.17 448.667 OFFCURVE",
"1023 501.333 OFFCURVE",
"1023 560 CURVE SMOOTH",
"1023 648 OFFCURVE",
"1001.17 724.833 OFFCURVE",
"957.5 790.5 CURVE SMOOTH",
"913.833 856.167 OFFCURVE",
"843.333 922.667 OFFCURVE",
"746 990 CURVE",
"742 990 LINE",
"648 922.667 OFFCURVE",
"578.333 856.167 OFFCURVE",
"533 790.5 CURVE SMOOTH",
"487.667 724.833 OFFCURVE",
"465 648 OFFCURVE",
"465 560 CURVE SMOOTH",
"465 474.667 OFFCURVE",
"487.167 399.833 OFFCURVE",
"531.5 335.5 CURVE SMOOTH",
"575.833 271.167 OFFCURVE",
"646 201.667 OFFCURVE",
"742 127 CURVE",
"746 127 LINE"
);
}
);
width = 1487;
}
);
},
{
glyphname = uni10CE2.ltr;
layers = (
{
layerId = "4958E06B-1FD7-4815-824D-973C628D14CF";
paths = (
{
closed = 1;
nodes = (
"888 322 LINE",
"364 634 LINE",
"364 1 LINE",
"190 1 LINE",
"190 1099 LINE",
"364 1099 LINE",
"364 797 LINE",
"888 485 LINE",
"888 1099 LINE",
"1061 1099 LINE",
"1061 1 LINE",
"888 1 LINE"
);
}
);
width = 1249;
}
);
},
{
glyphname = uni10CE3.ltr;
layers = (
{
layerId = "4958E06B-1FD7-4815-824D-973C628D14CF";
paths = (
{
closed = 1;
nodes = (
"133 826 LINE",
"815 469 LINE",
"737 344 LINE",
"54 702 LINE"
);
}
);
width = 879;
}
);
},
{
glyphname = uni10CE4.ltr;
layers = (
{
layerId = "4958E06B-1FD7-4815-824D-973C628D14CF";
paths = (
{
closed = 1;
nodes = (
"652 683 LINE SMOOTH",
"646 697 OFFCURVE",
"628.667 740.333 OFFCURVE",
"600 813 CURVE SMOOTH",
"587.333 847 OFFCURVE",
"577 880 OFFCURVE",
"569 912 CURVE",
"561 912 LINE",
"553 881.333 OFFCURVE",
"542.333 847 OFFCURVE",
"529 809 CURVE SMOOTH",
"512.333 761.667 OFFCURVE",
"496.333 719.667 OFFCURVE",
"481 683 CURVE SMOOTH",
"188 2 LINE",
"10 2 LINE",
"495 1098 LINE",
"636 1098 LINE",
"1119 2 LINE",
"945 2 LINE"
);
}
);
width = 1127;
}
);
},
{
glyphname = uni10CE5.ltr;
layers = (
{
layerId = "4958E06B-1FD7-4815-824D-973C628D14CF";
paths = (
{
closed = 1;
nodes = (
"190 1100 LINE",
"363 1100 LINE",
"363 2 LINE",
"190 2 LINE"
);
}
);
width = 551;
}
);
},
{
glyphname = uni10CE6.ltr;
layers = (
{
layerId = "4958E06B-1FD7-4815-824D-973C628D14CF";
paths = (
{
closed = 1;
nodes = (
"76 1099 LINE",
"250 1099 LINE",
"250 679 LINE",
"612 1096 LINE",
"742 991 LINE",
"250 440 LINE",
"250 1 LINE",
"76 1 LINE"
);
}
);
width = 931;
}
);
},
{
glyphname = uni10CE7.ltr;
layers = (
{
layerId = "4958E06B-1FD7-4815-824D-973C628D14CF";
paths = (
{
closed = 1;
nodes = (
"574 627 LINE",
"285 915 LINE",
"131 771 LINE",
"28 867 LINE",
"291 1104 LINE",
"574 819 LINE",
"574 1104 LINE",
"744 1104 LINE",
"744 817 LINE",
"1025 1104 LINE",
"1290 867 LINE",
"1184 771 LINE",
"1033 915 LINE",
"744 625 LINE",
"744 6 LINE",
"574 6 LINE"
);
}
);
width = 1317;
}
);
},
{
glyphname = uni10CE8.ltr;
layers = (
{
layerId = "4958E06B-1FD7-4815-824D-973C628D14CF";
paths = (
{
closed = 1;
nodes = (
"541 467 LINE",
"445 328 LINE",
"668 3 LINE",
"495 3 LINE",
"359 203 LINE",
"222 3 LINE",
"20 3 LINE",
"433 577 LINE",
"50 1098 LINE",
"238 1098 LINE",
"535 684 LINE",
"624 807 LINE",
"421 1098 LINE",
"596 1098 LINE",
"710 930 LINE",
"831 1098 LINE",
"1029 1098 LINE",
"640 573 LINE",
"1053 3 LINE",
"865 3 LINE"
);
}
);
width = 1071;
}
);
},
{
glyphname = uni10CE9.ltr;
layers = (
{
layerId = "4958E06B-1FD7-4815-824D-973C628D14CF";
paths = (
{
closed = 1;
nodes = (
"394 577 LINE",
"81 1004 LINE",
"193 1098 LINE",
"587 991 LINE",
"547 866 LINE",
"314 932 LINE",
"482 696 LINE",
"781 1098 LINE",
"979 1098 LINE",
"590 573 LINE",
"1003 3 LINE",
"815 3 LINE",
"481 458 LINE",
"260 155 LINE",
"509 227 LINE",
"552 102 LINE",
"148 -5 LINE",
"20 89 LINE"
);
}
);
width = 1029;
}
);
},
{
glyphname = uni10CEA.ltr;
layers = (
{
layerId = "4958E06B-1FD7-4815-824D-973C628D14CF";
paths = (
{
closed = 1;
nodes = (
"661 211 LINE",
"348 1 LINE",
"190 1 LINE",
"190 1099 LINE",
"348 1099 LINE",
"661 889 LINE",
"978 1099 LINE",
"1131 1099 LINE",
"1131 1 LINE",
"978 1 LINE"
);
},
{
closed = 1;
nodes = (
"661 720 LINE",
"360 913 LINE",
"360 185 LINE",
"661 379 LINE",
"962 185 LINE",
"962 913 LINE"
);
}
);
width = 1319;
}
);
},
{
glyphname = uni10CEB.ltr;
layers = (
{
layerId = "4958E06B-1FD7-4815-824D-973C628D14CF";
paths = (
{
closed = 1;
nodes = (
"707 445 LINE",
"336 -1 LINE",
"190 -1 LINE",
"190 1097 LINE",
"336 1097 LINE",
"707 647 LINE",
"1072 1097 LINE",
"1227 1097 LINE",
"1227 -1 LINE",
"1072 -1 LINE"
);
},
{
closed = 1;
nodes = (
"346 862 LINE",
"340 862 LINE",
"340 231 LINE",
"346 231 LINE",
"614 549 LINE"
);
},
{
closed = 1;
nodes = (
"1062 852 LINE",
"801 549 LINE",
"1062 239 LINE",
"1068 239 LINE",
"1068 852 LINE"
);
}
);
width = 1415;
}
);
},
{
glyphname = uni10CEC.ltr;
layers = (
{
layerId = "4958E06B-1FD7-4815-824D-973C628D14CF";
paths = (
{
closed = 1;
nodes = (
"774.667 89 OFFCURVE",
"719.667 45.6667 OFFCURVE",
"659 3 CURVE",
"521 3 LINE",
"490.333 23.6667 OFFCURVE",
"461.167 45 OFFCURVE",
"433.5 67 CURVE SMOOTH",
"405.833 89 OFFCURVE",
"379.333 111 OFFCURVE",
"354 133 CURVE",
"194 -25 LINE",
"76 73 LINE",
"256 239 LINE",
"221.333 285.667 OFFCURVE",
"194 334.667 OFFCURVE",
"174 386 CURVE SMOOTH",
"154 437.333 OFFCURVE",
"144 492.333 OFFCURVE",
"144 551 CURVE SMOOTH",
"144 610.333 OFFCURVE",
"154 665.667 OFFCURVE",
"174 717 CURVE SMOOTH",
"194 768.333 OFFCURVE",
"221.333 817.333 OFFCURVE",
"256 864 CURVE",
"76 1027 LINE",
"194 1125 LINE",
"354 968 LINE",
"402.667 1012.67 OFFCURVE",
"458.333 1057 OFFCURVE",
"521 1101 CURVE",
"659 1101 LINE",
"722.333 1056.33 OFFCURVE",
"777.333 1012 OFFCURVE",
"824 968 CURVE",
"981 1125 LINE",
"1099 1027 LINE",
"921 864 LINE",
"957 818.667 OFFCURVE",
"984.667 770 OFFCURVE",
"1004 718 CURVE SMOOTH",
"1023.33 666 OFFCURVE",
"1033 610.333 OFFCURVE",
"1033 551 CURVE SMOOTH",
"1033 493 OFFCURVE",
"1023.33 438.167 OFFCURVE",
"1004 386.5 CURVE SMOOTH",
"984.667 334.833 OFFCURVE",
"957 285.667 OFFCURVE",
"921 239 CURVE",
"1099 73 LINE",
"981 -25 LINE",
"824 133 LINE"
);
},
{
closed = 1;
nodes = (
"655 170 OFFCURVE",
"707.167 216.833 OFFCURVE",
"747.5 260.5 CURVE SMOOTH",
"787.833 304.167 OFFCURVE",
"818 349.167 OFFCURVE",
"838 395.5 CURVE SMOOTH",
"858 441.833 OFFCURVE",
"868 493.5 OFFCURVE",
"868 550.5 CURVE SMOOTH",
"868 607.5 OFFCURVE",
"858.333 659.167 OFFCURVE",
"839 705.5 CURVE SMOOTH",
"819.667 751.833 OFFCURVE",
"789.5 797.167 OFFCURVE",
"748.5 841.5 CURVE SMOOTH",
"707.5 885.833 OFFCURVE",
"655 933 OFFCURVE",
"591 983 CURVE",
"587 983 LINE",
"492.333 908.333 OFFCURVE",
"422.5 839 OFFCURVE",
"377.5 775 CURVE SMOOTH",
"332.5 711 OFFCURVE",
"310 636.333 OFFCURVE",
"310 551 CURVE SMOOTH",
"310 467 OFFCURVE",
"332.167 392.833 OFFCURVE",
"376.5 328.5 CURVE SMOOTH",
"420.833 264.167 OFFCURVE",
"491 194.667 OFFCURVE",
"587 120 CURVE",
"591 120 LINE"
);
}
);
width = 1173;
}
);
},
{
glyphname = uni10CED.ltr;
layers = (
{
layerId = "4958E06B-1FD7-4815-824D-973C628D14CF";
paths = (
{
closed = 1;
nodes = (
"172 835 LINE",
"342 835 LINE",
"806 496 LINE",
"806 1098 LINE",
"979 1098 LINE",
"979 307 LINE",
"812 307 LINE",
"346 646 LINE",
"346 1 LINE",
"172 1 LINE"
);
}
);
width = 1149;
}
);
},
{
glyphname = uni10CEE.ltr;
layers = (
{
layerId = "4958E06B-1FD7-4815-824D-973C628D14CF";
paths = (
{
closed = 1;
nodes = (
"962 912 LINE",
"661 719 LINE",
"360 912 LINE",
"360 0 LINE",
"190 0 LINE",
"190 1098 LINE",
"348 1098 LINE",
"661 888 LINE",
"978 1098 LINE",
"1131 1098 LINE",
"1131 0 LINE",
"962 0 LINE"
);
}
);
width = 1319;
}
);
},
{
glyphname = uni10CEF.ltr;
layers = (
{
layerId = "4958E06B-1FD7-4815-824D-973C628D14CF";
paths = (
{
closed = 1;
nodes = (
"360 365 LINE",
"360 48 LINE",
"190 48 LINE",
"190 1149 LINE",
"360 1149 LINE",
"868 831 LINE",
"868 1149 LINE",
"1037 1149 LINE",
"1037 48 LINE",
"868 48 LINE"
);
},
{
closed = 1;
nodes = (
"360 1000 LINE",
"360 831 LINE",
"868 514 LINE",
"868 683 LINE"
);
},
{
closed = 1;
nodes = (
"360 683 LINE",
"360 514 LINE",
"868 197 LINE",
"868 365 LINE"
);
}
);
width = 1225;
}
);
},
{
glyphname = uni10CF0.ltr;
layers = (
{
layerId = "4958E06B-1FD7-4815-824D-973C628D14CF";
paths = (
{
closed = 1;
nodes = (
"545 477 LINE",
"58 1014 LINE",
"194 1100 LINE",
"545 706 LINE",
"545 1100 LINE",
"719 1100 LINE",
"719 706 LINE",
"1055 1100 LINE",
"1193 1014 LINE",
"719 477 LINE",
"719 2 LINE",
"545 2 LINE"
);
}
);
width = 1239;
}
);
},
{
glyphname = uni10CF1.ltr;
layers = (
{
layerId = "4958E06B-1FD7-4815-824D-973C628D14CF";
paths = (
{
closed = 1;
nodes = (
"331 280 LINE",
"153 157 LINE",
"60 258 LINE",
"337 453 LINE",
"621 181 LINE",
"621 356 LINE",
"331 617 LINE",
"153 492 LINE",
"60 595 LINE",
"337 785 LINE",
"621 523 LINE",
"621 692 LINE",
"331 953 LINE",
"153 830 LINE",
"60 931 LINE",
"337 1126 LINE",
"621 861 LINE",
"621 1102 LINE",
"790 1102 LINE",
"790 861 LINE",
"1071 1126 LINE",
"1348 931 LINE",
"1254 830 LINE",
"1077 953 LINE",
"790 692 LINE",
"790 523 LINE",
"1071 785 LINE",
"1348 595 LINE",
"1254 492 LINE",
"1077 617 LINE",
"790 356 LINE",
"790 181 LINE",
"1071 453 LINE",
"1348 258 LINE",
"1254 157 LINE",
"1077 280 LINE",
"790 4 LINE",
"621 4 LINE"
);
}
);
width = 1407;
}
);
},
{
glyphname = uni10CF2.ltr;
layers = (
{
layerId = "4958E06B-1FD7-4815-824D-973C628D14CF";
paths = (
{
closed = 1;
nodes = (
"373.667 80.6667 OFFCURVE",
"282.5 163.167 OFFCURVE",
"213.5 249.5 CURVE SMOOTH",
"144.5 335.833 OFFCURVE",
"110 435.667 OFFCURVE",
"110 549 CURVE SMOOTH",
"110 663.667 OFFCURVE",
"144.5 764.5 OFFCURVE",
"213.5 851.5 CURVE SMOOTH",
"282.5 938.5 OFFCURVE",
"373.667 1021.33 OFFCURVE",
"487 1100 CURVE",
"624 1100 LINE",
"737.333 1021.33 OFFCURVE",
"828.167 938.667 OFFCURVE",
"896.5 852 CURVE SMOOTH",
"964.833 765.333 OFFCURVE",
"999 664.333 OFFCURVE",
"999 549 CURVE SMOOTH",
"999 436.333 OFFCURVE",
"964.833 336.667 OFFCURVE",
"896.5 250 CURVE SMOOTH",
"828.167 163.333 OFFCURVE",
"737.333 80.6667 OFFCURVE",
"624 2 CURVE",
"487 2 LINE"
);
},
{
closed = 1;
nodes = (
"699.333 240 OFFCURVE",
"750.667 298.333 OFFCURVE",
"784 355 CURVE SMOOTH",
"817.333 411.667 OFFCURVE",
"834 476.5 OFFCURVE",
"834 549.5 CURVE SMOOTH",
"834 622.5 OFFCURVE",
"817.667 687.833 OFFCURVE",
"785 745.5 CURVE SMOOTH",
"752.333 803.167 OFFCURVE",
"700.667 862 OFFCURVE",
"630 922 CURVE",
"630 180 LINE"
);
},
{
closed = 1;
nodes = (
"407.667 860 OFFCURVE",
"356.833 801.5 OFFCURVE",
"324.5 744.5 CURVE SMOOTH",
"292.167 687.5 OFFCURVE",
"276 622.667 OFFCURVE",
"276 550 CURVE SMOOTH",
"276 477.333 OFFCURVE",
"292.167 412.833 OFFCURVE",
"324.5 356.5 CURVE SMOOTH",
"356.833 300.167 OFFCURVE",
"407.667 242 OFFCURVE",
"477 182 CURVE",
"477 920 LINE"
);
}
);
width = 1107;
}
);
},
